<?xml version="1.0" encoding="utf-8"?>
<svg id="master-artboard" viewBox="0 0 1237.5220947265625 737.78759765625" version="1.1" xmlns="http://www.w3.org/2000/svg" x="0px" y="0px" enable-background="new 0 0 1400 980" width="1237.5220947265625px" height="737.78759765625px"><rect id="ee-background" x="0" y="0" width="1237.5220947265625" height="737.78759765625" style="fill: white; fill-opacity: 0; pointer-events: none;"/>
<g transform="matrix(1, 0, 0, 1, -78.23008728027344, -136.90264892578125)">
			
				<radialGradient id="SVGID_1_" cx="1169.8052" cy="758.5607" r="118.5129" gradientTransform="matrix(1 0 0 0.1366 0 708.8834)" gradientUnits="userSpaceOnUse">
				<stop offset="0" style="stop-color:#BCBEC0"/>
				<stop offset="1" style="stop-color:#FFFFFF"/>
				
				
				
			</radialGradient>
			<path d="M 1293.300049 812.5 A 123.5 23.799999 0 0 1 1169.800049 836.299999 A 123.5 23.799999 0 0 1 1046.300049 812.5 A 123.5 23.799999 0 0 1 1169.800049 788.700001 A 123.5 23.799999 0 0 1 1293.300049 812.5 Z" fill="url(#SVGID_1_)"/>
			<g>
				<linearGradient id="SVGID_2_" gradientUnits="userSpaceOnUse" x1="1134.3755" y1="685.9455" x2="1243.2209" y2="685.9455">
					<stop offset="0" style="stop-color:#EDEAE6"/>
					<stop offset="1" style="stop-color:#BCADA7"/>
					
					
					
				</linearGradient>
				<path fill="url(#SVGID_2_)" d="M1122.9,808.6c0,0,18.5,4.9,55.7,4.9c37.1,0,53.5-4.9,53.5-4.9c19.3-16,31.6-43.6,31.6-85.4&#10;&#9;&#9;&#9;&#9;&#9;c0-74-38.6-164.8-86.2-164.8c-47.6,0-86.2,90.7-86.2,164.8C1091.3,765,1103.6,792.5,1122.9,808.6z"/>
				<path fill="#8A7F79" d="M1219.6,799.6c-2,0-3.6,1.6-3.6,3.6v8.2c2.8-0.3,5.2-0.7,7.3-1v-7.2&#10;&#9;&#9;&#9;&#9;&#9;C1223.2,801.2,1221.6,799.6,1219.6,799.6z M1135.5,799.6c-2,0-3.6,1.6-3.6,3.6v7.1c2.1,0.3,4.5,0.7,7.3,1v-8.1&#10;&#9;&#9;&#9;&#9;&#9;C1139.1,801.2,1137.5,799.6,1135.5,799.6z M1177.5,799.6c-2,0-3.6,1.6-3.6,3.6v10.2c1.5,0,2.9,0,4.5,0c1,0,1.8,0,2.8,0v-10.2&#10;&#9;&#9;&#9;&#9;&#9;C1181.1,801.2,1179.5,799.6,1177.5,799.6z"/>
				<g>
					<path fill="#8A7F79" d="M1091.3,723.2c0,0.4,0,0.8,0,1.3h172.4c0-0.4,0-0.8,0-1.3c0-0.4,0-0.9,0-1.3h-172.4&#10;&#9;&#9;&#9;&#9;&#9;&#9;C1091.3,722.3,1091.3,722.8,1091.3,723.2z"/>
					<g>
						<g>
							<g>
								<path fill="#8A7F79" d="M1099,716.8v-9.4c0-0.7,0.6-1.3,1.3-1.3l0,0c0.7,0,1.3,0.6,1.3,1.3l0,0v9.4c0,0.7-0.6,1.3-1.3,1.3&#10;&#9;&#9;&#9;&#9;&#9;&#9;&#9;&#9;&#9;l0,0C1099.5,718.1,1099,717.5,1099,716.8L1099,716.8z"/>
							</g>
						</g>
						<g>
							<g>
								<path fill="#8A7F79" d="M1137.6,716.8v-9.4c0-0.7,0.6-1.3,1.3-1.3l0,0c0.7,0,1.3,0.6,1.3,1.3l0,0v9.4c0,0.7-0.6,1.3-1.3,1.3&#10;&#9;&#9;&#9;&#9;&#9;&#9;&#9;&#9;&#9;l0,0C1138.2,718.1,1137.6,717.5,1137.6,716.8L1137.6,716.8z"/>
							</g>
						</g>
						<g>
							<g>
								<path fill="#8A7F79" d="M1176.2,716.8v-9.4c0-0.7,0.6-1.3,1.3-1.3l0,0c0.7,0,1.3,0.6,1.3,1.3l0,0v9.4c0,0.7-0.6,1.3-1.3,1.3&#10;&#9;&#9;&#9;&#9;&#9;&#9;&#9;&#9;&#9;l0,0C1176.8,718.1,1176.2,717.5,1176.2,716.8L1176.2,716.8z"/>
							</g>
						</g>
						<g>
							<g>
								<path fill="#8A7F79" d="M1214.9,716.8v-9.4c0-0.7,0.6-1.3,1.3-1.3l0,0c0.7,0,1.3,0.6,1.3,1.3l0,0v9.4c0,0.7-0.6,1.3-1.3,1.3&#10;&#9;&#9;&#9;&#9;&#9;&#9;&#9;&#9;&#9;l0,0C1215.4,718.1,1214.9,717.5,1214.9,716.8L1214.9,716.8z"/>
							</g>
						</g>
						<g>
							<g>
								<path fill="#8A7F79" d="M1253.5,716.8v-9.4c0-0.7,0.6-1.3,1.3-1.3l0,0c0.7,0,1.3,0.6,1.3,1.3l0,0v9.4c0,0.7-0.6,1.3-1.3,1.3&#10;&#9;&#9;&#9;&#9;&#9;&#9;&#9;&#9;&#9;l0,0C1254.1,718.1,1253.5,717.5,1253.5,716.8L1253.5,716.8z"/>
							</g>
						</g>
					</g>
					<path d="M 1182.699951171875 733.4000244140625 L 1177.5 728.2000122070312 L 1172.300048828125 733.4000244140625 Z" fill="#EB2227"/>
					<g>
						<g>
							<path fill="#8A7F79" d="M1182,716.4v-5.8c0-0.4,0.3-0.6,0.6-0.6l0,0c0.4,0,0.6,0.3,0.6,0.6l0,0v5.8c0,0.4-0.3,0.6-0.6,0.6&#10;&#9;&#9;&#9;&#9;&#9;&#9;&#9;&#9;l0,0C1182.3,717,1182,716.7,1182,716.4L1182,716.4z"/>
						</g>
						<g>
							<path fill="#8A7F79" d="M1189.1,716.4v-5.8c0-0.4,0.3-0.6,0.6-0.6l0,0c0.4,0,0.6,0.3,0.6,0.6l0,0v5.8c0,0.3-0.3,0.6-0.6,0.6&#10;&#9;&#9;&#9;&#9;&#9;&#9;&#9;&#9;l0,0C1189.4,717,1189.1,716.7,1189.1,716.4L1189.1,716.4z"/>
						</g>
						<g>
							<path fill="#8A7F79" d="M1196.2,716.4v-5.8c0-0.4,0.3-0.6,0.6-0.6l0,0c0.4,0,0.7,0.3,0.7,0.6l0,0v5.8c0,0.3-0.3,0.6-0.7,0.6&#10;&#9;&#9;&#9;&#9;&#9;&#9;&#9;&#9;l0,0C1196.4,717,1196.2,716.7,1196.2,716.4L1196.2,716.4z"/>
						</g>
						<g>
							<path fill="#8A7F79" d="M1203.3,716.4v-5.8c0-0.4,0.3-0.6,0.6-0.6l0,0c0.4,0,0.6,0.3,0.6,0.6l0,0v5.8c0,0.4-0.3,0.6-0.6,0.6&#10;&#9;&#9;&#9;&#9;&#9;&#9;&#9;&#9;l0,0C1203.5,717,1203.3,716.7,1203.3,716.4L1203.3,716.4z"/>
						</g>
						<g>
							<path fill="#8A7F79" d="M1210.4,716.4v-5.8c0-0.4,0.3-0.6,0.6-0.6l0,0c0.4,0,0.6,0.3,0.6,0.6l0,0v5.8c0,0.4-0.3,0.6-0.6,0.6&#10;&#9;&#9;&#9;&#9;&#9;&#9;&#9;&#9;l0,0C1210.6,717,1210.4,716.7,1210.4,716.4L1210.4,716.4z"/>
						</g>
					</g>
					<g>
						<g>
							<path fill="#8A7F79" d="M1221.2,716.4v-5.8c0-0.3,0.3-0.6,0.6-0.6l0,0c0.4,0,0.6,0.3,0.6,0.6l0,0v5.8c0,0.4-0.3,0.6-0.6,0.6&#10;&#9;&#9;&#9;&#9;&#9;&#9;&#9;&#9;l0,0C1221.5,717,1221.2,716.7,1221.2,716.4L1221.2,716.4z"/>
						</g>
						<g>
							<path fill="#8A7F79" d="M1228.3,716.4v-5.8c0-0.4,0.3-0.6,0.6-0.6l0,0c0.4,0,0.6,0.3,0.6,0.6l0,0v5.8c0,0.4-0.3,0.6-0.6,0.6&#10;&#9;&#9;&#9;&#9;&#9;&#9;&#9;&#9;l0,0C1228.6,717,1228.3,716.7,1228.3,716.4L1228.3,716.4z"/>
						</g>
						<g>
							<path fill="#8A7F79" d="M1235.4,716.4v-5.8c0-0.4,0.3-0.6,0.6-0.6l0,0c0.4,0,0.6,0.3,0.6,0.6l0,0v5.8c0,0.4-0.3,0.6-0.6,0.6&#10;&#9;&#9;&#9;&#9;&#9;&#9;&#9;&#9;l0,0C1235.7,717,1235.4,716.7,1235.4,716.4L1235.4,716.4z"/>
						</g>
						<g>
							<path fill="#8A7F79" d="M1242.5,716.4v-5.8c0-0.3,0.3-0.6,0.6-0.6l0,0c0.4,0,0.6,0.3,0.6,0.6l0,0v5.8c0,0.3-0.3,0.6-0.6,0.6&#10;&#9;&#9;&#9;&#9;&#9;&#9;&#9;&#9;l0,0C1242.8,717,1242.5,716.7,1242.5,716.4L1242.5,716.4z"/>
						</g>
						<g>
							<path fill="#8A7F79" d="M1249.6,716.4v-5.8c0-0.3,0.3-0.6,0.6-0.6l0,0c0.4,0,0.6,0.3,0.6,0.6l0,0v5.8c0,0.4-0.3,0.6-0.6,0.6&#10;&#9;&#9;&#9;&#9;&#9;&#9;&#9;&#9;l0,0C1249.9,717,1249.6,716.7,1249.6,716.4L1249.6,716.4z"/>
						</g>
					</g>
					<g>
						<path fill="#6D655F" d="M1181.3,697.2c0,3.2-1.2,5-3.3,5c-1.9,0-3.1-1.7-3.2-4.9c0-3.2,1.4-5,3.3-5&#10;&#9;&#9;&#9;&#9;&#9;&#9;&#9;C1180.2,692.4,1181.3,694.2,1181.3,697.2z M1176.1,697.4c0,2.5,0.8,3.9,1.9,3.9c1.3,0,2-1.5,2-4c0-2.4-0.6-3.9-1.9-3.9&#10;&#9;&#9;&#9;&#9;&#9;&#9;&#9;C1177,693.4,1176.1,694.8,1176.1,697.4z"/>
					</g>
				</g>
			</g>
		</g><radialGradient id="SVGID_3_" cx="230.1948" cy="438.7335" r="118.5129" gradientTransform="matrix(1 0 0 0.1366 0 376.1122)" gradientUnits="userSpaceOnUse">
				<stop offset="0" style="stop-color:#BCBEC0"/>
				<stop offset="1" style="stop-color:#FFFFFF"/>
				
				
				
			</radialGradient><path d="M 353.699997 436 A 123.5 23.799999 0 0 1 230.199997 459.799999 A 123.5 23.799999 0 0 1 106.699997 436 A 123.5 23.799999 0 0 1 230.199997 412.200001 A 123.5 23.799999 0 0 1 353.699997 436 Z" fill="url(#SVGID_3_)" transform="matrix(1, 0, 0, 1, -78.23008728027344, -136.90264892578125)"/><linearGradient id="SVGID_4_" gradientUnits="userSpaceOnUse" x1="228.7362" y1="204.7671" x2="228.7362" y2="190.0343">
					<stop offset="0" style="stop-color:#EEECEC"/>
					<stop offset="1" style="stop-color:#D9D2CE"/>
					
					
					
				</linearGradient><path d="M 279.699997 198.5 A 51 12.8 0 0 1 228.699997 211.3 A 51 12.8 0 0 1 177.699997 198.5 A 51 12.8 0 0 1 228.699997 185.7 A 51 12.8 0 0 1 279.699997 198.5 Z" fill="url(#SVGID_4_)" transform="matrix(1, 0, 0, 1, -78.23008728027344, -136.90264892578125)"/><path fill="#E54145" d="M224.3,151.5c0,0-19.6,33.1-5.8,46.9c13.8,13.8,29.5,1.8,30.2-8.7c0.7-10.5-1.1-18.2-8.7-14.5&#10;&#9;&#9;&#9;&#9;&#9;c0,0,7.6-12.4,4-23.6C240.3,140.2,230.5,142,224.3,151.5z" transform="matrix(1, 0, 0, 1, -78.23008728027344, -136.90264892578125)"/><path fill="#C03B40" d="M227.6,199.5c-4,0-7.2-0.8-9.8-1.9c0.2,0.3,0.4,0.6,0.7,0.8c13.8,13.8,29.5,1.8,30.2-8.7&#10;&#9;&#9;&#9;&#9;&#9;c0.7-10.5-1.1-18.2-8.7-14.5c0,0,7.6-12.4,4-23.6c-0.9-2.8-2.2-4.7-3.7-6c2.7,6.6,4.9,18.9-5.4,34.7c0,0,9.1-5.1,10.2,4.4&#10;&#9;&#9;&#9;&#9;&#9;C246.1,194,242.8,199.5,227.6,199.5z" transform="matrix(1, 0, 0, 1, -78.23008728027344, -136.90264892578125)"/><linearGradient id="SVGID_5_" gradientUnits="userSpaceOnUse" x1="272.1162" y1="315.3182" x2="312.4952" y2="315.3182">
					<stop offset="0" style="stop-color:#EEECEC"/>
					<stop offset="1" style="stop-color:#D9D2CE"/>
					
					
					
				</linearGradient><path fill="url(#SVGID_5_)" d="M278.8,194.8c-14.9,5.6-31,8.7-47.8,8.7c-18,0-35.2-3.5-50.9-9.9&#10;&#9;&#9;&#9;&#9;&#9;c-26.9,23.1-44.8,108.3-44.8,155.8c0,72.5,41.9,87.7,93.5,87.7c51.6,0,93.5-15.1,93.5-87.7C322.3,302.7,305,218.1,278.8,194.8z" transform="matrix(1, 0, 0, 1, -78.23008728027344, -136.90264892578125)"/><path fill="#FFFFFF" d="M249.4,246.8c-8.6,0-15.7,5.8-17.8,13.7c-2.1-7.9-9.3-13.7-17.8-13.7c-10.2,0-18.6,8.3-18.6,18.6&#10;&#9;&#9;&#9;&#9;&#9;c0,10.2,8.3,18.6,18.6,18.6c8.6,0,15.7-5.8,17.8-13.7c2.1,7.9,9.3,13.7,17.8,13.7c10.2,0,18.6-8.3,18.6-18.6&#10;&#9;&#9;&#9;&#9;&#9;C267.9,255.1,259.6,246.8,249.4,246.8z" transform="matrix(1, 0, 0, 1, -78.23008728027344, -136.90264892578125)"/><path fill="#C8C4CA" d="M249.4,280.6c-8.6,0-15.7-5.8-17.8-13.7c-2.1,7.9-9.3,13.7-17.8,13.7c-9.7,0-17.5-7.4-18.4-16.9&#10;&#9;&#9;&#9;&#9;&#9;c0,0.5-0.2,1.1-0.2,1.6c0,10.2,8.3,18.6,18.6,18.6c8.6,0,15.7-5.8,17.8-13.7c2.1,7.9,9.3,13.7,17.8,13.7&#10;&#9;&#9;&#9;&#9;&#9;c10.2,0,18.6-8.3,18.6-18.6c0-0.6-0.1-1.1-0.2-1.6C266.9,273.2,259.1,280.6,249.4,280.6z" transform="matrix(1, 0, 0, 1, -78.23008728027344, -136.90264892578125)"/><linearGradient id="SVGID_6_" gradientUnits="userSpaceOnUse" x1="229.9181" y1="314.0809" x2="229.9181" y2="306.4418">
					<stop offset="0" style="stop-color:#FFDA6C"/>
					<stop offset="1" style="stop-color:#F0B433"/>
					
					
					
				</linearGradient><path d="M 244.299994 308.299988 A 14.4 7.6 0 0 1 229.899994 315.899988 A 14.4 7.6 0 0 1 215.499994 308.299988 A 14.4 7.6 0 0 1 229.899994 300.699988 A 14.4 7.6 0 0 1 244.299994 308.299988 Z" fill="url(#SVGID_6_)" transform="matrix(1, 0, 0, 1, -78.23008728027344, -136.90264892578125)"/><path fill="#8A7F79" d="M135.5,358.3c0,0.5,0,0.9,0,1.4h186.7c0-0.5,0-0.9,0-1.4c0-0.5,0-0.9,0-1.4H135.5&#10;&#9;&#9;&#9;&#9;&#9;&#9;C135.5,357.4,135.5,357.8,135.5,358.3z" transform="matrix(1, 0, 0, 1, -78.23008728027344, -136.90264892578125)"/><g transform="matrix(1, 0, 0, 1, -78.23008728027344, -136.90264892578125)">
							<g>
								<path fill="#8A7F79" d="M144.1,351.3v-10.2c0-0.6,0.5-1.1,1.1-1.1l0,0c0.6,0,1.1,0.5,1.1,1.1l0,0v10.2&#10;&#9;&#9;&#9;&#9;&#9;&#9;&#9;&#9;&#9;c0,0.6-0.5,1.1-1.1,1.1l0,0C144.6,352.4,144.1,352,144.1,351.3L144.1,351.3z"/>
							</g>
						</g><g transform="matrix(1, 0, 0, 1, -78.23008728027344, -136.90264892578125)">
								<path fill="#8A7F79" d="M185.9,351.4v-10.2c0-0.6,0.5-1.1,1.1-1.1l0,0c0.6,0,1.1,0.5,1.1,1.1l0,0v10.2&#10;&#9;&#9;&#9;&#9;&#9;&#9;&#9;&#9;&#9;c0,0.6-0.5,1.1-1.1,1.1l0,0C186.4,352.4,185.9,352,185.9,351.4L185.9,351.4z"/>
							</g><g transform="matrix(1, 0, 0, 1, -78.23008728027344, -136.90264892578125)">
								<path fill="#8A7F79" d="M227.7,351.3v-10.2c0-0.6,0.5-1.1,1.1-1.1l0,0c0.6,0,1.1,0.5,1.1,1.1l0,0v10.2&#10;&#9;&#9;&#9;&#9;&#9;&#9;&#9;&#9;&#9;c0,0.6-0.5,1.1-1.1,1.1l0,0C228.2,352.4,227.7,351.9,227.7,351.3L227.7,351.3z"/>
							</g><g transform="matrix(1, 0, 0, 1, -78.23008728027344, -136.90264892578125)">
								<path fill="#8A7F79" d="M269.6,351.4v-10.2c0-0.6,0.5-1.1,1.1-1.1l0,0c0.6,0,1.1,0.5,1.1,1.1l0,0v10.2&#10;&#9;&#9;&#9;&#9;&#9;&#9;&#9;&#9;&#9;c0,0.6-0.5,1.1-1.1,1.1l0,0C270.1,352.4,269.6,351.9,269.6,351.4L269.6,351.4z"/>
							</g><g transform="matrix(1, 0, 0, 1, -78.23008728027344, -136.90264892578125)">
								<path fill="#8A7F79" d="M311.4,351.3v-10.2c0-0.6,0.5-1.1,1.1-1.1l0,0c0.6,0,1.1,0.5,1.1,1.1l0,0v10.2&#10;&#9;&#9;&#9;&#9;&#9;&#9;&#9;&#9;&#9;c0,0.6-0.5,1.1-1.1,1.1l0,0C311.9,352.4,311.4,352,311.4,351.3L311.4,351.3z"/>
							</g><path d="M 234.5 369.3999938964844 L 228.8000030517578 363.70001220703125 L 223.1999969482422 369.3999938964844 Z" fill="#EB2227" transform="matrix(1, 0, 0, 1, -78.23008728027344, -136.90264892578125)"/><g transform="matrix(1, 0, 0, 1, -78.23008728027344, -136.90264892578125)">
							<path fill="#8A7F79" d="M233.8,350.9v-6.2c0-0.3,0.2-0.5,0.5-0.5l0,0c0.3,0,0.6,0.2,0.6,0.5l0,0v6.2c0,0.3-0.2,0.5-0.6,0.5&#10;&#9;&#9;&#9;&#9;&#9;&#9;&#9;&#9;l0,0C234.1,351.4,233.8,351.2,233.8,350.9L233.8,350.9z"/>
						</g><path fill="#8A7F79" d="M241.5,350.9v-6.2c0-0.3,0.2-0.5,0.5-0.5l0,0c0.3,0,0.5,0.2,0.5,0.5l0,0v6.2c0,0.3-0.2,0.5-0.5,0.5&#10;&#9;&#9;&#9;&#9;&#9;&#9;&#9;&#9;l0,0C241.7,351.4,241.5,351.2,241.5,350.9L241.5,350.9z" transform="matrix(1, 0, 0, 1, -78.23008728027344, -136.90264892578125)"/><path fill="#8A7F79" d="M249.2,350.9v-6.2c0-0.3,0.2-0.5,0.5-0.5l0,0c0.3,0,0.5,0.2,0.5,0.5l0,0v6.2c0,0.3-0.2,0.6-0.5,0.6&#10;&#9;&#9;&#9;&#9;&#9;&#9;&#9;&#9;l0,0C249.4,351.4,249.2,351.2,249.2,350.9L249.2,350.9z" transform="matrix(1, 0, 0, 1, -78.23008728027344, -136.90264892578125)"/><path fill="#8A7F79" d="M256.9,350.9v-6.2c0-0.3,0.2-0.6,0.5-0.6l0,0c0.3,0,0.5,0.2,0.5,0.6l0,0v6.2c0,0.3-0.2,0.5-0.5,0.5&#10;&#9;&#9;&#9;&#9;&#9;&#9;&#9;&#9;l0,0C257.1,351.4,256.9,351.2,256.9,350.9L256.9,350.9z" transform="matrix(1, 0, 0, 1, -78.23008728027344, -136.90264892578125)"/><path fill="#8A7F79" d="M264.5,350.9v-6.2c0-0.3,0.2-0.6,0.5-0.6l0,0c0.3,0,0.5,0.2,0.5,0.6l0,0v6.2c0,0.3-0.2,0.5-0.5,0.5&#10;&#9;&#9;&#9;&#9;&#9;&#9;&#9;&#9;l0,0C264.8,351.4,264.5,351.2,264.5,350.9L264.5,350.9z" transform="matrix(1, 0, 0, 1, -78.23008728027344, -136.90264892578125)"/><g transform="matrix(1, 0, 0, 1, -78.23008728027344, -136.90264892578125)">
							<path fill="#8A7F79" d="M276.3,350.9v-6.2c0-0.3,0.2-0.6,0.5-0.6l0,0c0.3,0,0.6,0.2,0.6,0.6l0,0v6.2c0,0.3-0.2,0.6-0.6,0.6&#10;&#9;&#9;&#9;&#9;&#9;&#9;&#9;&#9;l0,0C276.6,351.4,276.3,351.2,276.3,350.9L276.3,350.9z"/>
						</g><path fill="#8A7F79" d="M284,350.9v-6.2c0-0.3,0.2-0.5,0.5-0.5l0,0c0.3,0,0.5,0.2,0.5,0.5l0,0v6.2c0,0.3-0.2,0.5-0.5,0.5l0,0&#10;&#9;&#9;&#9;&#9;&#9;&#9;&#9;&#9;C284.3,351.4,284,351.2,284,350.9L284,350.9z" transform="matrix(1, 0, 0, 1, -78.23008728027344, -136.90264892578125)"/><path fill="#8A7F79" d="M291.7,350.9v-6.2c0-0.3,0.2-0.6,0.5-0.6l0,0c0.3,0,0.5,0.2,0.5,0.6l0,0v6.2c0,0.3-0.2,0.5-0.5,0.5&#10;&#9;&#9;&#9;&#9;&#9;&#9;&#9;&#9;l0,0C291.9,351.4,291.7,351.2,291.7,350.9L291.7,350.9z" transform="matrix(1, 0, 0, 1, -78.23008728027344, -136.90264892578125)"/><path fill="#8A7F79" d="M299.4,350.9v-6.2c0-0.3,0.2-0.5,0.5-0.5l0,0c0.3,0,0.5,0.2,0.5,0.5l0,0v6.2c0,0.3-0.2,0.5-0.5,0.5&#10;&#9;&#9;&#9;&#9;&#9;&#9;&#9;&#9;l0,0C299.6,351.4,299.4,351.2,299.4,350.9L299.4,350.9z" transform="matrix(1, 0, 0, 1, -78.23008728027344, -136.90264892578125)"/><path fill="#8A7F79" d="M307.1,350.9v-6.2c0-0.3,0.2-0.5,0.5-0.5l0,0c0.3,0,0.6,0.2,0.6,0.5l0,0v6.2c0,0.3-0.2,0.5-0.6,0.5&#10;&#9;&#9;&#9;&#9;&#9;&#9;&#9;&#9;l0,0C307.3,351.4,307.1,351.2,307.1,350.9L307.1,350.9z" transform="matrix(1, 0, 0, 1, -78.23008728027344, -136.90264892578125)"/><path fill="#6D655F" d="M233,330.2c0,3.5-1.3,5.5-3.6,5.5c-2,0-3.4-1.9-3.4-5.3c0-3.5,1.5-5.4,3.6-5.4&#10;&#9;&#9;&#9;&#9;&#9;&#9;&#9;C231.7,324.9,233,326.9,233,330.2z M227.4,330.3c0,2.7,0.8,4.2,2.1,4.2c1.4,0,2.1-1.7,2.1-4.3c0-2.5-0.7-4.2-2.1-4.2&#10;&#9;&#9;&#9;&#9;&#9;&#9;&#9;C228.2,326,227.4,327.5,227.4,330.3z" transform="matrix(1, 0, 0, 1, -78.23008728027344, -136.90264892578125)"/><linearGradient id="SVGID_7_" gradientUnits="userSpaceOnUse" x1="173.3511" y1="386.8375" x2="173.3511" y2="391.9296">
					<stop offset="0" style="stop-color:#EEECEC"/>
					<stop offset="1" style="stop-color:#D9D2CE"/>
					
					
					
				</linearGradient><path fill="url(#SVGID_7_)" d="M173.4,387.6c-1.6,0-3-1.3-3.7-3.3c-0.4,1-0.6,2.2-0.6,3.5c0,3.7,2,6.7,4.4,6.7&#10;&#9;&#9;&#9;&#9;&#9;c2.4,0,4.4-3,4.4-6.7c0-1.3-0.2-2.4-0.6-3.5C176.3,386.2,174.9,387.6,173.4,387.6z" transform="matrix(1, 0, 0, 1, -78.23008728027344, -136.90264892578125)"/><linearGradient id="SVGID_8_" gradientUnits="userSpaceOnUse" x1="214.9431" y1="386.8375" x2="214.9431" y2="391.9296">
					<stop offset="0" style="stop-color:#EEECEC"/>
					<stop offset="1" style="stop-color:#D9D2CE"/>
					
					
					
				</linearGradient><path fill="url(#SVGID_8_)" d="M214.9,387.6c-1.6,0-3-1.3-3.7-3.3c-0.4,1-0.6,2.2-0.6,3.5c0,3.7,2,6.7,4.4,6.7&#10;&#9;&#9;&#9;&#9;&#9;c2.4,0,4.4-3,4.4-6.7c0-1.3-0.2-2.4-0.6-3.5C217.9,386.2,216.5,387.6,214.9,387.6z" transform="matrix(1, 0, 0, 1, -78.23008728027344, -136.90264892578125)"/><linearGradient id="SVGID_9_" gradientUnits="userSpaceOnUse" x1="198.573" y1="409.7567" x2="198.573" y2="414.8483">
					<stop offset="0" style="stop-color:#EEECEC"/>
					<stop offset="1" style="stop-color:#D9D2CE"/>
					
					
					
				</linearGradient><path fill="url(#SVGID_9_)" d="M198.6,410.5c-1.6,0-3-1.3-3.7-3.3c-0.4,1-0.6,2.2-0.6,3.5c0,3.7,2,6.7,4.4,6.7&#10;&#9;&#9;&#9;&#9;&#9;c2.4,0,4.4-3,4.4-6.7c0-1.3-0.2-2.4-0.6-3.5C201.5,409.2,200.2,410.5,198.6,410.5z" transform="matrix(1, 0, 0, 1, -78.23008728027344, -136.90264892578125)"/><linearGradient id="SVGID_10_" gradientUnits="userSpaceOnUse" x1="234.2225" y1="409.7567" x2="234.2225" y2="414.8483">
					<stop offset="0" style="stop-color:#EEECEC"/>
					<stop offset="1" style="stop-color:#D9D2CE"/>
					
					
					
				</linearGradient><path fill="url(#SVGID_10_)" d="M234.2,410.5c-1.6,0-3-1.3-3.7-3.3c-0.4,1-0.6,2.2-0.6,3.5c0,3.7,2,6.7,4.4,6.7&#10;&#9;&#9;&#9;&#9;&#9;c2.4,0,4.4-3,4.4-6.7c0-1.3-0.2-2.4-0.6-3.5C237.2,409.2,235.8,410.5,234.2,410.5z" transform="matrix(1, 0, 0, 1, -78.23008728027344, -136.90264892578125)"/><linearGradient id="SVGID_11_" gradientUnits="userSpaceOnUse" x1="273.1481" y1="409.7567" x2="273.1481" y2="414.8483">
					<stop offset="0" style="stop-color:#EEECEC"/>
					<stop offset="1" style="stop-color:#D9D2CE"/>
					
					
					
				</linearGradient><path fill="url(#SVGID_11_)" d="M273.1,410.5c-1.6,0-3-1.3-3.7-3.3c-0.4,1-0.6,2.2-0.6,3.5c0,3.7,2,6.7,4.4,6.7&#10;&#9;&#9;&#9;&#9;&#9;c2.4,0,4.4-3,4.4-6.7c0-1.3-0.2-2.4-0.6-3.5C276.1,409.2,274.7,410.5,273.1,410.5z" transform="matrix(1, 0, 0, 1, -78.23008728027344, -136.90264892578125)"/><linearGradient id="SVGID_12_" gradientUnits="userSpaceOnUse" x1="256.5351" y1="386.8375" x2="256.5351" y2="391.9296">
					<stop offset="0" style="stop-color:#EEECEC"/>
					<stop offset="1" style="stop-color:#D9D2CE"/>
					
					
					
				</linearGradient><path fill="url(#SVGID_12_)" d="M256.5,387.6c-1.6,0-3-1.3-3.7-3.3c-0.4,1-0.6,2.2-0.6,3.5c0,3.7,2,6.7,4.4,6.7&#10;&#9;&#9;&#9;&#9;&#9;c2.4,0,4.4-3,4.4-6.7c0-1.3-0.2-2.4-0.6-3.5C259.5,386.2,258.1,387.6,256.5,387.6z" transform="matrix(1, 0, 0, 1, -78.23008728027344, -136.90264892578125)"/><linearGradient id="SVGID_13_" gradientUnits="userSpaceOnUse" x1="298.127" y1="386.8375" x2="298.127" y2="391.9296">
					<stop offset="0" style="stop-color:#EEECEC"/>
					<stop offset="1" style="stop-color:#D9D2CE"/>
					
					
					
				</linearGradient><path fill="url(#SVGID_13_)" d="M298.1,387.6c-1.6,0-3-1.3-3.7-3.3c-0.4,1-0.6,2.2-0.6,3.5c0,3.7,2,6.7,4.4,6.7&#10;&#9;&#9;&#9;&#9;&#9;c2.4,0,4.4-3,4.4-6.7c0-1.3-0.2-2.4-0.6-3.5C301.1,386.2,299.7,387.6,298.1,387.6z" transform="matrix(1, 0, 0, 1, -78.23008728027344, -136.90264892578125)"/><linearGradient id="SVGID_14_" gradientUnits="userSpaceOnUse" x1="229.0089" y1="306.8062" x2="229.0089" y2="294.4374">
					<stop offset="0" style="stop-color:#FFDA6C"/>
					<stop offset="1" style="stop-color:#F0B433"/>
					
					
					
				</linearGradient><path fill="url(#SVGID_14_)" d="M211.9,304.3c0,0,11.6,8.4,17.5,7.6c5.8-0.7,16.7-7.6,16.7-7.6s-8.4-8.7-17.1-8.7&#10;&#9;&#9;&#9;&#9;&#9;C220.3,295.5,211.9,304.3,211.9,304.3z" transform="matrix(1, 0, 0, 1, -78.23008728027344, -136.90264892578125)"/><path fill="#231F20" d="M256.7,265c-3.4,0-6.2-2.8-6.2-6.2c0-1.4,0.5-2.7,1.3-3.7c-0.8-0.2-1.5-0.3-2.4-0.3&#10;&#9;&#9;&#9;&#9;&#9;c-5.8,0-10.5,4.7-10.5,10.5c0,5.8,4.7,10.5,10.5,10.5c5.8,0,10.5-4.7,10.5-10.5c0-0.4-0.1-0.8-0.1-1.3&#10;&#9;&#9;&#9;&#9;&#9;C258.9,264.6,257.8,265,256.7,265z" transform="matrix(1, 0, 0, 1, -78.23008728027344, -136.90264892578125)"/><path fill="#231F20" d="M222.5,265c-3.4,0-6.2-2.8-6.2-6.2c0-1.4,0.5-2.7,1.3-3.7c-0.8-0.2-1.5-0.3-2.4-0.3&#10;&#9;&#9;&#9;&#9;&#9;c-5.8,0-10.5,4.7-10.5,10.5c0,5.8,4.7,10.5,10.5,10.5c5.8,0,10.5-4.7,10.5-10.5c0-0.4-0.1-0.8-0.1-1.3&#10;&#9;&#9;&#9;&#9;&#9;C224.7,264.6,223.6,265,222.5,265z" transform="matrix(1, 0, 0, 1, -78.23008728027344, -136.90264892578125)"/><radialGradient id="SVGID_15_" cx="230.1948" cy="758.5607" r="118.5129" gradientTransform="matrix(1 0 0 0.1366 0 708.8834)" gradientUnits="userSpaceOnUse">
				<stop offset="0" style="stop-color:#BCBEC0"/>
				<stop offset="1" style="stop-color:#FFFFFF"/>
				
				
				
			</radialGradient><path d="M 353.699997 812.5 A 123.5 23.799999 0 0 1 230.199997 836.299999 A 123.5 23.799999 0 0 1 106.699997 812.5 A 123.5 23.799999 0 0 1 230.199997 788.700001 A 123.5 23.799999 0 0 1 353.699997 812.5 Z" fill="url(#SVGID_15_)" transform="matrix(1, 0, 0, 1, -78.23008728027344, -136.90264892578125)"/><linearGradient id="SVGID_16_" gradientUnits="userSpaceOnUse" x1="232.7395" y1="791.9117" x2="288.3973" y2="791.9117">
					<stop offset="0" style="stop-color:#F69322"/>
					<stop offset="1" style="stop-color:#C77329"/>
					
					
					
				</linearGradient><path fill="url(#SVGID_16_)" d="M232.2,813.5c-2.1-3.6-3.3-7.4-3.3-11.5c0-17.5,21.4-31.6,47.7-31.6c26.4,0,47.7,14.2,47.7,31.6&#10;&#9;&#9;&#9;&#9;&#9;c0,4-1.2,7.9-3.3,11.5H232.2z" transform="matrix(1, 0, 0, 1, -78.23008728027344, -136.90264892578125)"/><linearGradient id="SVGID_17_" gradientUnits="userSpaceOnUse" x1="186.3586" y1="791.9117" x2="240.3794" y2="791.9117">
					<stop offset="0" style="stop-color:#F69322"/>
					<stop offset="1" style="stop-color:#C77329"/>
					
					
					
				</linearGradient><path fill="url(#SVGID_17_)" d="M232.7,813.5c2.1-3.6,3.3-7.4,3.3-11.5c0-17.5-21.4-31.6-47.7-31.6c-26.4,0-47.7,14.2-47.7,31.6&#10;&#9;&#9;&#9;&#9;&#9;c0,4,1.2,7.9,3.3,11.5H232.7z" transform="matrix(1, 0, 0, 1, -78.23008728027344, -136.90264892578125)"/><linearGradient id="SVGID_18_" gradientUnits="userSpaceOnUse" x1="228.8287" y1="691.0558" x2="228.8287" y2="784.1809">
					<stop offset="0" style="stop-color:#EEECEC"/>
					<stop offset="1" style="stop-color:#D9D2CE"/>
					
					
					
				</linearGradient><path d="M 327 661.200012 A 98.199997 133.100006 0 0 1 228.800003 794.300018 A 98.199997 133.100006 0 0 1 130.600006 661.200012 A 98.199997 133.100006 0 0 1 228.800003 528.100006 A 98.199997 133.100006 0 0 1 327 661.200012 Z" fill="url(#SVGID_18_)" transform="matrix(1, 0, 0, 1, -78.23008728027344, -136.90264892578125)"/><linearGradient id="SVGID_19_" gradientUnits="userSpaceOnUse" x1="230.5571" y1="661.2258" x2="230.5571" y2="655.4048">
					<stop offset="0" style="stop-color:#F69322"/>
					<stop offset="1" style="stop-color:#C77329"/>
					
					
					
				</linearGradient><path fill="url(#SVGID_19_)" d="M239.9,652.3c0,0-4.3-5-10.3-4.5c-6,0.5-8.5,5-8.5,5s3,9.3,9.8,9.5&#10;&#9;&#9;&#9;&#9;&#9;C237.7,662.6,239.9,652.3,239.9,652.3z" transform="matrix(1, 0, 0, 1, -78.23008728027344, -136.90264892578125)"/><g transform="matrix(1, 0, 0, 1, -78.23008728027344, -136.90264892578125)">
						<g>
							<path fill="#8A7F79" d="M135.5,702.2c0,0.5,0,0.9,0,1.4h186.7c0-0.5,0-0.9,0-1.4c0-0.5,0-0.9,0-1.4H135.5&#10;&#9;&#9;&#9;&#9;&#9;&#9;&#9;&#9;C135.5,701.2,135.5,701.7,135.5,702.2z"/>
						</g>
					</g><g transform="matrix(1, 0, 0, 1, -78.23008728027344, -136.90264892578125)">
							<g>
								<path fill="#8A7F79" d="M144.1,695.2v-10.2c0-0.6,0.5-1.1,1.1-1.1l0,0c0.6,0,1.1,0.5,1.1,1.1l0,0v10.2&#10;&#9;&#9;&#9;&#9;&#9;&#9;&#9;&#9;&#9;c0,0.6-0.5,1.1-1.1,1.1l0,0C144.6,696.3,144.1,695.8,144.1,695.2L144.1,695.2z"/>
							</g>
						</g><g transform="matrix(1, 0, 0, 1, -78.23008728027344, -136.90264892578125)">
								<path fill="#8A7F79" d="M185.9,695.2v-10.2c0-0.6,0.5-1.1,1.1-1.1l0,0c0.6,0,1.1,0.5,1.1,1.1l0,0v10.2&#10;&#9;&#9;&#9;&#9;&#9;&#9;&#9;&#9;&#9;c0,0.6-0.5,1.1-1.1,1.1l0,0C186.4,696.3,185.9,695.8,185.9,695.2L185.9,695.2z"/>
							</g><g transform="matrix(1, 0, 0, 1, -78.23008728027344, -136.90264892578125)">
								<path fill="#8A7F79" d="M227.7,695.2v-10.2c0-0.6,0.5-1.1,1.1-1.1l0,0c0.6,0,1.1,0.5,1.1,1.1l0,0v10.2&#10;&#9;&#9;&#9;&#9;&#9;&#9;&#9;&#9;&#9;c0,0.6-0.5,1.1-1.1,1.1l0,0C228.2,696.3,227.7,695.8,227.7,695.2L227.7,695.2z"/>
							</g><g transform="matrix(1, 0, 0, 1, -78.23008728027344, -136.90264892578125)">
								<path fill="#8A7F79" d="M269.6,695.2v-10.2c0-0.6,0.5-1.1,1.1-1.1l0,0c0.6,0,1.1,0.5,1.1,1.1l0,0v10.2&#10;&#9;&#9;&#9;&#9;&#9;&#9;&#9;&#9;&#9;c0,0.6-0.5,1.1-1.1,1.1l0,0C270.1,696.3,269.6,695.8,269.6,695.2L269.6,695.2z"/>
							</g><g transform="matrix(1, 0, 0, 1, -78.23008728027344, -136.90264892578125)">
								<path fill="#8A7F79" d="M311.4,695.2V685c0-0.6,0.5-1.1,1.1-1.1l0,0c0.6,0,1.1,0.5,1.1,1.1l0,0v10.2c0,0.6-0.5,1.1-1.1,1.1&#10;&#9;&#9;&#9;&#9;&#9;&#9;&#9;&#9;&#9;l0,0C311.9,696.3,311.4,695.8,311.4,695.2L311.4,695.2z"/>
							</g><path d="M 234.5 713.2000122070312 L 228.8000030517578 707.5999755859375 L 223.1999969482422 713.2000122070312 Z" fill="#EB2227" transform="matrix(1, 0, 0, 1, -78.23008728027344, -136.90264892578125)"/><g transform="matrix(1, 0, 0, 1, -78.23008728027344, -136.90264892578125)">
							<path fill="#8A7F79" d="M233.8,694.8v-6.2c0-0.3,0.2-0.6,0.5-0.6l0,0c0.3,0,0.5,0.2,0.5,0.6l0,0v6.2c0,0.3-0.2,0.5-0.5,0.5&#10;&#9;&#9;&#9;&#9;&#9;&#9;&#9;&#9;l0,0C234.1,695.3,233.8,695.1,233.8,694.8L233.8,694.8z"/>
						</g><path fill="#8A7F79" d="M241.5,694.8v-6.2c0-0.3,0.2-0.6,0.5-0.6l0,0c0.3,0,0.5,0.2,0.5,0.6l0,0v6.2c0,0.3-0.2,0.5-0.5,0.5&#10;&#9;&#9;&#9;&#9;&#9;&#9;&#9;&#9;l0,0C241.7,695.3,241.5,695.1,241.5,694.8L241.5,694.8z" transform="matrix(1, 0, 0, 1, -78.23008728027344, -136.90264892578125)"/><path fill="#8A7F79" d="M249.2,694.8v-6.2c0-0.3,0.2-0.6,0.5-0.6l0,0c0.3,0,0.5,0.2,0.5,0.6l0,0v6.2c0,0.3-0.2,0.5-0.5,0.5&#10;&#9;&#9;&#9;&#9;&#9;&#9;&#9;&#9;l0,0C249.4,695.3,249.2,695.1,249.2,694.8L249.2,694.8z" transform="matrix(1, 0, 0, 1, -78.23008728027344, -136.90264892578125)"/><path fill="#8A7F79" d="M256.9,694.8v-6.2c0-0.3,0.2-0.6,0.5-0.6l0,0c0.3,0,0.5,0.2,0.5,0.6l0,0v6.2c0,0.3-0.2,0.5-0.5,0.5&#10;&#9;&#9;&#9;&#9;&#9;&#9;&#9;&#9;l0,0C257.1,695.3,256.9,695.1,256.9,694.8L256.9,694.8z" transform="matrix(1, 0, 0, 1, -78.23008728027344, -136.90264892578125)"/><path fill="#8A7F79" d="M264.5,694.8v-6.2c0-0.3,0.2-0.6,0.6-0.6l0,0c0.3,0,0.5,0.2,0.5,0.6l0,0v6.2c0,0.3-0.2,0.5-0.5,0.5&#10;&#9;&#9;&#9;&#9;&#9;&#9;&#9;&#9;l0,0C264.8,695.3,264.5,695.1,264.5,694.8L264.5,694.8z" transform="matrix(1, 0, 0, 1, -78.23008728027344, -136.90264892578125)"/><g transform="matrix(1, 0, 0, 1, -78.23008728027344, -136.90264892578125)">
							<path fill="#8A7F79" d="M276.3,694.8v-6.2c0-0.3,0.2-0.6,0.5-0.6l0,0c0.3,0,0.5,0.2,0.5,0.6l0,0v6.2c0,0.3-0.2,0.5-0.5,0.5&#10;&#9;&#9;&#9;&#9;&#9;&#9;&#9;&#9;l0,0C276.6,695.3,276.3,695.1,276.3,694.8L276.3,694.8z"/>
						</g><path fill="#8A7F79" d="M284,694.8v-6.2c0-0.3,0.2-0.6,0.5-0.6l0,0c0.3,0,0.6,0.2,0.6,0.6l0,0v6.2c0,0.3-0.2,0.5-0.6,0.5l0,0&#10;&#9;&#9;&#9;&#9;&#9;&#9;&#9;&#9;C284.2,695.3,284,695.1,284,694.8L284,694.8z" transform="matrix(1, 0, 0, 1, -78.23008728027344, -136.90264892578125)"/><path fill="#8A7F79" d="M291.7,694.8v-6.2c0-0.3,0.2-0.5,0.6-0.5l0,0c0.3,0,0.5,0.2,0.5,0.5l0,0v6.2c0,0.3-0.2,0.5-0.5,0.5&#10;&#9;&#9;&#9;&#9;&#9;&#9;&#9;&#9;l0,0C291.9,695.3,291.7,695.1,291.7,694.8L291.7,694.8z" transform="matrix(1, 0, 0, 1, -78.23008728027344, -136.90264892578125)"/><path fill="#8A7F79" d="M299.4,694.8v-6.2c0-0.3,0.2-0.5,0.5-0.5l0,0c0.3,0,0.5,0.2,0.5,0.5l0,0v6.2c0,0.3-0.2,0.5-0.5,0.5&#10;&#9;&#9;&#9;&#9;&#9;&#9;&#9;&#9;l0,0C299.6,695.3,299.4,695.1,299.4,694.8L299.4,694.8z" transform="matrix(1, 0, 0, 1, -78.23008728027344, -136.90264892578125)"/><path fill="#8A7F79" d="M307.1,694.8v-6.2c0-0.3,0.2-0.5,0.5-0.5l0,0c0.3,0,0.5,0.2,0.5,0.5l0,0v6.2c0,0.3-0.2,0.6-0.5,0.6&#10;&#9;&#9;&#9;&#9;&#9;&#9;&#9;&#9;l0,0C307.3,695.3,307.1,695.1,307.1,694.8L307.1,694.8z" transform="matrix(1, 0, 0, 1, -78.23008728027344, -136.90264892578125)"/><path fill="#6D655F" d="M233,674.1c0,3.5-1.3,5.5-3.6,5.5c-2,0-3.4-1.9-3.4-5.3c0-3.5,1.5-5.4,3.6-5.4&#10;&#9;&#9;&#9;&#9;&#9;&#9;&#9;C231.7,668.8,233,670.8,233,674.1z M227.4,674.2c0,2.7,0.8,4.2,2.1,4.2c1.4,0,2.1-1.7,2.1-4.3c0-2.5-0.7-4.2-2.1-4.2&#10;&#9;&#9;&#9;&#9;&#9;&#9;&#9;C228.2,669.9,227.4,671.4,227.4,674.2z" transform="matrix(1, 0, 0, 1, -78.23008728027344, -136.90264892578125)"/><path d="M 278.599995 618.400024 A 22.200001 26.5 0 0 1 256.399994 644.900024 A 22.200001 26.5 0 0 1 234.199993 618.400024 A 22.200001 26.5 0 0 1 256.399994 591.900024 A 22.200001 26.5 0 0 1 278.599995 618.400024 Z" fill="#FFFFFF" transform="matrix(1, 0, 0, 1, -78.23008728027344, -136.90264892578125)"/><path d="M 226.899998 618.400024 A 22.200001 26.5 0 0 1 204.699997 644.900024 A 22.200001 26.5 0 0 1 182.499996 618.400024 A 22.200001 26.5 0 0 1 204.699997 591.900024 A 22.200001 26.5 0 0 1 226.899998 618.400024 Z" fill="#FFFFFF" transform="matrix(1, 0, 0, 1, -78.23008728027344, -136.90264892578125)"/><path fill="#B7BCB6" d="M256.4,591.9c-12.3,0-22.2,11.8-22.2,26.5c0,0.9,0,1.7,0.1,2.5c1.1-13.4,10.5-23.9,22.1-23.9&#10;&#9;&#9;&#9;&#9;&#9;c11.5,0,21,10.5,22.1,23.9c0.1-0.8,0.1-1.7,0.1-2.5C278.6,603.8,268.6,591.9,256.4,591.9z M204.7,591.9&#10;&#9;&#9;&#9;&#9;&#9;c-12.2,0-22.2,11.8-22.2,26.5c0,0.9,0,1.7,0.1,2.5c1.1-13.4,10.5-23.9,22.1-23.9c11.5,0,21,10.5,22.1,23.9&#10;&#9;&#9;&#9;&#9;&#9;c0.1-0.8,0.1-1.7,0.1-2.5C226.9,603.8,217,591.9,204.7,591.9z" transform="matrix(1, 0, 0, 1, -78.23008728027344, -136.90264892578125)"/><linearGradient id="SVGID_20_" gradientUnits="userSpaceOnUse" x1="230.0114" y1="645.6056" x2="245.4461" y2="645.6056">
					<stop offset="0" style="stop-color:#F69322"/>
					<stop offset="1" style="stop-color:#C77329"/>
					
					
					
				</linearGradient><path fill="url(#SVGID_20_)" d="M216.9,649.6c0,0,6.2,7.3,14.9,6.5c8.7-0.7,12.4-7.3,12.4-7.3s-4.4-13.5-14.2-13.8&#10;&#9;&#9;&#9;&#9;&#9;C220.2,634.7,216.9,649.6,216.9,649.6z" transform="matrix(1, 0, 0, 1, -78.23008728027344, -136.90264892578125)"/><path fill="#231F20" d="M254.9,615.4c-3.1,0-5.6-2.4-5.6-5.3c0-1,0.4-1.8,0.8-2.6c-0.3-0.1-0.7-0.1-1-0.1&#10;&#9;&#9;&#9;&#9;&#9;c-4.1,0-7.5,4.1-7.5,9.1c0,5,3.3,9.1,7.5,9.1c4.1,0,7.5-4.1,7.5-9.1c0-0.5-0.1-0.9-0.1-1.4C256,615.2,255.5,615.4,254.9,615.4z" transform="matrix(1, 0, 0, 1, -78.23008728027344, -136.90264892578125)"/><path fill="#231F20" d="M216.4,615.4c-3.1,0-5.6-2.4-5.6-5.3c0-1,0.4-1.8,0.8-2.6c-0.3-0.1-0.7-0.1-1-0.1&#10;&#9;&#9;&#9;&#9;&#9;c-4.1,0-7.5,4.1-7.5,9.1c0,5,3.3,9.1,7.5,9.1c4.1,0,7.5-4.1,7.5-9.1c0-0.5-0.1-0.9-0.1-1.4C217.4,615.2,216.9,615.4,216.4,615.4&#10;&#9;&#9;&#9;&#9;&#9;z" transform="matrix(1, 0, 0, 1, -78.23008728027344, -136.90264892578125)"/><radialGradient id="SVGID_21_" cx="537.118" cy="758.5607" r="118.5129" gradientTransform="matrix(1 0 0 0.1366 0 708.8834)" gradientUnits="userSpaceOnUse">
				<stop offset="0" style="stop-color:#BCBEC0"/>
				<stop offset="1" style="stop-color:#FFFFFF"/>
				
				
				
			</radialGradient><path d="M 660.599976 812.5 A 123.5 23.799999 0 0 1 537.099976 836.299999 A 123.5 23.799999 0 0 1 413.599976 812.5 A 123.5 23.799999 0 0 1 537.099976 788.700001 A 123.5 23.799999 0 0 1 660.599976 812.5 Z" fill="url(#SVGID_21_)" transform="matrix(1, 0, 0, 1, -78.23008728027344, -136.90264892578125)"/><linearGradient id="SVGID_22_" gradientUnits="userSpaceOnUse" x1="484.7167" y1="695.9084" x2="609.1434" y2="695.9084">
					<stop offset="0" style="stop-color:#EDEAE6"/>
					<stop offset="1" style="stop-color:#BCADA7"/>
					
					
					
				</linearGradient><path fill="url(#SVGID_22_)" d="M632.6,734.6c0,54.4-44.1,78.9-98.6,78.9l0,0c-54.4,0-98.6-24.4-98.6-78.9v-118&#10;&#9;&#9;&#9;&#9;&#9;c0-54.4,44.1-34.8,98.6-34.8l0,0c54.4,0,98.6-19.6,98.6,34.8V734.6z" transform="matrix(1, 0, 0, 1, -78.23008728027344, -136.90264892578125)"/><path fill="#D9DCDF" d="M628.2,592.4c0,12.2-42.2,22-94.2,22c-52,0-94.2-9.9-94.2-22c0-12.2,42.2-22,94.2-22&#10;&#9;&#9;&#9;&#9;&#9;C586.1,570.4,628.2,580.2,628.2,592.4z" transform="matrix(1, 0, 0, 1, -78.23008728027344, -136.90264892578125)"/><path fill="#FFFFFF" d="M534,714.6c-31.7,0-60.5-3-81.2-7.9c-6.7-1.5-12.6-3.3-17.4-5.2v2.6c4.8,1.8,10.5,3.5,16.9,5&#10;&#9;&#9;&#9;&#9;&#9;c21,4.9,49.8,7.9,81.7,7.9c31.9,0,60.7-3,81.7-7.9c6.4-1.5,12-3.2,16.9-5v-2.6c-4.8,1.9-10.7,3.7-17.4,5.2&#10;&#9;&#9;&#9;&#9;&#9;C594.5,711.5,565.7,714.6,534,714.6z" transform="matrix(1, 0, 0, 1, -78.23008728027344, -136.90264892578125)"/><path fill="#231F20" d="M534,712.9c-31.7,0-60.5-3-81.2-7.8c-6.7-1.5-12.6-3.3-17.4-5.2v2.6c4.8,1.8,10.5,3.5,16.9,5&#10;&#9;&#9;&#9;&#9;&#9;c21,4.9,49.8,7.9,81.7,7.9c31.9,0,60.7-3,81.7-7.9c6.4-1.5,12-3.2,16.9-5v-2.6c-4.8,1.9-10.7,3.7-17.4,5.2&#10;&#9;&#9;&#9;&#9;&#9;C594.5,709.9,565.7,712.9,534,712.9z" transform="matrix(1, 0, 0, 1, -78.23008728027344, -136.90264892578125)"/><path fill="#EAEBE5" d="M610.8,592.4c0,9.9-34.4,17.9-76.8,17.9c-42.4,0-76.8-8-76.8-17.9c0-9.9,34.4-17.9,76.8-17.9&#10;&#9;&#9;&#9;&#9;&#9;C576.4,574.5,610.8,582.5,610.8,592.4z" transform="matrix(1, 0, 0, 1, -78.23008728027344, -136.90264892578125)"/><path fill="#AA9896" d="M534,578.5c39.4,0,71.9,7,76.2,15.9c0.3-0.7,0.5-1.3,0.5-2c0-9.9-34.4-17.9-76.8-17.9&#10;&#9;&#9;&#9;&#9;&#9;c-42.4,0-76.8,8-76.8,17.9c0,0.7,0.2,1.4,0.5,2C462.1,585.5,494.6,578.5,534,578.5z" transform="matrix(1, 0, 0, 1, -78.23008728027344, -136.90264892578125)"/><path d="M 565.200001 663 A 31.200001 31.200001 0 0 1 534 694.200001 A 31.200001 31.200001 0 0 1 502.799999 663 A 31.200001 31.200001 0 0 1 534 631.799999 A 31.200001 31.200001 0 0 1 565.200001 663 Z" fill="#969595" transform="matrix(1, 0, 0, 1, -78.23008728027344, -136.90264892578125)"/><path fill="#EAEBE5" d="M504.3,665.4c0-17.2,14-31.2,31.2-31.2c11,0,20.7,5.7,26.2,14.3c-5.2-10-15.6-16.8-27.7-16.8&#10;&#9;&#9;&#9;&#9;&#9;c-17.2,0-31.2,14-31.2,31.2c0,6.2,1.8,12,5,16.9C505.5,675.5,504.3,670.6,504.3,665.4z" transform="matrix(1, 0, 0, 1, -78.23008728027344, -136.90264892578125)"/><path d="M 560.5 663 A 26.5 26.5 0 0 1 534 689.5 A 26.5 26.5 0 0 1 507.5 663 A 26.5 26.5 0 0 1 534 636.5 A 26.5 26.5 0 0 1 560.5 663 Z" fill="#231F20" transform="matrix(1, 0, 0, 1, -78.23008728027344, -136.90264892578125)"/><path d="M 536.7 626.299988 A 2.7 2.7 0 0 1 534 628.999988 A 2.7 2.7 0 0 1 531.3 626.299988 A 2.7 2.7 0 0 1 534 623.599988 A 2.7 2.7 0 0 1 536.7 626.299988 Z" fill="#EAEBE5" transform="matrix(1, 0, 0, 1, -78.23008728027344, -136.90264892578125)"/><path fill="#0E0908" d="M553.6,645.1c2.9,4.2,4.5,9.3,4.5,14.8c0,14.6-11.9,26.5-26.5,26.5c-7.7,0-14.7-3.3-19.5-8.6&#10;&#9;&#9;&#9;&#9;&#9;c4.8,7.1,12.8,11.7,22,11.7c14.6,0,26.5-11.9,26.5-26.5C560.5,656.1,557.9,649.8,553.6,645.1z" transform="matrix(1, 0, 0, 1, -78.23008728027344, -136.90264892578125)"/><path d="M 516.799988 652.400024 H 517.299988 V 658.200025 H 516.799988 V 652.400024 Z" fill="#FFFFFF" transform="matrix(1, 0, 0, 1, -78.23008728027344, -136.90264892578125)"/><path d="M 524.900024 652.400024 H 525.400024 V 658.200025 H 524.900024 V 652.400024 Z" fill="#FFFFFF" transform="matrix(1, 0, 0, 1, -78.23008728027344, -136.90264892578125)"/><path d="M 541 652.400024 H 541.5 V 658.200025 H 541 V 652.400024 Z" fill="#FFFFFF" transform="matrix(1, 0, 0, 1, -78.23008728027344, -136.90264892578125)"/><path d="M 549.099976 652.400024 H 549.599976 V 658.200025 H 549.099976 V 652.400024 Z" fill="#FFFFFF" transform="matrix(1, 0, 0, 1, -78.23008728027344, -136.90264892578125)"/><path d="M 532.700012 650 H 533.700012 V 658.3 H 532.700012 V 650 Z" fill="#FFFFFF" transform="matrix(1, 0, 0, 1, -78.23008728027344, -136.90264892578125)"/><path fill="#FFFFFF" d="M529.8,667c0-2.3,1.2-3.6,3.5-3.6s3.5,1.3,3.5,3.6v7.5c0,2.3-1.2,3.6-3.5,3.6s-3.5-1.3-3.5-3.6V667z&#10;&#9;&#9;&#9;&#9;&#9;&#9; M532.1,674.7c0,1,0.5,1.4,1.2,1.4c0.7,0,1.2-0.4,1.2-1.4v-7.8c0-1-0.5-1.4-1.2-1.4c-0.7,0-1.2,0.4-1.2,1.4V674.7z" transform="matrix(1, 0, 0, 1, -78.23008728027344, -136.90264892578125)"/><radialGradient id="SVGID_23_" cx="537.118" cy="438.7335" r="118.5129" gradientTransform="matrix(1 0 0 0.1366 0 376.1122)" gradientUnits="userSpaceOnUse">
				<stop offset="0" style="stop-color:#BCBEC0"/>
				<stop offset="1" style="stop-color:#FFFFFF"/>
				
				
				
			</radialGradient><path d="M 660.599976 436 A 123.5 23.799999 0 0 1 537.099976 459.799999 A 123.5 23.799999 0 0 1 413.599976 436 A 123.5 23.799999 0 0 1 537.099976 412.200001 A 123.5 23.799999 0 0 1 660.599976 436 Z" fill="url(#SVGID_23_)" transform="matrix(1, 0, 0, 1, -78.23008728027344, -136.90264892578125)"/><path d="M 466.600006 423.399994 H 601.400009 V 436.999994 H 466.600006 V 423.399994 Z" fill="#ADA7A3" transform="matrix(1, 0, 0, 1, -78.23008728027344, -136.90264892578125)"/><linearGradient id="SVGID_24_" gradientUnits="userSpaceOnUse" x1="429.4824" y1="316.6275" x2="638.5688" y2="316.6275">
						<stop offset="0" style="stop-color:#F4F1F0"/>
						<stop offset="1" style="stop-color:#CFCFCE"/>
						
						
						
					</linearGradient><path fill="url(#SVGID_24_)" d="M633.9,273.3c-6.5-40.7-31.5-72-99.9-72c-68.4,0-93.4,31.3-99.9,72&#10;&#9;&#9;&#9;&#9;&#9;&#9;c-6.5,40.7-7.3,96.8,5.1,126.6c12.4,29.8,42.9,32,42.9,32h103.8c0,0,30.6-2.2,42.9-32C641.2,370.1,640.5,314.1,633.9,273.3z" transform="matrix(1, 0, 0, 1, -78.23008728027344, -136.90264892578125)"/><path fill="#ADA7A3" d="M633.9,273.3c-5.2-32.6-22.3-59.1-63.9-68.4c37.4,10.4,53.1,35.9,58.1,67c6.5,40.7,7.3,96.8-5.1,126.6&#10;&#9;&#9;&#9;&#9;&#9;&#9;c-12.4,29.8-42.9,32-42.9,32H476.3c0,0-1.4-0.1-3.6-0.5c5.5,1.7,9.4,2,9.4,2h103.8c0,0,30.6-2.2,42.9-32&#10;&#9;&#9;&#9;&#9;&#9;&#9;C641.2,370.1,640.5,314.1,633.9,273.3z" transform="matrix(1, 0, 0, 1, -78.23008728027344, -136.90264892578125)"/><path fill="#C4B9B9" d="M506,421.4c-1.7,0-3.1-1.4-3.1-3.1v-37.6c-1.6,0.1-2.9,1.4-2.9,3.1v38.9c0,1.7,1.4,3.1,3.1,3.1&#10;&#9;&#9;&#9;&#9;&#9;&#9;c1.7,0,3.1-1.4,3.1-3.1v-1.3C506.1,421.4,506.1,421.4,506,421.4z" transform="matrix(1, 0, 0, 1, -78.23008728027344, -136.90264892578125)"/><path fill="#C4B9B9" d="M521.5,421.4c-1.7,0-3.1-1.4-3.1-3.1v-37.6c-1.6,0.1-2.9,1.4-2.9,3.1v38.9c0,1.7,1.4,3.1,3.1,3.1&#10;&#9;&#9;&#9;&#9;&#9;&#9;c1.7,0,3.1-1.4,3.1-3.1v-1.3C521.6,421.4,521.5,421.4,521.5,421.4z" transform="matrix(1, 0, 0, 1, -78.23008728027344, -136.90264892578125)"/><path fill="#C4B9B9" d="M536.9,421.4c-1.7,0-3.1-1.4-3.1-3.1v-37.6c-1.6,0.1-2.9,1.4-2.9,3.1v38.9c0,1.7,1.4,3.1,3.1,3.1&#10;&#9;&#9;&#9;&#9;&#9;&#9;c1.7,0,3.1-1.4,3.1-3.1v-1.3C537.1,421.4,537,421.4,536.9,421.4z" transform="matrix(1, 0, 0, 1, -78.23008728027344, -136.90264892578125)"/><path fill="#C4B9B9" d="M552.4,421.4c-1.7,0-3.1-1.4-3.1-3.1v-37.6c-1.6,0.1-2.9,1.4-2.9,3.1v38.9c0,1.7,1.4,3.1,3.1,3.1&#10;&#9;&#9;&#9;&#9;&#9;&#9;c1.7,0,3.1-1.4,3.1-3.1v-1.3C552.5,421.4,552.5,421.4,552.4,421.4z" transform="matrix(1, 0, 0, 1, -78.23008728027344, -136.90264892578125)"/><path fill="#C4B9B9" d="M567.9,421.4c-1.7,0-3.1-1.4-3.1-3.1v-37.6c-1.6,0.1-2.9,1.4-2.9,3.1v38.9c0,1.7,1.4,3.1,3.1,3.1&#10;&#9;&#9;&#9;&#9;&#9;&#9;c1.7,0,3.1-1.4,3.1-3.1v-1.3C568,421.4,567.9,421.4,567.9,421.4z" transform="matrix(1, 0, 0, 1, -78.23008728027344, -136.90264892578125)"/><path d="M 626 305.600006 A 92 92 0 0 1 534 397.600006 A 92 92 0 0 1 442 305.600006 A 92 92 0 0 1 534 213.600006 A 92 92 0 0 1 626 305.600006 Z" fill="#C4B9B9" transform="matrix(1, 0, 0, 1, -78.23008728027344, -136.90264892578125)"/><linearGradient id="SVGID_25_" gradientUnits="userSpaceOnUse" x1="447.8117" y1="305.5564" x2="620.2391" y2="305.5564">
						<stop offset="0" style="stop-color:#F4F1F0"/>
						<stop offset="1" style="stop-color:#CFCFCE"/>
						
						
						
					</linearGradient><path d="M 620.199997 305.600006 A 86.199997 86.199997 0 0 1 534 391.800003 A 86.199997 86.199997 0 0 1 447.800003 305.600006 A 86.199997 86.199997 0 0 1 534 219.400009 A 86.199997 86.199997 0 0 1 620.199997 305.600006 Z" fill="url(#SVGID_25_)" transform="matrix(1, 0, 0, 1, -78.23008728027344, -136.90264892578125)"/><linearGradient id="SVGID_26_" gradientUnits="userSpaceOnUse" x1="561.7763" y1="346.7147" x2="513.2134" y2="274.6888">
						<stop offset="0" style="stop-color:#F4F1F0"/>
						<stop offset="1" style="stop-color:#CFCFCE"/>
						
						
						
					</linearGradient><path d="M 589.5 305.600006 A 55.5 55.5 0 0 1 534 361.100006 A 55.5 55.5 0 0 1 478.5 305.600006 A 55.5 55.5 0 0 1 534 250.100006 A 55.5 55.5 0 0 1 589.5 305.600006 Z" fill="url(#SVGID_26_)" transform="matrix(1, 0, 0, 1, -78.23008728027344, -136.90264892578125)"/><path fill="#766F6D" d="M536,229.9c0,1-0.8,1.8-1.8,1.8c-1,0-1.8-0.8-1.8-1.8c0-1,0.8-1.8,1.8-1.8&#10;&#9;&#9;&#9;&#9;&#9;&#9;&#9;C535.2,228.1,536,228.9,536,229.9z" transform="matrix(1, 0, 0, 1, -78.23008728027344, -136.90264892578125)"/><path d="M 560.8 234.100006 A 1.8 1.8 0 0 1 559 235.900006 A 1.8 1.8 0 0 1 557.2 234.100006 A 1.8 1.8 0 0 1 559 232.300006 A 1.8 1.8 0 0 1 560.8 234.100006 Z" fill="#766F6D" transform="matrix(1, 0, 0, 1, -78.23008728027344, -136.90264892578125)"/><path d="M 582.899976 246.100006 A 1.8 1.8 0 0 1 581.099976 247.900006 A 1.8 1.8 0 0 1 579.299976 246.100006 A 1.8 1.8 0 0 1 581.099976 244.300006 A 1.8 1.8 0 0 1 582.899976 246.100006 Z" fill="#766F6D" transform="matrix(1, 0, 0, 1, -78.23008728027344, -136.90264892578125)"/><path fill="#766F6D" d="M599,266.1c-0.8,0.6-2,0.3-2.5-0.5c-0.6-0.8-0.3-2,0.5-2.5c0.8-0.6,2-0.3,2.5,0.5&#10;&#9;&#9;&#9;&#9;&#9;&#9;&#9;C600.1,264.4,599.9,265.6,599,266.1z" transform="matrix(1, 0, 0, 1, -78.23008728027344, -136.90264892578125)"/><path d="M 609.899976 287.600006 A 1.8 1.8 0 0 1 608.099976 289.400006 A 1.8 1.8 0 0 1 606.299976 287.600006 A 1.8 1.8 0 0 1 608.099976 285.800006 A 1.8 1.8 0 0 1 609.899976 287.600006 Z" fill="#766F6D" transform="matrix(1, 0, 0, 1, -78.23008728027344, -136.90264892578125)"/><path fill="#766F6D" d="M610,314.4c-1-0.1-1.7-1-1.7-2c0.1-1,1-1.8,2-1.7c1,0.1,1.7,1,1.7,2C611.9,313.8,611,314.5,610,314.4z&#10;&#9;&#9;&#9;&#9;&#9;&#9;&#9;" transform="matrix(1, 0, 0, 1, -78.23008728027344, -136.90264892578125)"/><path fill="#766F6D" d="M603.2,338.6c-0.9-0.4-1.3-1.5-0.9-2.4c0.4-0.9,1.5-1.3,2.4-0.9c0.9,0.4,1.3,1.5,0.9,2.4&#10;&#9;&#9;&#9;&#9;&#9;&#9;&#9;C605.2,338.6,604.2,339,603.2,338.6z" transform="matrix(1, 0, 0, 1, -78.23008728027344, -136.90264892578125)"/><path fill="#766F6D" d="M589,359.3c-0.7-0.7-0.8-1.8-0.1-2.6c0.7-0.7,1.8-0.8,2.6-0.1c0.7,0.7,0.8,1.8,0.1,2.6&#10;&#9;&#9;&#9;&#9;&#9;&#9;&#9;C590.9,360,589.8,360,589,359.3z" transform="matrix(1, 0, 0, 1, -78.23008728027344, -136.90264892578125)"/><path fill="#766F6D" d="M589,359.3c-0.7-0.7-0.8-1.8-0.1-2.6c0.7-0.7,1.8-0.8,2.6-0.1c0.7,0.7,0.8,1.8,0.1,2.6&#10;&#9;&#9;&#9;&#9;&#9;&#9;&#9;C590.9,360,589.8,360,589,359.3z" transform="matrix(1, 0, 0, 1, -78.23008728027344, -136.90264892578125)"/><path fill="#766F6D" d="M568.8,374.3c-0.5-0.9-0.2-2,0.7-2.5c0.9-0.5,2-0.2,2.5,0.7c0.5,0.9,0.2,2-0.7,2.5&#10;&#9;&#9;&#9;&#9;&#9;&#9;&#9;C570.4,375.5,569.3,375.2,568.8,374.3z" transform="matrix(1, 0, 0, 1, -78.23008728027344, -136.90264892578125)"/><path fill="#766F6D" d="M544.9,381.9c-0.2-1,0.5-1.9,1.5-2.1c1-0.2,1.9,0.5,2.1,1.5c0.2,1-0.5,1.9-1.5,2.1&#10;&#9;&#9;&#9;&#9;&#9;&#9;&#9;C546,383.6,545.1,382.9,544.9,381.9z" transform="matrix(1, 0, 0, 1, -78.23008728027344, -136.90264892578125)"/><path fill="#766F6D" d="M519.8,381.4c0.2-1,1.1-1.7,2.1-1.5c1,0.2,1.7,1.1,1.5,2.1c-0.2,1-1.1,1.7-2.1,1.5&#10;&#9;&#9;&#9;&#9;&#9;&#9;&#9;C520.3,383.3,519.6,382.4,519.8,381.4z" transform="matrix(1, 0, 0, 1, -78.23008728027344, -136.90264892578125)"/><path fill="#766F6D" d="M496.2,372.7c0.5-0.9,1.6-1.2,2.5-0.7c0.9,0.5,1.2,1.6,0.8,2.5c-0.5,0.9-1.6,1.2-2.5,0.7&#10;&#9;&#9;&#9;&#9;&#9;&#9;&#9;C496.1,374.7,495.7,373.6,496.2,372.7z" transform="matrix(1, 0, 0, 1, -78.23008728027344, -136.90264892578125)"/><path fill="#766F6D" d="M476.7,356.8c0.7-0.7,1.9-0.6,2.6,0.1c0.7,0.7,0.6,1.9-0.1,2.6c-0.7,0.7-1.9,0.6-2.6-0.1&#10;&#9;&#9;&#9;&#9;&#9;&#9;&#9;C475.9,358.7,476,357.5,476.7,356.8z" transform="matrix(1, 0, 0, 1, -78.23008728027344, -136.90264892578125)"/><path fill="#766F6D" d="M463.4,335.5c0.9-0.4,2,0,2.4,0.9c0.4,0.9,0,2-0.9,2.4c-0.9,0.4-2,0-2.4-0.9&#10;&#9;&#9;&#9;&#9;&#9;&#9;&#9;C462.1,337,462.5,335.9,463.4,335.5z" transform="matrix(1, 0, 0, 1, -78.23008728027344, -136.90264892578125)"/><path fill="#766F6D" d="M457.7,311.1c1-0.1,1.9,0.6,2,1.6c0.1,1-0.6,1.9-1.6,2c-1,0.1-1.9-0.7-2-1.7&#10;&#9;&#9;&#9;&#9;&#9;&#9;&#9;C456,312,456.7,311.1,457.7,311.1z" transform="matrix(1, 0, 0, 1, -78.23008728027344, -136.90264892578125)"/><path fill="#766F6D" d="M460.3,286.1c1,0.2,1.6,1.2,1.3,2.2c-0.2,1-1.2,1.6-2.2,1.3c-1-0.2-1.6-1.2-1.3-2.2&#10;&#9;&#9;&#9;&#9;&#9;&#9;&#9;C458.4,286.4,459.3,285.8,460.3,286.1z" transform="matrix(1, 0, 0, 1, -78.23008728027344, -136.90264892578125)"/><path fill="#766F6D" d="M470.9,263.3c0.8,0.5,1.1,1.7,0.5,2.5c-0.5,0.8-1.7,1.1-2.5,0.6c-0.8-0.5-1.1-1.7-0.5-2.5&#10;&#9;&#9;&#9;&#9;&#9;&#9;&#9;C468.9,263,470,262.7,470.9,263.3z" transform="matrix(1, 0, 0, 1, -78.23008728027344, -136.90264892578125)"/><path fill="#766F6D" d="M488.2,245.1c0.6,0.8,0.5,1.9-0.3,2.5c-0.8,0.6-1.9,0.5-2.6-0.3c-0.6-0.8-0.5-1.9,0.3-2.6&#10;&#9;&#9;&#9;&#9;&#9;&#9;&#9;C486.4,244.2,487.6,244.3,488.2,245.1z" transform="matrix(1, 0, 0, 1, -78.23008728027344, -136.90264892578125)"/><path fill="#766F6D" d="M510.5,233.6c0.3,0.9-0.2,2-1.1,2.3c-0.9,0.3-2-0.2-2.3-1.1c-0.3-0.9,0.2-2,1.1-2.3&#10;&#9;&#9;&#9;&#9;&#9;&#9;&#9;C509.2,232.1,510.2,232.6,510.5,233.6z" transform="matrix(1, 0, 0, 1, -78.23008728027344, -136.90264892578125)"/><path fill="#CFCFCE" d="M520.1,335.6c0,29.6,4.3,37,13.9,37c9.6,0,13.9-7.3,13.9-37c0-29.6-5.7-85.2-13.9-97&#10;&#9;&#9;&#9;&#9;&#9;&#9;&#9;C525.8,250.4,520.1,305.9,520.1,335.6z" transform="matrix(1, 0, 0, 1, -78.23008728027344, -136.90264892578125)"/><path fill="#C1B7B4" d="M533.8,263.2V365c0,0,8.4-2.3,8.4-31.9C542.3,303.5,533.8,263.2,533.8,263.2z" transform="matrix(1, 0, 0, 1, -78.23008728027344, -136.90264892578125)"/><path fill="#DDDEE0" d="M522.5,340.3c0-29.6,5.7-85.2,13.9-97c-0.8-1.9-1.5-3.5-2.3-4.7c-8.2,11.9-13.9,67.4-13.9,97&#10;&#9;&#9;&#9;&#9;&#9;&#9;&#9;c0,18.5,1.7,28.3,5.2,33C523.4,363,522.5,354.1,522.5,340.3z" transform="matrix(1, 0, 0, 1, -78.23008728027344, -136.90264892578125)"/><path d="M 538.7 322.399994 A 4.7 4.7 0 0 1 534 327.099994 A 4.7 4.7 0 0 1 529.3 322.399994 A 4.7 4.7 0 0 1 534 317.699994 A 4.7 4.7 0 0 1 538.7 322.399994 Z" fill="#CFCFCE" transform="matrix(1, 0, 0, 1, -78.23008728027344, -136.90264892578125)"/><path fill="#766F6D" d="M449.7,310.5c0-47.6,38.6-86.2,86.2-86.2c40.5,0,74.4,27.9,83.6,65.6c-7.4-40.1-42.5-70.5-84.7-70.5&#10;&#9;&#9;&#9;&#9;&#9;&#9;c-47.6,0-86.2,38.6-86.2,86.2c0,7.1,1,14,2.6,20.6C450.2,321.1,449.7,315.9,449.7,310.5z" transform="matrix(1, 0, 0, 1, -78.23008728027344, -136.90264892578125)"/><radialGradient id="SVGID_27_" cx="1169.8052" cy="438.7335" r="118.5129" gradientTransform="matrix(1 0 0 0.1366 0 376.1122)" gradientUnits="userSpaceOnUse">
				<stop offset="0" style="stop-color:#BCBEC0"/>
				<stop offset="1" style="stop-color:#FFFFFF"/>
				
				
				
			</radialGradient><path d="M 1293.300049 436 A 123.5 23.799999 0 0 1 1169.800049 459.799999 A 123.5 23.799999 0 0 1 1046.300049 436 A 123.5 23.799999 0 0 1 1169.800049 412.200001 A 123.5 23.799999 0 0 1 1293.300049 436 Z" fill="url(#SVGID_27_)" transform="matrix(1, 0, 0, 1, -78.23008728027344, -136.90264892578125)"/><g transform="matrix(1, 0, 0, 1, -78.23008728027344, -136.90264892578125)">
					<path fill="#BEABA7" d="M1121.3,428.6c0,4.7-3.8,8.5-8.5,8.5l0,0c-4.7,0-8.5-3.8-8.5-8.5v-8.7c0-4.7,3.8-8.5,8.5-8.5l0,0&#10;&#9;&#9;&#9;&#9;&#9;&#9;c4.7,0,8.5,3.8,8.5,8.5V428.6z"/>
					<path fill="#BEABA7" d="M1237.2,428.6c0,4.7-3.8,8.5-8.5,8.5l0,0c-4.7,0-8.5-3.8-8.5-8.5v-8.7c0-4.7,3.8-8.5,8.5-8.5l0,0&#10;&#9;&#9;&#9;&#9;&#9;&#9;c4.7,0,8.5,3.8,8.5,8.5V428.6z"/>
				</g><linearGradient id="SVGID_28_" gradientUnits="userSpaceOnUse" x1="1123.1157" y1="308.4456" x2="1265.8781" y2="308.4456">
					<stop offset="0" style="stop-color:#EDEAE6"/>
					<stop offset="1" style="stop-color:#BCADA7"/>
					
					
					
				</linearGradient><path fill="url(#SVGID_28_)" d="M1283,205.7c0,0,11-24.6,1.3-22.6c-9.7,1.9-11.6,17.5-41.4,24.6c-18,4.3-26.2,5-30,5&#10;&#9;&#9;&#9;&#9;&#9;c-11.6-5.2-26.1-8.2-44.3-8.2c-8.2,0-15.6,0.7-22.3,1.8c-7.2-4.3-19.3-9.7-37.2-11.5c-31.7-3.2-46.6,16.2-41.4,55&#10;&#9;&#9;&#9;&#9;&#9;c3.9,29.3,9.7,52.4,12.2,61.9c-0.2,16,0.4,31.9,0.4,46.5c0,63.4,39.5,76,88.3,76c48.8,0,88.3-12.6,88.3-76&#10;&#9;&#9;&#9;&#9;&#9;c0-20.9,1.3-44.7-0.4-67.2c18.6-17.3,36.7-49.2,35.6-56c-1.3-8.4-7.1-7.1-7.1-7.1s6.5-9.7,7.8-18.1&#10;&#9;&#9;&#9;&#9;&#9;C1294,201.1,1283,205.7,1283,205.7z" transform="matrix(1, 0, 0, 1, -78.23008728027344, -136.90264892578125)"/><path fill="#A19390" d="M1288,185.2c-1,6.7-5,15.6-5,15.6s0.9-0.4,2.2-0.7C1287,195.3,1288.9,188.7,1288,185.2z M1256.4,286&#10;&#9;&#9;&#9;&#9;&#9;c0.1,1.5,0.2,3,0.3,4.6c18.5-17.4,36.4-49,35.3-55.8c-0.1-0.6-0.2-1.2-0.4-1.7C1289,243.6,1273,270.5,1256.4,286z M1168.6,429.1&#10;&#9;&#9;&#9;&#9;&#9;c-48.8,0-88.3-12.6-88.3-76c0-10.8-0.4-22.3-0.5-34.1c0,13.4,0.5,26.7,0.5,39c0,63.4,39.5,76,88.3,76c48.8,0,88.3-12.6,88.3-76&#10;&#9;&#9;&#9;&#9;&#9;c0-13.4,0.5-28,0.5-42.7c0,13.1-0.5,26-0.5,37.9C1256.9,416.5,1217.3,429.1,1168.6,429.1z M1292.4,206.3&#10;&#9;&#9;&#9;&#9;&#9;c-1.8,8-7.5,16.5-7.5,16.5s1.2-0.3,2.7,0.3c1.9-3.6,4.3-8.8,5.1-13.5C1292.9,208.1,1292.7,207.1,1292.4,206.3z" transform="matrix(1, 0, 0, 1, -78.23008728027344, -136.90264892578125)"/><path fill="#8A7F79" d="M1085.6,348.8c0,0.4,0,0.8,0,1.2h165.9c0-0.4,0-0.8,0-1.2c0-0.4,0-0.8,0-1.2h-165.9&#10;&#9;&#9;&#9;&#9;&#9;&#9;C1085.6,347.9,1085.6,348.3,1085.6,348.8z" transform="matrix(1, 0, 0, 1, -78.23008728027344, -136.90264892578125)"/><g transform="matrix(1, 0, 0, 1, -78.23008728027344, -136.90264892578125)">
							<g>
								<path fill="#8A7F79" d="M1093,342.6v-9c0-0.7,0.5-1.2,1.2-1.2l0,0c0.7,0,1.2,0.6,1.2,1.2l0,0v9c0,0.7-0.6,1.2-1.2,1.2l0,0&#10;&#9;&#9;&#9;&#9;&#9;&#9;&#9;&#9;&#9;C1093.5,343.8,1093,343.3,1093,342.6L1093,342.6z"/>
							</g>
						</g><g transform="matrix(1, 0, 0, 1, -78.23008728027344, -136.90264892578125)">
								<path fill="#8A7F79" d="M1130.2,342.6v-9c0-0.7,0.6-1.2,1.2-1.2l0,0c0.7,0,1.2,0.5,1.2,1.2l0,0v9c0,0.7-0.6,1.2-1.2,1.2l0,0&#10;&#9;&#9;&#9;&#9;&#9;&#9;&#9;&#9;&#9;C1130.7,343.8,1130.2,343.3,1130.2,342.6L1130.2,342.6z"/>
							</g><g transform="matrix(1, 0, 0, 1, -78.23008728027344, -136.90264892578125)">
								<path fill="#8A7F79" d="M1167.3,342.6v-9c0-0.7,0.6-1.2,1.2-1.2l0,0c0.7,0,1.2,0.6,1.2,1.2l0,0v9c0,0.7-0.5,1.2-1.2,1.2l0,0&#10;&#9;&#9;&#9;&#9;&#9;&#9;&#9;&#9;&#9;C1167.9,343.8,1167.3,343.3,1167.3,342.6L1167.3,342.6z"/>
							</g><g transform="matrix(1, 0, 0, 1, -78.23008728027344, -136.90264892578125)">
								<path fill="#8A7F79" d="M1204.5,342.6v-9c0-0.7,0.5-1.2,1.2-1.2l0,0c0.7,0,1.2,0.6,1.2,1.2l0,0v9c0,0.7-0.6,1.2-1.2,1.2l0,0&#10;&#9;&#9;&#9;&#9;&#9;&#9;&#9;&#9;&#9;C1205.1,343.8,1204.5,343.3,1204.5,342.6L1204.5,342.6z"/>
							</g><g transform="matrix(1, 0, 0, 1, -78.23008728027344, -136.90264892578125)">
								<path fill="#8A7F79" d="M1241.7,342.6v-9c0-0.7,0.5-1.2,1.2-1.2l0,0c0.7,0,1.2,0.6,1.2,1.2l0,0v9c0,0.7-0.6,1.2-1.2,1.2l0,0&#10;&#9;&#9;&#9;&#9;&#9;&#9;&#9;&#9;&#9;C1242.3,343.8,1241.7,343.3,1241.7,342.6L1241.7,342.6z"/>
							</g><path d="M 1173.5999755859375 358.6000061035156 L 1168.5999755859375 353.6000061035156 L 1163.5999755859375 358.6000061035156 Z" fill="#EB2227" transform="matrix(1, 0, 0, 1, -78.23008728027344, -136.90264892578125)"/><g transform="matrix(1, 0, 0, 1, -78.23008728027344, -136.90264892578125)">
							<path fill="#8A7F79" d="M1172.9,342.2v-5.5c0-0.3,0.3-0.6,0.6-0.6l0,0c0.3,0,0.6,0.3,0.6,0.6l0,0v5.5c0,0.3-0.3,0.6-0.6,0.6&#10;&#9;&#9;&#9;&#9;&#9;&#9;&#9;&#9;l0,0C1173.2,342.8,1172.9,342.5,1172.9,342.2L1172.9,342.2z"/>
						</g><path fill="#8A7F79" d="M1179.7,342.2v-5.5c0-0.3,0.3-0.6,0.6-0.6l0,0c0.3,0,0.6,0.3,0.6,0.6l0,0v5.5c0,0.3-0.3,0.6-0.6,0.6&#10;&#9;&#9;&#9;&#9;&#9;&#9;&#9;&#9;l0,0C1180,342.8,1179.7,342.5,1179.7,342.2L1179.7,342.2z" transform="matrix(1, 0, 0, 1, -78.23008728027344, -136.90264892578125)"/><path fill="#8A7F79" d="M1186.5,342.2v-5.5c0-0.3,0.3-0.6,0.6-0.6l0,0c0.3,0,0.6,0.3,0.6,0.6l0,0v5.5c0,0.3-0.3,0.6-0.6,0.6&#10;&#9;&#9;&#9;&#9;&#9;&#9;&#9;&#9;l0,0C1186.8,342.8,1186.5,342.5,1186.5,342.2L1186.5,342.2z" transform="matrix(1, 0, 0, 1, -78.23008728027344, -136.90264892578125)"/><path fill="#8A7F79" d="M1193.4,342.2v-5.5c0-0.3,0.3-0.6,0.6-0.6l0,0c0.3,0,0.6,0.3,0.6,0.6l0,0v5.5c0,0.3-0.3,0.6-0.6,0.6&#10;&#9;&#9;&#9;&#9;&#9;&#9;&#9;&#9;l0,0C1193.6,342.8,1193.4,342.5,1193.4,342.2L1193.4,342.2z" transform="matrix(1, 0, 0, 1, -78.23008728027344, -136.90264892578125)"/><path fill="#8A7F79" d="M1200.2,342.2v-5.5c0-0.3,0.3-0.6,0.6-0.6l0,0c0.3,0,0.6,0.3,0.6,0.6l0,0v5.5c0,0.3-0.3,0.6-0.6,0.6&#10;&#9;&#9;&#9;&#9;&#9;&#9;&#9;&#9;l0,0C1200.5,342.8,1200.2,342.5,1200.2,342.2L1200.2,342.2z" transform="matrix(1, 0, 0, 1, -78.23008728027344, -136.90264892578125)"/><g transform="matrix(1, 0, 0, 1, -78.23008728027344, -136.90264892578125)">
							<path fill="#8A7F79" d="M1210.7,342.2v-5.5c0-0.3,0.3-0.6,0.6-0.6l0,0c0.3,0,0.6,0.3,0.6,0.6l0,0v5.5c0,0.3-0.3,0.6-0.6,0.6&#10;&#9;&#9;&#9;&#9;&#9;&#9;&#9;&#9;l0,0C1210.9,342.8,1210.7,342.5,1210.7,342.2L1210.7,342.2z"/>
						</g><path fill="#8A7F79" d="M1217.5,342.2v-5.5c0-0.3,0.3-0.6,0.6-0.6l0,0c0.3,0,0.6,0.3,0.6,0.6l0,0v5.5c0,0.3-0.3,0.6-0.6,0.6&#10;&#9;&#9;&#9;&#9;&#9;&#9;&#9;&#9;l0,0C1217.8,342.8,1217.5,342.5,1217.5,342.2L1217.5,342.2z" transform="matrix(1, 0, 0, 1, -78.23008728027344, -136.90264892578125)"/><path fill="#8A7F79" d="M1224.3,342.2v-5.5c0-0.3,0.3-0.6,0.6-0.6l0,0c0.3,0,0.6,0.3,0.6,0.6l0,0v5.5c0,0.3-0.3,0.6-0.6,0.6&#10;&#9;&#9;&#9;&#9;&#9;&#9;&#9;&#9;l0,0C1224.6,342.8,1224.3,342.5,1224.3,342.2L1224.3,342.2z" transform="matrix(1, 0, 0, 1, -78.23008728027344, -136.90264892578125)"/><path fill="#8A7F79" d="M1231.2,342.2v-5.5c0-0.3,0.3-0.6,0.6-0.6l0,0c0.3,0,0.6,0.3,0.6,0.6l0,0v5.5c0,0.3-0.3,0.6-0.6,0.6&#10;&#9;&#9;&#9;&#9;&#9;&#9;&#9;&#9;l0,0C1231.4,342.8,1231.2,342.5,1231.2,342.2L1231.2,342.2z" transform="matrix(1, 0, 0, 1, -78.23008728027344, -136.90264892578125)"/><path fill="#8A7F79" d="M1238,342.2v-5.6c0-0.3,0.3-0.6,0.6-0.6l0,0c0.3,0,0.6,0.3,0.6,0.6l0,0v5.6c0,0.3-0.3,0.6-0.6,0.6&#10;&#9;&#9;&#9;&#9;&#9;&#9;&#9;&#9;l0,0C1238.3,342.8,1238,342.5,1238,342.2L1238,342.2z" transform="matrix(1, 0, 0, 1, -78.23008728027344, -136.90264892578125)"/><path fill="#6D655F" d="M1172.3,323.8c0,3.1-1.2,4.8-3.2,4.8c-1.8,0-3-1.7-3-4.7c0-3.1,1.3-4.8,3.2-4.8&#10;&#9;&#9;&#9;&#9;&#9;&#9;&#9;C1171.2,319.1,1172.3,320.9,1172.3,323.8z M1167.3,323.9c0,2.4,0.7,3.7,1.9,3.7c1.3,0,1.9-1.5,1.9-3.8c0-2.3-0.6-3.7-1.9-3.7&#10;&#9;&#9;&#9;&#9;&#9;&#9;&#9;C1168.1,320.1,1167.3,321.4,1167.3,323.9z" transform="matrix(1, 0, 0, 1, -78.23008728027344, -136.90264892578125)"/><path fill="#EB2227" d="M1069.6,254.5c0,0-5.8,12.6-1.9,17.5c3.9,4.8,5.2-1,5.2-1s0,8.1,3.9,5.2c3.9-2.9,2.9-11.6,2.9-11.6&#10;&#9;&#9;&#9;&#9;&#9;s-2.9,1.6-6.1-4.5C1070.2,253.9,1071.8,251.9,1069.6,254.5z" transform="matrix(1, 0, 0, 1, -78.23008728027344, -136.90264892578125)"/><path fill="#EB2227" d="M1084.7,201.5c0,0,6.6-20.1,13.1-19.7c6.5,0.4,1.1,5.4,1.1,5.4s5-2.1,7.2,1c2.2,3-3.5,7.8-3.5,7.8&#10;&#9;&#9;&#9;&#9;&#9;S1095.7,194,1084.7,201.5z" transform="matrix(1, 0, 0, 1, -78.23008728027344, -136.90264892578125)"/><path fill="#FABD1D" d="M1075.9,249.1c0,0-4.4-6.8-8.5-4.4c-4.1,2.4-6.1,8.7-4.9,10.4C1063.8,256.8,1076.4,257.6,1075.9,249.1z" transform="matrix(1, 0, 0, 1, -78.23008728027344, -136.90264892578125)"/><path fill="#ECA426" d="M1062.6,255.1C1062.6,255.1,1062.6,255.1,1062.6,255.1c1.2,1.7,12.7,2.4,13.3-4.9&#10;&#9;&#9;&#9;&#9;&#9;C1071.8,252.7,1065.9,254.3,1062.6,255.1z" transform="matrix(1, 0, 0, 1, -78.23008728027344, -136.90264892578125)"/><path d="M 1082.500049 231.100006 A 1.7 3.2 0 0 1 1080.800049 234.300006 A 1.7 3.2 0 0 1 1079.100049 231.100006 A 1.7 3.2 0 0 1 1080.800049 227.900006 A 1.7 3.2 0 0 1 1082.500049 231.100006 Z" fill="#231F20" transform="matrix(1, 0, 0, 1, -78.23008728027344, -136.90264892578125)"/><path d="M 1068.899951 229.199997 A 1.7 3.2 0 0 1 1067.199951 232.399997 A 1.7 3.2 0 0 1 1065.499951 229.199997 A 1.7 3.2 0 0 1 1067.199951 225.999997 A 1.7 3.2 0 0 1 1068.899951 229.199997 Z" fill="#231F20" transform="matrix(1, 0, 0, 1, -78.23008728027344, -136.90264892578125)"/><path fill="#FFFFFF" d="M1121.8,204.7c0,0,24.7,13.1,20.4,32c-4.4,18.9-1.5-3.4,35.4-4.8c47.5-1.9,62.1-12.6,66.5-16&#10;&#9;&#9;&#9;&#9;&#9;c4.4-3.4-5.3,4.4-36.9,9.2c-31.5,4.8-39.3,3.9-50,1.9C1146.5,225.1,1152.8,212,1121.8,204.7z" transform="matrix(1, 0, 0, 1, -78.23008728027344, -136.90264892578125)"/><radialGradient id="SVGID_29_" cx="860.5472" cy="438.7335" r="118.5129" gradientTransform="matrix(1 0 0 0.1366 0 376.1122)" gradientUnits="userSpaceOnUse">
				<stop offset="0" style="stop-color:#BCBEC0"/>
				<stop offset="1" style="stop-color:#FFFFFF"/>
				
				
				
			</radialGradient><path d="M 984 436 A 123.5 23.799999 0 0 1 860.5 459.799999 A 123.5 23.799999 0 0 1 737 436 A 123.5 23.799999 0 0 1 860.5 412.200001 A 123.5 23.799999 0 0 1 984 436 Z" fill="url(#SVGID_29_)" transform="matrix(1, 0, 0, 1, -78.23008728027344, -136.90264892578125)"/><g transform="matrix(1, 0, 0, 1, -78.23008728027344, -136.90264892578125)">
					<linearGradient id="SVGID_30_" gradientUnits="userSpaceOnUse" x1="799.8177" y1="408.3765" x2="799.8177" y2="437.0384">
						<stop offset="0" style="stop-color:#6B605B"/>
						<stop offset="1" style="stop-color:#BCADA7"/>
						
						
						
					</linearGradient>
					<path fill="url(#SVGID_30_)" d="M812.8,424.1c0,7.2-5.8,13-13,13l0,0c-7.2,0-13-5.8-13-13v-3.4c0-7.2,5.8-13,13-13l0,0&#10;&#9;&#9;&#9;&#9;&#9;&#9;c7.2,0,13,5.8,13,13V424.1z"/>
					<linearGradient id="SVGID_31_" gradientUnits="userSpaceOnUse" x1="919.2386" y1="408.3765" x2="919.2386" y2="437.0384">
						<stop offset="0" style="stop-color:#6B605B"/>
						<stop offset="1" style="stop-color:#BCADA7"/>
						
						
						
					</linearGradient>
					<path fill="url(#SVGID_31_)" d="M932.2,424.1c0,7.2-5.8,13-13,13l0,0c-7.2,0-13-5.8-13-13v-3.4c0-7.2,5.8-13,13-13l0,0&#10;&#9;&#9;&#9;&#9;&#9;&#9;c7.2,0,13,5.8,13,13V424.1z"/>
				</g><linearGradient id="SVGID_32_" gradientUnits="userSpaceOnUse" x1="787.5342" y1="374.939" x2="787.5342" y2="452.0529">
						<stop offset="0" style="stop-color:#6B605B"/>
						<stop offset="1" style="stop-color:#BCADA7"/>
						
						
						
					</linearGradient><path fill="url(#SVGID_32_)" d="M800.5,424.1c0,7.2-5.8,13-13,13l0,0c-7.2,0-13-5.8-13-13v-56.6c0-7.2,5.8-13,13-13l0,0&#10;&#9;&#9;&#9;&#9;&#9;&#9;c7.2,0,13,5.8,13,13V424.1z" transform="matrix(1, 0, 0, 1, -78.23008728027344, -136.90264892578125)"/><linearGradient id="SVGID_33_" gradientUnits="userSpaceOnUse" x1="931.5222" y1="374.939" x2="931.5222" y2="452.0529">
						<stop offset="0" style="stop-color:#6B605B"/>
						<stop offset="1" style="stop-color:#BCADA7"/>
						
						
						
					</linearGradient><path fill="url(#SVGID_33_)" d="M944.5,424.1c0,7.2-5.8,13-13,13l0,0c-7.2,0-13-5.8-13-13v-56.6c0-7.2,5.8-13,13-13l0,0&#10;&#9;&#9;&#9;&#9;&#9;&#9;c7.2,0,13,5.8,13,13V424.1z" transform="matrix(1, 0, 0, 1, -78.23008728027344, -136.90264892578125)"/><linearGradient id="SVGID_34_" gradientUnits="userSpaceOnUse" x1="810.6237" y1="311.1329" x2="934.0278" y2="311.1329">
					<stop offset="0" style="stop-color:#EDEAE6"/>
					<stop offset="1" style="stop-color:#BCADA7"/>
					
					
					
				</linearGradient><path fill="url(#SVGID_34_)" d="M957.3,352.1c0,69-43.8,83.9-97.8,83.9c-54,0-97.8-15-97.8-83.9c0-69,32.1-165.8,97.8-165.8&#10;&#9;&#9;&#9;&#9;&#9;S957.3,283.1,957.3,352.1z" transform="matrix(1, 0, 0, 1, -78.23008728027344, -136.90264892578125)"/><path fill="#8A7F79" d="M772,359.1c0,0.4,0,0.9,0,1.3h175.1c0-0.4,0-0.9,0-1.3c0-0.4,0-0.9,0-1.3H772&#10;&#9;&#9;&#9;&#9;&#9;&#9;C772,358.2,772,358.6,772,359.1z" transform="matrix(1, 0, 0, 1, -78.23008728027344, -136.90264892578125)"/><g transform="matrix(1, 0, 0, 1, -78.23008728027344, -136.90264892578125)">
							<g>
								<path fill="#8A7F79" d="M780,352.6V343c0-0.6,0.5-1,1-1l0,0c0.6,0,1,0.5,1,1l0,0v9.5c0,0.6-0.5,1-1,1l0,0&#10;&#9;&#9;&#9;&#9;&#9;&#9;&#9;&#9;&#9;C780.5,353.6,780,353.1,780,352.6L780,352.6z"/>
							</g>
						</g><g transform="matrix(1, 0, 0, 1, -78.23008728027344, -136.90264892578125)">
								<path fill="#8A7F79" d="M819.3,352.6V343c0-0.6,0.5-1,1-1l0,0c0.6,0,1,0.5,1,1l0,0v9.5c0,0.6-0.5,1-1,1l0,0&#10;&#9;&#9;&#9;&#9;&#9;&#9;&#9;&#9;&#9;C819.7,353.6,819.3,353.1,819.3,352.6L819.3,352.6z"/>
							</g><g transform="matrix(1, 0, 0, 1, -78.23008728027344, -136.90264892578125)">
								<path fill="#8A7F79" d="M858.5,352.6V343c0-0.6,0.5-1,1-1l0,0c0.6,0,1,0.5,1,1l0,0v9.5c0,0.6-0.5,1-1,1l0,0&#10;&#9;&#9;&#9;&#9;&#9;&#9;&#9;&#9;&#9;C859,353.6,858.5,353.1,858.5,352.6L858.5,352.6z"/>
							</g><g transform="matrix(1, 0, 0, 1, -78.23008728027344, -136.90264892578125)">
								<path fill="#8A7F79" d="M897.7,352.6V343c0-0.6,0.5-1,1-1l0,0c0.6,0,1,0.5,1,1l0,0v9.5c0,0.6-0.5,1-1,1l0,0&#10;&#9;&#9;&#9;&#9;&#9;&#9;&#9;&#9;&#9;C898.2,353.6,897.7,353.1,897.7,352.6L897.7,352.6z"/>
							</g><g transform="matrix(1, 0, 0, 1, -78.23008728027344, -136.90264892578125)">
								<path fill="#8A7F79" d="M937,352.6V343c0-0.6,0.5-1,1-1l0,0c0.6,0,1,0.5,1,1l0,0v9.5c0,0.6-0.5,1-1,1l0,0&#10;&#9;&#9;&#9;&#9;&#9;&#9;&#9;&#9;&#9;C937.4,353.6,937,353.1,937,352.6L937,352.6z"/>
							</g><path d="M 864.7999877929688 369.5 L 859.5 364.20001220703125 L 854.2999877929688 369.5 Z" fill="#EB2227" transform="matrix(1, 0, 0, 1, -78.23008728027344, -136.90264892578125)"/><g transform="matrix(1, 0, 0, 1, -78.23008728027344, -136.90264892578125)">
							<path fill="#8A7F79" d="M864.2,352.1v-5.8c0-0.3,0.2-0.5,0.5-0.5l0,0c0.3,0,0.5,0.2,0.5,0.5l0,0v5.8c0,0.3-0.2,0.5-0.5,0.5&#10;&#9;&#9;&#9;&#9;&#9;&#9;&#9;&#9;l0,0C864.4,352.6,864.2,352.4,864.2,352.1L864.2,352.1z"/>
						</g><path fill="#8A7F79" d="M871.4,352.1v-5.9c0-0.3,0.2-0.5,0.5-0.5l0,0c0.3,0,0.5,0.2,0.5,0.5l0,0v5.9c0,0.3-0.2,0.5-0.5,0.5&#10;&#9;&#9;&#9;&#9;&#9;&#9;&#9;&#9;l0,0C871.6,352.7,871.4,352.4,871.4,352.1L871.4,352.1z" transform="matrix(1, 0, 0, 1, -78.23008728027344, -136.90264892578125)"/><path fill="#8A7F79" d="M878.6,352.1v-5.9c0-0.3,0.2-0.5,0.5-0.5l0,0c0.3,0,0.5,0.2,0.5,0.5l0,0v5.9c0,0.3-0.2,0.5-0.5,0.5&#10;&#9;&#9;&#9;&#9;&#9;&#9;&#9;&#9;l0,0C878.8,352.6,878.6,352.4,878.6,352.1L878.6,352.1z" transform="matrix(1, 0, 0, 1, -78.23008728027344, -136.90264892578125)"/><path fill="#8A7F79" d="M885.8,352.1v-5.9c0-0.3,0.2-0.5,0.5-0.5l0,0c0.3,0,0.5,0.2,0.5,0.5l0,0v5.9c0,0.3-0.2,0.5-0.5,0.5&#10;&#9;&#9;&#9;&#9;&#9;&#9;&#9;&#9;l0,0C886,352.6,885.8,352.4,885.8,352.1L885.8,352.1z" transform="matrix(1, 0, 0, 1, -78.23008728027344, -136.90264892578125)"/><path fill="#8A7F79" d="M893,352.1v-5.9c0-0.3,0.2-0.5,0.5-0.5l0,0c0.3,0,0.5,0.2,0.5,0.5l0,0v5.9c0,0.3-0.2,0.5-0.5,0.5l0,0&#10;&#9;&#9;&#9;&#9;&#9;&#9;&#9;&#9;C893.2,352.7,893,352.4,893,352.1L893,352.1z" transform="matrix(1, 0, 0, 1, -78.23008728027344, -136.90264892578125)"/><g transform="matrix(1, 0, 0, 1, -78.23008728027344, -136.90264892578125)">
							<path fill="#8A7F79" d="M904.1,352.1v-5.8c0-0.3,0.2-0.5,0.5-0.5l0,0c0.3,0,0.5,0.2,0.5,0.5l0,0v5.8c0,0.3-0.2,0.5-0.5,0.5&#10;&#9;&#9;&#9;&#9;&#9;&#9;&#9;&#9;l0,0C904.3,352.7,904.1,352.4,904.1,352.1L904.1,352.1z"/>
						</g><path fill="#8A7F79" d="M911.3,352.1v-5.9c0-0.3,0.2-0.5,0.5-0.5l0,0c0.3,0,0.5,0.2,0.5,0.5l0,0v5.9c0,0.3-0.2,0.5-0.5,0.5&#10;&#9;&#9;&#9;&#9;&#9;&#9;&#9;&#9;l0,0C911.5,352.7,911.3,352.4,911.3,352.1L911.3,352.1z" transform="matrix(1, 0, 0, 1, -78.23008728027344, -136.90264892578125)"/><path fill="#8A7F79" d="M918.5,352.1v-5.9c0-0.3,0.2-0.5,0.5-0.5l0,0c0.3,0,0.5,0.2,0.5,0.5l0,0v5.9c0,0.3-0.2,0.5-0.5,0.5&#10;&#9;&#9;&#9;&#9;&#9;&#9;&#9;&#9;l0,0C918.7,352.7,918.5,352.4,918.5,352.1L918.5,352.1z" transform="matrix(1, 0, 0, 1, -78.23008728027344, -136.90264892578125)"/><path fill="#8A7F79" d="M925.7,352.1v-5.9c0-0.3,0.2-0.5,0.5-0.5l0,0c0.3,0,0.5,0.2,0.5,0.5l0,0v5.9c0,0.3-0.2,0.5-0.5,0.5&#10;&#9;&#9;&#9;&#9;&#9;&#9;&#9;&#9;l0,0C925.9,352.6,925.7,352.4,925.7,352.1L925.7,352.1z" transform="matrix(1, 0, 0, 1, -78.23008728027344, -136.90264892578125)"/><path fill="#8A7F79" d="M932.9,352.1v-5.9c0-0.3,0.2-0.5,0.5-0.5l0,0c0.3,0,0.5,0.2,0.5,0.5l0,0v5.9c0,0.3-0.2,0.5-0.5,0.5&#10;&#9;&#9;&#9;&#9;&#9;&#9;&#9;&#9;l0,0C933.1,352.6,932.9,352.4,932.9,352.1L932.9,352.1z" transform="matrix(1, 0, 0, 1, -78.23008728027344, -136.90264892578125)"/><path fill="#6D655F" d="M863.4,332.7c0,3.3-1.2,5.1-3.4,5.1c-1.9,0-3.2-1.8-3.2-5c0-3.3,1.4-5,3.4-5&#10;&#9;&#9;&#9;&#9;&#9;&#9;&#9;C862.2,327.8,863.4,329.6,863.4,332.7z M858.1,332.9c0,2.5,0.8,4,2,4c1.3,0,2-1.6,2-4c0-2.4-0.6-4-2-4&#10;&#9;&#9;&#9;&#9;&#9;&#9;&#9;C859,328.8,858.1,330.2,858.1,332.9z" transform="matrix(1, 0, 0, 1, -78.23008728027344, -136.90264892578125)"/><linearGradient id="SVGID_35_" gradientUnits="userSpaceOnUse" x1="859.529" y1="209.1131" x2="859.529" y2="253.1281">
					<stop offset="0" style="stop-color:#EDEAE6"/>
					<stop offset="1" style="stop-color:#BCADA7"/>
					
					
					
				</linearGradient><path fill="url(#SVGID_35_)" d="M907,206.7c0-0.1,0-0.2,0-0.3c-13.2-12.5-29-20.1-47.4-20.1c-18.4,0-34.2,7.6-47.4,20.1&#10;&#9;&#9;&#9;&#9;&#9;c0,0.1,0,0.2,0,0.3c0,20.5,21.2,37.2,47.4,37.2C885.7,243.9,907,227.3,907,206.7z" transform="matrix(1, 0, 0, 1, -78.23008728027344, -136.90264892578125)"/><linearGradient id="SVGID_36_" gradientUnits="userSpaceOnUse" x1="859.5273" y1="222.7596" x2="859.5273" y2="160.6614">
					<stop offset="0" style="stop-color:#EDEAE6"/>
					<stop offset="1" style="stop-color:#BCADA7"/>
					
					
					
				</linearGradient><path d="M 886.9 210.699997 A 27.4 20.200001 0 0 1 859.5 230.899998 A 27.4 20.200001 0 0 1 832.1 210.699997 A 27.4 20.200001 0 0 1 859.5 190.499996 A 27.4 20.200001 0 0 1 886.9 210.699997 Z" fill="url(#SVGID_36_)" transform="matrix(1, 0, 0, 1, -78.23008728027344, -136.90264892578125)"/><linearGradient id="SVGID_37_" gradientUnits="userSpaceOnUse" x1="859.5273" y1="231.9744" x2="859.5273" y2="196.6593">
					<stop offset="0" style="stop-color:#FFD86A"/>
					<stop offset="1" style="stop-color:#E2A434"/>
					
					
					
				</linearGradient><path d="M 886.9 213.800003 A 27.4 20.200001 0 0 1 859.5 234.000004 A 27.4 20.200001 0 0 1 832.1 213.800003 A 27.4 20.200001 0 0 1 859.5 193.600002 A 27.4 20.200001 0 0 1 886.9 213.800003 Z" fill="url(#SVGID_37_)" transform="matrix(1, 0, 0, 1, -78.23008728027344, -136.90264892578125)"/><path fill="#E2A434" d="M859.5,230.6c-14.3,0-26.1-8.1-27.3-18.5c-0.1,0.6-0.1,1.1-0.1,1.7c0,11.2,12.3,20.2,27.4,20.2&#10;&#9;&#9;&#9;&#9;&#9;s27.4-9.1,27.4-20.2c0-0.6-0.1-1.1-0.1-1.7C885.6,222.5,873.9,230.6,859.5,230.6z" transform="matrix(1, 0, 0, 1, -78.23008728027344, -136.90264892578125)"/><radialGradient id="SVGID_38_" cx="860.5472" cy="758.5607" r="118.5129" gradientTransform="matrix(1 0 0 0.1366 0 708.8834)" gradientUnits="userSpaceOnUse">
				<stop offset="0" style="stop-color:#BCBEC0"/>
				<stop offset="1" style="stop-color:#FFFFFF"/>
				
				
				
			</radialGradient><path d="M 984 812.5 A 123.5 23.799999 0 0 1 860.5 836.299999 A 123.5 23.799999 0 0 1 737 812.5 A 123.5 23.799999 0 0 1 860.5 788.700001 A 123.5 23.799999 0 0 1 984 812.5 Z" fill="url(#SVGID_38_)" transform="matrix(1, 0, 0, 1, -78.23008728027344, -136.90264892578125)"/><linearGradient id="SVGID_39_" gradientUnits="userSpaceOnUse" x1="805.2967" y1="685.2564" x2="938.3843" y2="685.2564">
					<stop offset="0" style="stop-color:#EDEAE6"/>
					<stop offset="1" style="stop-color:#BCADA7"/>
					
					
					
				</linearGradient><path fill="url(#SVGID_39_)" d="M963.5,718.6c0,70.8-47.2,94.9-105.4,94.9s-105.4-24.1-105.4-94.9&#10;&#9;&#9;&#9;&#9;&#9;c0-70.8,47.2-161.5,105.4-161.5S963.5,647.8,963.5,718.6z" transform="matrix(1, 0, 0, 1, -78.23008728027344, -136.90264892578125)"/><linearGradient id="SVGID_40_" gradientUnits="userSpaceOnUse" x1="743.0281" y1="599.7" x2="743.0281" y2="658.5971">
						<stop offset="0" style="stop-color:#EDEAE6"/>
						<stop offset="1" style="stop-color:#BCADA7"/>
						
						
						
					</linearGradient><path fill="url(#SVGID_40_)" d="M803.2,625.8c0,0-13.1-22.9-56.2-22.9c-43.1,0-47.5-2.2-58.9-4.4c-11.5-2.2-8.2,21.8,18.6,26.7&#10;&#9;&#9;&#9;&#9;&#9;&#9;c0,0,3.3,20.7,19.6,23.5c0,0-1.1,16.4,20.2,17.5C767.7,667.2,811.9,666.1,803.2,625.8z" transform="matrix(1, 0, 0, 1, -78.23008728027344, -136.90264892578125)"/><linearGradient id="SVGID_41_" gradientUnits="userSpaceOnUse" x1="744.8813" y1="664.5101" x2="744.8813" y2="609.5785">
						<stop offset="0" style="stop-color:#EDEAE6"/>
						<stop offset="1" style="stop-color:#BCADA7"/>
						
						
						
					</linearGradient><path fill="url(#SVGID_41_)" d="M778.8,627.4c0,0-21.5-2.9-53.5-4c-19.5-0.7-32.2-5.5-39.2-9.2c3.9,4.8,10.6,9.2,20.5,11&#10;&#9;&#9;&#9;&#9;&#9;&#9;c0,0,0.1,0.3,0.2,1C726.8,623.8,778.8,627.4,778.8,627.4z M783.5,643c0,0-8,0-39.3,1.1c-12.3,0.4-22.9-1.1-30.9-3.4&#10;&#9;&#9;&#9;&#9;&#9;&#9;c2.5,3.2,5.9,6,10.5,7.4c0.5-0.9,1.8-1.4,4-1.4C742,646.7,783.5,643,783.5,643z M771.1,660.1c-21.1,4.8-37.4-1-44.2-6.4&#10;&#9;&#9;&#9;&#9;&#9;&#9;c1.5,4.9,6,11.7,19.4,12.4c18,0.9,52.3,0.3,57.3-24.3C799.2,648.1,790.1,655.8,771.1,660.1z" transform="matrix(1, 0, 0, 1, -78.23008728027344, -136.90264892578125)"/><linearGradient id="SVGID_42_" gradientUnits="userSpaceOnUse" x1="234.9256" y1="599.7" x2="234.9256" y2="658.5971" gradientTransform="matrix(-1 0 0 1 1210.9531 0)">
						<stop offset="0" style="stop-color:#EDEAE6"/>
						<stop offset="1" style="stop-color:#BCADA7"/>
						
						
						
					</linearGradient><path fill="url(#SVGID_42_)" d="M915.9,625.8c0,0,13.1-22.9,56.2-22.9s47.5-2.2,58.9-4.4c11.5-2.2,8.2,21.8-18.6,26.7&#10;&#9;&#9;&#9;&#9;&#9;&#9;c0,0-3.3,20.7-19.6,23.5c0,0,1.1,16.4-20.2,17.5C951.4,667.2,907.2,666.1,915.9,625.8z" transform="matrix(1, 0, 0, 1, -78.23008728027344, -136.90264892578125)"/><linearGradient id="SVGID_43_" gradientUnits="userSpaceOnUse" x1="236.7779" y1="664.5101" x2="236.7779" y2="609.5785" gradientTransform="matrix(-1 0 0 1 1210.9531 0)">
						<stop offset="0" style="stop-color:#EDEAE6"/>
						<stop offset="1" style="stop-color:#BCADA7"/>
						
						
						
					</linearGradient><path fill="url(#SVGID_43_)" d="M1012.3,626.2c0.1-0.6,0.2-1,0.2-1c9.9-1.8,16.6-6.3,20.5-11c-7,3.7-19.7,8.5-39.2,9.2&#10;&#9;&#9;&#9;&#9;&#9;&#9;c-32,1.1-53.5,4-53.5,4S992.2,623.8,1012.3,626.2z M991.2,646.7c2.2,0,3.5,0.6,4,1.4c4.6-1.3,8-4.2,10.5-7.4&#10;&#9;&#9;&#9;&#9;&#9;&#9;c-7.9,2.3-18.5,3.8-30.9,3.4c-31.3-1.1-39.3-1.1-39.3-1.1S977,646.7,991.2,646.7z M915.4,641.9c5,24.6,39.3,25.2,57.3,24.3&#10;&#9;&#9;&#9;&#9;&#9;&#9;c13.4-0.7,17.9-7.4,19.4-12.4c-6.8,5.4-23.1,11.1-44.2,6.4C929,655.8,919.8,648.1,915.4,641.9z" transform="matrix(1, 0, 0, 1, -78.23008728027344, -136.90264892578125)"/><path fill="#8A7F79" d="M764.7,760c0,0.5,0,0.9,0,1.4h186.7c0-0.5,0-0.9,0-1.4c0-0.5,0-0.9,0-1.4H764.7&#10;&#9;&#9;&#9;&#9;&#9;&#9;C764.7,759.1,764.7,759.5,764.7,760z" transform="matrix(1, 0, 0, 1, -78.23008728027344, -136.90264892578125)"/><g transform="matrix(1, 0, 0, 1, -78.23008728027344, -136.90264892578125)">
							<g>
								<path fill="#8A7F79" d="M773.3,753.1v-10.2c0-0.6,0.5-1.1,1.1-1.1l0,0c0.6,0,1.1,0.5,1.1,1.1l0,0v10.2&#10;&#9;&#9;&#9;&#9;&#9;&#9;&#9;&#9;&#9;c0,0.6-0.5,1.1-1.1,1.1l0,0C773.8,754.2,773.3,753.7,773.3,753.1L773.3,753.1z"/>
							</g>
						</g><g transform="matrix(1, 0, 0, 1, -78.23008728027344, -136.90264892578125)">
								<path fill="#8A7F79" d="M815.1,753.1v-10.2c0-0.6,0.5-1.1,1.1-1.1l0,0c0.6,0,1.1,0.5,1.1,1.1l0,0v10.2&#10;&#9;&#9;&#9;&#9;&#9;&#9;&#9;&#9;&#9;c0,0.6-0.5,1.1-1.1,1.1l0,0C815.6,754.2,815.1,753.7,815.1,753.1L815.1,753.1z"/>
							</g><g transform="matrix(1, 0, 0, 1, -78.23008728027344, -136.90264892578125)">
								<path fill="#8A7F79" d="M856.9,753.1v-10.2c0-0.6,0.5-1.1,1.1-1.1l0,0c0.6,0,1.1,0.5,1.1,1.1l0,0v10.2&#10;&#9;&#9;&#9;&#9;&#9;&#9;&#9;&#9;&#9;c0,0.6-0.5,1.1-1.1,1.1l0,0C857.4,754.2,856.9,753.7,856.9,753.1L856.9,753.1z"/>
							</g><g transform="matrix(1, 0, 0, 1, -78.23008728027344, -136.90264892578125)">
								<path fill="#8A7F79" d="M898.8,753.1v-10.2c0-0.6,0.5-1.1,1.1-1.1l0,0c0.6,0,1.1,0.5,1.1,1.1l0,0v10.2&#10;&#9;&#9;&#9;&#9;&#9;&#9;&#9;&#9;&#9;c0,0.6-0.5,1.1-1.1,1.1l0,0C899.3,754.2,898.8,753.7,898.8,753.1L898.8,753.1z"/>
							</g><g transform="matrix(1, 0, 0, 1, -78.23008728027344, -136.90264892578125)">
								<path fill="#8A7F79" d="M940.6,753.1v-10.2c0-0.6,0.5-1.1,1.1-1.1l0,0c0.6,0,1.1,0.5,1.1,1.1l0,0v10.2&#10;&#9;&#9;&#9;&#9;&#9;&#9;&#9;&#9;&#9;c0,0.6-0.5,1.1-1.1,1.1l0,0C941.1,754.2,940.6,753.7,940.6,753.1L940.6,753.1z"/>
							</g><path d="M 863.7000122070312 771.0999755859375 L 858 765.5 L 852.4000244140625 771.0999755859375 Z" fill="#EB2227" transform="matrix(1, 0, 0, 1, -78.23008728027344, -136.90264892578125)"/><g transform="matrix(1, 0, 0, 1, -78.23008728027344, -136.90264892578125)">
							<path fill="#8A7F79" d="M863,752.6v-6.2c0-0.3,0.2-0.5,0.5-0.5l0,0c0.3,0,0.5,0.2,0.5,0.5l0,0v6.2c0,0.3-0.2,0.5-0.5,0.5l0,0&#10;&#9;&#9;&#9;&#9;&#9;&#9;&#9;&#9;C863.3,753.2,863,752.9,863,752.6L863,752.6z"/>
						</g><path fill="#8A7F79" d="M870.7,752.6v-6.2c0-0.3,0.2-0.6,0.5-0.6l0,0c0.3,0,0.5,0.2,0.5,0.6l0,0v6.2c0,0.3-0.2,0.6-0.5,0.6&#10;&#9;&#9;&#9;&#9;&#9;&#9;&#9;&#9;l0,0C870.9,753.2,870.7,752.9,870.7,752.6L870.7,752.6z" transform="matrix(1, 0, 0, 1, -78.23008728027344, -136.90264892578125)"/><path fill="#8A7F79" d="M878.4,752.6v-6.2c0-0.3,0.2-0.5,0.5-0.5l0,0c0.3,0,0.6,0.2,0.6,0.5l0,0v6.2c0,0.3-0.2,0.5-0.6,0.5&#10;&#9;&#9;&#9;&#9;&#9;&#9;&#9;&#9;l0,0C878.6,753.2,878.4,752.9,878.4,752.6L878.4,752.6z" transform="matrix(1, 0, 0, 1, -78.23008728027344, -136.90264892578125)"/><path fill="#8A7F79" d="M886.1,752.6v-6.2c0-0.3,0.2-0.5,0.5-0.5l0,0c0.3,0,0.6,0.2,0.6,0.5l0,0v6.2c0,0.3-0.2,0.6-0.6,0.6&#10;&#9;&#9;&#9;&#9;&#9;&#9;&#9;&#9;l0,0C886.3,753.2,886.1,752.9,886.1,752.6L886.1,752.6z" transform="matrix(1, 0, 0, 1, -78.23008728027344, -136.90264892578125)"/><path fill="#8A7F79" d="M893.7,752.6v-6.2c0-0.3,0.2-0.5,0.6-0.5l0,0c0.3,0,0.5,0.2,0.5,0.5l0,0v6.2c0,0.3-0.2,0.5-0.5,0.5&#10;&#9;&#9;&#9;&#9;&#9;&#9;&#9;&#9;l0,0C894,753.2,893.7,752.9,893.7,752.6L893.7,752.6z" transform="matrix(1, 0, 0, 1, -78.23008728027344, -136.90264892578125)"/><g transform="matrix(1, 0, 0, 1, -78.23008728027344, -136.90264892578125)">
							<path fill="#8A7F79" d="M905.5,752.6v-6.2c0-0.3,0.2-0.5,0.5-0.5l0,0c0.3,0,0.5,0.2,0.5,0.5l0,0v6.2c0,0.3-0.2,0.5-0.5,0.5&#10;&#9;&#9;&#9;&#9;&#9;&#9;&#9;&#9;l0,0C905.8,753.2,905.5,752.9,905.5,752.6L905.5,752.6z"/>
						</g><path fill="#8A7F79" d="M913.2,752.6v-6.2c0-0.3,0.3-0.5,0.5-0.5l0,0c0.3,0,0.6,0.2,0.6,0.5l0,0v6.2c0,0.3-0.2,0.5-0.6,0.5&#10;&#9;&#9;&#9;&#9;&#9;&#9;&#9;&#9;l0,0C913.5,753.2,913.2,752.9,913.2,752.6L913.2,752.6z" transform="matrix(1, 0, 0, 1, -78.23008728027344, -136.90264892578125)"/><path fill="#8A7F79" d="M920.9,752.6v-6.2c0-0.3,0.2-0.5,0.5-0.5l0,0c0.3,0,0.5,0.2,0.5,0.5l0,0v6.2c0,0.3-0.2,0.5-0.5,0.5&#10;&#9;&#9;&#9;&#9;&#9;&#9;&#9;&#9;l0,0C921.1,753.2,920.9,752.9,920.9,752.6L920.9,752.6z" transform="matrix(1, 0, 0, 1, -78.23008728027344, -136.90264892578125)"/><path fill="#8A7F79" d="M928.6,752.6v-6.2c0-0.3,0.2-0.5,0.5-0.5l0,0c0.3,0,0.6,0.2,0.6,0.5l0,0v6.2c0,0.3-0.2,0.5-0.6,0.5&#10;&#9;&#9;&#9;&#9;&#9;&#9;&#9;&#9;l0,0C928.8,753.2,928.6,752.9,928.6,752.6L928.6,752.6z" transform="matrix(1, 0, 0, 1, -78.23008728027344, -136.90264892578125)"/><path fill="#8A7F79" d="M936.3,752.6v-6.2c0-0.3,0.2-0.5,0.5-0.5l0,0c0.3,0,0.6,0.2,0.6,0.5l0,0v6.2c0,0.3-0.2,0.5-0.6,0.5&#10;&#9;&#9;&#9;&#9;&#9;&#9;&#9;&#9;l0,0C936.5,753.2,936.3,752.9,936.3,752.6L936.3,752.6z" transform="matrix(1, 0, 0, 1, -78.23008728027344, -136.90264892578125)"/><path fill="#6D655F" d="M862.2,731.9c0,3.5-1.3,5.5-3.6,5.5c-2,0-3.4-1.9-3.4-5.3c0-3.5,1.5-5.4,3.6-5.4&#10;&#9;&#9;&#9;&#9;&#9;&#9;&#9;C860.9,726.7,862.2,728.6,862.2,731.9z M856.6,732.1c0,2.7,0.8,4.2,2.1,4.2c1.4,0,2.1-1.7,2.1-4.3c0-2.5-0.7-4.2-2.1-4.2&#10;&#9;&#9;&#9;&#9;&#9;&#9;&#9;C857.4,727.7,856.6,729.2,856.6,732.1z" transform="matrix(1, 0, 0, 1, -78.23008728027344, -136.90264892578125)"/><linearGradient id="SVGID_44_" gradientUnits="userSpaceOnUse" x1="858.0369" y1="569.9288" x2="858.0369" y2="696.5229">
					<stop offset="0" style="stop-color:#EDEAE6"/>
					<stop offset="1" style="stop-color:#BCADA7"/>
					
					
					
				</linearGradient><path d="M 918.400002 640.099976 A 60.400002 73.099998 0 0 1 858 713.199974 A 60.400002 73.099998 0 0 1 797.599998 640.099976 A 60.400002 73.099998 0 0 1 858 566.999977 A 60.400002 73.099998 0 0 1 918.400002 640.099976 Z" fill="url(#SVGID_44_)" transform="matrix(1, 0, 0, 1, -78.23008728027344, -136.90264892578125)"/><linearGradient id="SVGID_45_" gradientUnits="userSpaceOnUse" x1="858.0369" y1="679.7883" x2="858.0369" y2="539.372">
					<stop offset="0" style="stop-color:#EDEAE6"/>
					<stop offset="1" style="stop-color:#BCADA7"/>
					
					
					
				</linearGradient><path d="M 911.799999 640.099976 A 53.799999 65.099998 0 0 1 858 705.199974 A 53.799999 65.099998 0 0 1 804.200001 640.099976 A 53.799999 65.099998 0 0 1 858 574.999977 A 53.799999 65.099998 0 0 1 911.799999 640.099976 Z" fill="url(#SVGID_45_)" transform="matrix(1, 0, 0, 1, -78.23008728027344, -136.90264892578125)"/><path d="M 902.799999 640.099976 A 44.799999 54.200001 0 0 1 858 694.299976 A 44.799999 54.200001 0 0 1 813.200001 640.099976 A 44.799999 54.200001 0 0 1 858 585.899975 A 44.799999 54.200001 0 0 1 902.799999 640.099976 Z" fill="#FFD80D" transform="matrix(1, 0, 0, 1, -78.23008728027344, -136.90264892578125)"/><path fill="#E4B825" d="M858,681.6c-22.9,0-41.8-20.9-44.4-47.8c-0.2,2.1-0.3,4.2-0.3,6.4c0,29.9,20,54.2,44.8,54.2&#10;&#9;&#9;&#9;&#9;&#9;c24.7,0,44.8-24.3,44.8-54.2c0-2.2-0.1-4.3-0.3-6.4C899.9,660.7,881,681.6,858,681.6z" transform="matrix(1, 0, 0, 1, -78.23008728027344, -136.90264892578125)"/><path fill="#FEEA74" d="M819.8,644.9c0-26.1,17.5-47.2,39-47.2c18.7,0,34.3,15.9,38.1,37.1c-1.4-24.5-18.2-43.9-38.8-43.9&#10;&#9;&#9;&#9;&#9;&#9;c-21.5,0-39,21.1-39,47.2c0,3.5,0.3,6.8,0.9,10.1C819.9,647,819.8,646,819.8,644.9z" transform="matrix(1, 0, 0, 1, -78.23008728027344, -136.90264892578125)"/>
</svg>