<?xml version="1.0" encoding="utf-8"?>
<svg id="master-artboard" viewBox="0 0 1092.4481201171875 374.77178955078125" version="1.1" xmlns="http://www.w3.org/2000/svg" x="0px" y="0px" style="enable-background:new 0 0 1400 980;" width="1092.4481201171875px" height="374.77178955078125px"><rect id="ee-background" x="0" y="0" width="1092.4481201171875" height="374.77178955078125" style="fill: white; fill-opacity: 0; pointer-events: none;"/>


<g transform="matrix(1, 0, 0, 1, -149.54356384277344, -276.5145263671875)">
		<path d="M 168.800003 624.700012 H 1231.300003 V 639.100012 H 168.800003 V 624.700012 Z" class="st1" style="fill: rgb(155, 140, 106);"/>
		<g>
			<path d="M 1083.400024 516.5 L 1083.400024 611 L 1119.099976 631.099976 L 1059.400024 631.099976 L 1069.099976 516.5" class="st2" style="fill: rgb(255, 193, 13); stroke: rgb(35, 31, 32); stroke-width: 4.9756; stroke-linecap: round; stroke-linejoin: round; stroke-miterlimit: 10;"/>
			<path d="M 1062.800049 601.700012 L 1083.199951 601.700012" class="st3" style="fill: none; stroke: rgb(35, 31, 32); stroke-width: 4.9756; stroke-linecap: round; stroke-linejoin: round; stroke-miterlimit: 10;"/>
			<path d="M 1062.800049 590.5 L 1083.199951 590.5" class="st3" style="fill: none; stroke: rgb(35, 31, 32); stroke-width: 4.9756; stroke-linecap: round; stroke-linejoin: round; stroke-miterlimit: 10;"/>
			<path d="M 1039 516.5 L 1039 611 L 1074.699951 631.099976 L 1015 631.099976 L 1024.699951 516.5" class="st2" style="fill: rgb(255, 193, 13); stroke: rgb(35, 31, 32); stroke-width: 4.9756; stroke-linecap: round; stroke-linejoin: round; stroke-miterlimit: 10;"/>
			<path d="M 1018.599976 590.5 L 1039 590.5" class="st3" style="fill: none; stroke: rgb(35, 31, 32); stroke-width: 4.9756; stroke-linecap: round; stroke-linejoin: round; stroke-miterlimit: 10;"/>
			<path d="M 1018.599976 601.700012 L 1039 601.700012" class="st3" style="fill: none; stroke: rgb(35, 31, 32); stroke-width: 4.9756; stroke-linecap: round; stroke-linejoin: round; stroke-miterlimit: 10;"/>
		</g>
		<g>
			<g>
				<path d="M 1069 511.600006 L 1083.300049 511.600006" class="st2" style="fill: rgb(255, 193, 13); stroke: rgb(35, 31, 32); stroke-width: 4.9756; stroke-linecap: round; stroke-linejoin: round; stroke-miterlimit: 10;"/>
				<path class="st2" d="M1119,626.2" style="fill: rgb(255, 193, 13); stroke: rgb(35, 31, 32); stroke-width: 4.9756; stroke-linecap: round; stroke-linejoin: round; stroke-miterlimit: 10;"/>
			</g>
			<g>
				<path d="M 1024.699951 511.600006 L 1039 511.600006" class="st2" style="fill: rgb(255, 193, 13); stroke: rgb(35, 31, 32); stroke-width: 4.9756; stroke-linecap: round; stroke-linejoin: round; stroke-miterlimit: 10;"/>
			</g>
			<g>
				<g>
					<path class="st4" d="M919.3,458.6c1.9,12.5,10.7,29,18.1,27.8c7.5-1.2,10.8-19.5,8.9-32c-1.9-12.5-9.5-21.7-17-20.5&#10;&#9;&#9;&#9;&#9;&#9;&#9;C921.9,435.1,917.4,446.1,919.3,458.6z" style="fill: rgb(255, 255, 255); stroke: rgb(35, 31, 32); stroke-width: 4.9756; stroke-linecap: round; stroke-linejoin: round; stroke-miterlimit: 10;"/>
					<path class="st5" d="M1088.6,327.6c-2.6,9.1-1.9,23.1,3.6,24.6c5.4,1.6,13.5-9.8,16.1-18.9c2.6-9.1,0.3-17.8-5.1-19.3&#10;&#9;&#9;&#9;&#9;&#9;&#9;C1097.7,312.4,1091.2,318.5,1088.6,327.6z" style="fill: rgb(236, 30, 36); stroke: rgb(35, 31, 32); stroke-width: 4.9756; stroke-linecap: round; stroke-linejoin: round; stroke-miterlimit: 10;"/>
					<path class="st5" d="M1059.7,324c5.3,11.5,18.2,24.9,25.1,21.7c6.9-3.2,5-21.7-0.3-33.2c-5.3-11.5-15.2-18.2-22-15&#10;&#9;&#9;&#9;&#9;&#9;&#9;C1055.6,300.6,1054.4,312.5,1059.7,324z" style="fill: rgb(236, 30, 36); stroke: rgb(35, 31, 32); stroke-width: 4.9756; stroke-linecap: round; stroke-linejoin: round; stroke-miterlimit: 10;"/>
					<path class="st5" d="M1039.5,336.1c8.4,4.3,22.3,6.2,24.9,1.1c2.6-5.1-7.1-15.1-15.6-19.4c-8.4-4.3-17.4-3.7-19.9,1.4&#10;&#9;&#9;&#9;&#9;&#9;&#9;C1026.3,324.2,1031,331.8,1039.5,336.1z" style="fill: rgb(236, 30, 36); stroke: rgb(35, 31, 32); stroke-width: 4.9756; stroke-linecap: round; stroke-linejoin: round; stroke-miterlimit: 10;"/>
					<path class="st4" d="M908.4,477.4c6.8,5.9,19.2,10.8,22.8,6.7c3.5-4.1-3.1-15.6-10-21.5c-6.8-5.9-15.3-7.4-18.8-3.3&#10;&#9;&#9;&#9;&#9;&#9;&#9;C898.9,463.4,901.6,471.5,908.4,477.4z" style="fill: rgb(255, 255, 255); stroke: rgb(35, 31, 32); stroke-width: 4.9756; stroke-linecap: round; stroke-linejoin: round; stroke-miterlimit: 10;"/>
					<path class="st6" d="M1170.3,514.9c33.1-56.8,13.9-129.6-42.9-162.8c-56.8-33.1-129.6-13.9-162.7,42.9&#10;&#9;&#9;&#9;&#9;&#9;&#9;c-10.8,18.5-16,38.6-16.2,58.6v0c-1.5,19.6-12.3,51.2-45.2,18.1c19.5,69.1,65.7,94.7,110.8,102c26.4,4.3,50.2,1.9,67.2-0.6&#10;&#9;&#9;&#9;&#9;&#9;&#9;C1117,568,1150.7,548.5,1170.3,514.9z" style="fill: rgb(255, 255, 255);"/>
					<g>
						<path class="st7" d="M1063.1,442.2c-20-21-53.1-21.8-74.1-1.8c-13.7,13-18.8,31.7-15.1,48.9c2.1-10,7-19.6,15.1-27&#10;&#9;&#9;&#9;&#9;&#9;&#9;&#9;C1020.2,433.7,1063.1,442.2,1063.1,442.2z" style="fill: rgb(224, 213, 216);"/>
					</g>
					<path class="st7" d="M1186.5,453.4c0-0.3,0-0.6,0-0.9c-0.8-40.1-21.9-78.8-59-100.4C1078.2,323.5,1017,334,980,374.3&#10;&#9;&#9;&#9;&#9;&#9;&#9;c11.2-4.8,23.3-8,36.1-9.2c65.4-6.1,123.4,42.1,129.5,107.5c3.2,34.8-9.4,66.8-30.8,91.1c11.7-5.1,22.7-11.9,32.4-20.5&#10;&#9;&#9;&#9;&#9;&#9;&#9;c0.1-0.1,0.3-0.3,0.4-0.4c23.5-22.5,38.9-53.6,39-87.9C1186.5,454.4,1186.5,453.9,1186.5,453.4z" style="fill: rgb(224, 213, 216);"/>
					<path class="st3" d="M1170.3,514.9c33.1-56.8,13.9-129.6-42.9-162.8c-56.8-33.1-129.6-13.9-162.7,42.9&#10;&#9;&#9;&#9;&#9;&#9;&#9;c-10.8,18.5-16,38.6-16.2,58.6v0c-1.5,19.6-12.3,51.2-45.2,18.1c19.5,69.1,65.7,94.7,110.8,102c26.4,4.3,50.2,1.9,67.2-0.6&#10;&#9;&#9;&#9;&#9;&#9;&#9;C1117,568,1150.7,548.5,1170.3,514.9z" style="fill: none; stroke: rgb(35, 31, 32); stroke-width: 4.9756; stroke-linecap: round; stroke-linejoin: round; stroke-miterlimit: 10;"/>
					<path class="st3" d="M1061.3,516.3c-21,20-54.1,19.2-74.1-1.8c-20-21-19.2-54.2,1.8-74.1c21-20,54.1-19.2,74.1,1.8" style="fill: none; stroke: rgb(35, 31, 32); stroke-width: 4.9756; stroke-linecap: round; stroke-linejoin: round; stroke-miterlimit: 10;"/>
					<path d="M 1115.599951 410.399994 A 10.4 10.4 0 0 1 1105.199951 420.799994 A 10.4 10.4 0 0 1 1094.799952 410.399994 A 10.4 10.4 0 0 1 1105.199951 399.999994 A 10.4 10.4 0 0 1 1115.599951 410.399994 Z" class="st8" style="fill: rgb(35, 31, 32);"/>
					<path d="M 1163.999975 410.399994 A 10.4 10.4 0 0 1 1153.599976 420.799994 A 10.4 10.4 0 0 1 1143.199976 410.399994 A 10.4 10.4 0 0 1 1153.599976 399.999994 A 10.4 10.4 0 0 1 1163.999975 410.399994 Z" class="st8" style="fill: rgb(35, 31, 32);"/>
					<path class="st2" d="M1130.8,417c0,0-8,8.3-8,20c0,11.7,8,20,8,20l36.5-20L1130.8,417z" style="fill: rgb(255, 193, 13); stroke: rgb(35, 31, 32); stroke-width: 4.9756; stroke-linecap: round; stroke-linejoin: round; stroke-miterlimit: 10;"/>
					<path class="st9" d="M1130.8,417c0,0,1.8-4.8-0.6,0.9c8,7.3,13,16.8,15.4,30.9l21.7-11.8L1130.8,417z" style="fill: rgb(232, 163, 34);"/>
					<path class="st3" d="M1124,429.1c0,0,7.6,13.2,43.3,7.8" style="fill: none; stroke: rgb(35, 31, 32); stroke-width: 4.9756; stroke-linecap: round; stroke-linejoin: round; stroke-miterlimit: 10;"/>
					<path class="st3" d="M1130.8,417c0,0-8,8.3-8,20c0,11.7,8,20,8,20l36.5-20L1130.8,417z" style="fill: none; stroke: rgb(35, 31, 32); stroke-width: 4.9756; stroke-linecap: round; stroke-linejoin: round; stroke-miterlimit: 10;"/>
				</g>
			</g>
		</g>
		<g>
			<path class="st4" d="M301.3,566.7c0,40.8-25.8,59.5-57.6,59.5s-57.6-18.7-57.6-59.5c0-40.8,25.8-88.4,57.6-88.4&#10;&#9;&#9;&#9;&#9;S301.3,525.9,301.3,566.7z" style="fill: rgb(255, 255, 255); stroke: rgb(35, 31, 32); stroke-width: 4.9756; stroke-linecap: round; stroke-linejoin: round; stroke-miterlimit: 10;"/>
			<g>
				<path class="st7" d="M243.7,478.3c-0.5,0-1.1,0-1.6,0c17.5,16.9,29.4,47.7,29.4,75.4c0,40.8-25.8,59.5-57.6,59.5&#10;&#9;&#9;&#9;&#9;&#9;c-3.4,0-6.8-0.2-10-0.7c10.3,9.2,24.4,13.6,39.8,13.6c31.8,0,57.6-18.7,57.6-59.5C301.3,525.9,275.5,478.3,243.7,478.3z" style="fill: rgb(224, 213, 216);"/>
			</g>
			<path class="st3" d="M301.3,566.7c0,40.8-25.8,59.5-57.6,59.5s-57.6-18.7-57.6-59.5c0-40.8,25.8-88.4,57.6-88.4&#10;&#9;&#9;&#9;&#9;S301.3,525.9,301.3,566.7z" style="fill: none; stroke: rgb(35, 31, 32); stroke-width: 4.9756; stroke-linecap: round; stroke-linejoin: round; stroke-miterlimit: 10;"/>
		</g>
		<g>
			<path class="st2" d="M602.3,552.7c0,29.7-22.5,53.8-50.3,53.8c-27.8,0-50.3-24.1-50.3-53.8c0-29.7,22.5-72.2,50.3-72.2&#10;&#9;&#9;&#9;&#9;C579.8,480.5,602.3,522.9,602.3,552.7z" style="fill: rgb(255, 193, 13); stroke: rgb(35, 31, 32); stroke-width: 4.9756; stroke-linecap: round; stroke-linejoin: round; stroke-miterlimit: 10;"/>
			<g>
				<path class="st9" d="M552,480.5c-3.6,0-7,0.7-10.4,2c22.8,8.7,39.9,44.3,39.9,70.2c0,25.9-17.1,47.5-39.9,52.6&#10;&#9;&#9;&#9;&#9;&#9;c3.3,0.8,6.8,1.2,10.4,1.2c27.8,0,50.3-24.1,50.3-53.8C602.3,522.9,579.8,480.5,552,480.5z" style="fill: rgb(232, 163, 34);"/>
			</g>
			<path class="st3" d="M602.3,552.7c0,29.7-22.5,53.8-50.3,53.8c-27.8,0-50.3-24.1-50.3-53.8c0-29.7,22.5-72.2,50.3-72.2&#10;&#9;&#9;&#9;&#9;C579.8,480.5,602.3,522.9,602.3,552.7z" style="fill: none; stroke: rgb(35, 31, 32); stroke-width: 4.9756; stroke-linecap: round; stroke-linejoin: round; stroke-miterlimit: 10;"/>
			<path d="M 559.099976 516 A 5.5 5.5 0 0 1 553.599976 521.5 A 5.5 5.5 0 0 1 548.099976 516 A 5.5 5.5 0 0 1 553.599976 510.5 A 5.5 5.5 0 0 1 559.099976 516 Z" class="st8" style="fill: rgb(35, 31, 32);"/>
			<path d="M 584.799988 516 A 5.5 5.5 0 0 1 579.299988 521.5 A 5.5 5.5 0 0 1 573.799988 516 A 5.5 5.5 0 0 1 579.299988 510.5 A 5.5 5.5 0 0 1 584.799988 516 Z" class="st8" style="fill: rgb(35, 31, 32);"/>
			<path class="st2" d="M567.1,519.5c0,0-4.2,4.4-4.2,10.6c0,6.2,4.2,10.6,4.2,10.6l19.4-10.6L567.1,519.5z" style="fill: rgb(255, 193, 13); stroke: rgb(35, 31, 32); stroke-width: 4.9756; stroke-linecap: round; stroke-linejoin: round; stroke-miterlimit: 10;"/>
			<path class="st9" d="M567.1,519.5c0,0,1-2.6-0.3,0.5c4.2,3.9,6.9,8.9,8.2,16.4l11.5-6.3L567.1,519.5z" style="fill: rgb(232, 163, 34);"/>
			<path class="st3" d="M567.1,519.5c0,0-4.2,4.4-4.2,10.6c0,6.2,4.2,10.6,4.2,10.6l19.4-10.6L567.1,519.5z" style="fill: none; stroke: rgb(35, 31, 32); stroke-width: 4.9756; stroke-linecap: round; stroke-linejoin: round; stroke-miterlimit: 10;"/>
			<path class="st3" d="M563.5,526c0,0,4,7,23,4.1" style="fill: none; stroke: rgb(35, 31, 32); stroke-width: 4.9756; stroke-linecap: round; stroke-linejoin: round; stroke-miterlimit: 10;"/>
			<path class="st4" d="M585.1,557.3c-1.1,1-2.8,1.2-3.9,0c-5.9-6.4-11.7-12.8-17.1-19.5c-5.3,6.5-8.6,14.6-15.8,19.4&#10;&#9;&#9;&#9;&#9;c-1,0.6-2.6,0.5-3.3-0.4c-5.2-5.9-8.8-12.9-13.7-19c-5.8,6.5-12.1,12.7-17.6,19.6c-1.1,1.4-3.5,0.8-4.3-0.6&#10;&#9;&#9;&#9;&#9;c-3.2-5.3-7.9-10-12-15c-1.9,8.3-3,16.8-3,25c0,40.8,25.8,59.5,57.6,59.5c31.8,0,57.6-18.7,57.6-59.5c0-9.2-1.3-18.6-3.7-27.9&#10;&#9;&#9;&#9;&#9;C598.9,544.9,592.1,551.2,585.1,557.3z" style="fill: rgb(255, 255, 255); stroke: rgb(35, 31, 32); stroke-width: 4.9756; stroke-linecap: round; stroke-linejoin: round; stroke-miterlimit: 10;"/>
			<g>
				<path class="st7" d="M585.1,557.3c-1.1,1-2.8,1.2-3.9,0c-0.5-0.5-0.9-1-1.4-1.5c-0.9,39.4-26.3,57.4-57.6,57.4&#10;&#9;&#9;&#9;&#9;&#9;c-3.4,0-6.8-0.2-10-0.7c10.3,9.2,24.4,13.6,39.8,13.6c31.8,0,57.6-18.7,57.6-59.5c0-9.2-1.3-18.6-3.7-27.9&#10;&#9;&#9;&#9;&#9;&#9;C598.9,544.9,592.1,551.2,585.1,557.3z" style="fill: rgb(224, 213, 216);"/>
			</g>
			<path class="st3" d="M585.1,557.3c-1.1,1-2.8,1.2-3.9,0c-5.9-6.4-11.7-12.8-17.1-19.5c-5.3,6.5-8.6,14.6-15.8,19.4&#10;&#9;&#9;&#9;&#9;c-1,0.6-2.6,0.5-3.3-0.4c-5.2-5.9-8.8-12.9-13.7-19c-5.8,6.5-12.1,12.7-17.6,19.6c-1.1,1.4-3.5,0.8-4.3-0.6&#10;&#9;&#9;&#9;&#9;c-3.2-5.3-7.9-10-12-15c-1.9,8.3-3,16.8-3,25c0,40.8,25.8,59.5,57.6,59.5c31.8,0,57.6-18.7,57.6-59.5c0-9.2-1.3-18.6-3.7-27.9&#10;&#9;&#9;&#9;&#9;C598.9,544.9,592.1,551.2,585.1,557.3z" style="fill: none; stroke: rgb(35, 31, 32); stroke-width: 4.9756; stroke-linecap: round; stroke-linejoin: round; stroke-miterlimit: 10;"/>
		</g>
		<g>
			<path class="st4" d="M455.1,566.7c0,40.8-25.8,59.5-57.6,59.5s-57.6-18.7-57.6-59.5c0-40.8,25.8-88.4,57.6-88.4&#10;&#9;&#9;&#9;&#9;S455.1,525.9,455.1,566.7z" style="fill: rgb(255, 255, 255); stroke: rgb(35, 31, 32); stroke-width: 4.9756; stroke-linecap: round; stroke-linejoin: round; stroke-miterlimit: 10;"/>
			<path d="M 343.200012 544.400024 L 358 560.799988 L 377 540.400024 L 392 560.099976 L 409.799988 540.400024 L 427 560 L 451.100006 540.400024" class="st10" style="fill: none; stroke: rgb(224, 213, 216); stroke-width: 6.0467; stroke-linecap: round; stroke-linejoin: round; stroke-miterlimit: 10;"/>
			<g>
				<path class="st7" d="M397.5,478.3c-0.5,0-1.1,0-1.6,0c17.5,16.9,29.4,47.7,29.4,75.4c0,40.8-25.8,59.5-57.6,59.5&#10;&#9;&#9;&#9;&#9;&#9;c-3.4,0-6.8-0.2-10-0.7c10.3,9.2,24.4,13.6,39.8,13.6c31.8,0,57.6-18.7,57.6-59.5C455.1,525.9,429.3,478.3,397.5,478.3z" style="fill: rgb(224, 213, 216);"/>
			</g>
			<path class="st3" d="M455.1,566.7c0,40.8-25.8,59.5-57.6,59.5s-57.6-18.7-57.6-59.5c0-40.8,25.8-88.4,57.6-88.4&#10;&#9;&#9;&#9;&#9;S455.1,525.9,455.1,566.7z" style="fill: none; stroke: rgb(35, 31, 32); stroke-width: 4.9756; stroke-linecap: round; stroke-linejoin: round; stroke-miterlimit: 10;"/>
			<path d="M 343.200012 541.700012 L 358 558.099976 L 377 537.700012 L 392 557.5 L 409.799988 537.799988 L 427 557.299988 L 451.100006 537.700012" class="st3" style="fill: none; stroke: rgb(35, 31, 32); stroke-width: 4.9756; stroke-linecap: round; stroke-linejoin: round; stroke-miterlimit: 10;"/>
		</g>
		<g>
			<path d="M 714.400024 584.400024 L 714.400024 622.900024 L 729 631.099976 L 704.700012 631.099976 L 708.599976 584.400024" class="st2" style="fill: rgb(255, 193, 13); stroke: rgb(35, 31, 32); stroke-width: 4.9756; stroke-linecap: round; stroke-linejoin: round; stroke-miterlimit: 10;"/>
			<path d="M 706.099976 614.599976 L 714.400024 614.599976" class="st3" style="fill: none; stroke: rgb(35, 31, 32); stroke-width: 4.9756; stroke-linecap: round; stroke-linejoin: round; stroke-miterlimit: 10;"/>
			<path d="M 696.400024 584.400024 L 696.400024 622.900024 L 710.900024 631.099976 L 686.599976 631.099976 L 690.599976 584.400024" class="st2" style="fill: rgb(255, 193, 13); stroke: rgb(35, 31, 32); stroke-width: 4.9756; stroke-linecap: round; stroke-linejoin: round; stroke-miterlimit: 10;"/>
			<path d="M 688.099976 614.599976 L 696.400024 614.599976" class="st3" style="fill: none; stroke: rgb(35, 31, 32); stroke-width: 4.9756; stroke-linecap: round; stroke-linejoin: round; stroke-miterlimit: 10;"/>
			<path class="st2" d="M750.3,552.7c0,29.7-22.5,53.8-50.3,53.8c-27.8,0-50.3-24.1-50.3-53.8c0-29.7,22.5-72.2,50.3-72.2&#10;&#9;&#9;&#9;&#9;C727.8,480.5,750.3,522.9,750.3,552.7z" style="fill: rgb(255, 193, 13); stroke: rgb(35, 31, 32); stroke-width: 4.9756; stroke-linecap: round; stroke-linejoin: round; stroke-miterlimit: 10;"/>
			<path class="st2" d="M700,480.5c-27.8,0-50.3,42.5-50.3,72.2c0,0.9,0,1.7,0.1,2.6h-18.5c1.3,28.5,33.7,51.2,60.7,51.2&#10;&#9;&#9;&#9;&#9;c1.4,0,2.7-0.1,4-0.2c1.3,0.1,2.7,0.2,4.1,0.2c27.8,0,50.3-24.1,50.3-53.8C750.3,522.9,727.8,480.5,700,480.5z" style="fill: rgb(255, 193, 13); stroke: rgb(35, 31, 32); stroke-width: 4.9756; stroke-linecap: round; stroke-linejoin: round; stroke-miterlimit: 10;"/>
			<g>
				<path class="st9" d="M700,480.5c-3.6,0-7,0.7-10.4,2c22.8,8.7,39.9,44.3,39.9,70.2c0,25.9-17.1,47.5-39.9,52.6&#10;&#9;&#9;&#9;&#9;&#9;c3.3,0.8,6.8,1.2,10.4,1.2c27.8,0,50.3-24.1,50.3-53.8C750.3,522.9,727.8,480.5,700,480.5z" style="fill: rgb(232, 163, 34);"/>
			</g>
			<path class="st3" d="M700,480.5c-27.8,0-50.3,42.5-50.3,72.2c0,0.9,0,1.7,0.1,2.6h-18.5c1.3,28.5,33.7,51.2,60.7,51.2&#10;&#9;&#9;&#9;&#9;c1.4,0,2.7-0.1,4-0.2c1.3,0.1,2.7,0.2,4.1,0.2c27.8,0,50.3-24.1,50.3-53.8C750.3,522.9,727.8,480.5,700,480.5z" style="fill: none; stroke: rgb(35, 31, 32); stroke-width: 4.9756; stroke-linecap: round; stroke-linejoin: round; stroke-miterlimit: 10;"/>
			<path d="M 707 516 A 5.5 5.5 0 0 1 701.5 521.5 A 5.5 5.5 0 0 1 696 516 A 5.5 5.5 0 0 1 701.5 510.5 A 5.5 5.5 0 0 1 707 516 Z" class="st8" style="fill: rgb(35, 31, 32);"/>
			<path d="M 732.700012 516 A 5.5 5.5 0 0 1 727.200012 521.5 A 5.5 5.5 0 0 1 721.700012 516 A 5.5 5.5 0 0 1 727.200012 510.5 A 5.5 5.5 0 0 1 732.700012 516 Z" class="st8" style="fill: rgb(35, 31, 32);"/>
			<path class="st2" d="M715.1,519.5c0,0-4.2,4.4-4.2,10.6c0,6.2,4.2,10.6,4.2,10.6l19.4-10.6L715.1,519.5z" style="fill: rgb(255, 193, 13); stroke: rgb(35, 31, 32); stroke-width: 4.9756; stroke-linecap: round; stroke-linejoin: round; stroke-miterlimit: 10;"/>
			<path class="st9" d="M715.1,519.5c0,0,1-2.6-0.3,0.5c4.2,3.9,6.9,8.9,8.2,16.4l11.5-6.3L715.1,519.5z" style="fill: rgb(232, 163, 34);"/>
			<path class="st3" d="M715.1,519.5c0,0-4.2,4.4-4.2,10.6c0,6.2,4.2,10.6,4.2,10.6l19.4-10.6L715.1,519.5z" style="fill: none; stroke: rgb(35, 31, 32); stroke-width: 4.9756; stroke-linecap: round; stroke-linejoin: round; stroke-miterlimit: 10;"/>
			<path class="st3" d="M711.5,526c0,0,4,7,23,4.1" style="fill: none; stroke: rgb(35, 31, 32); stroke-width: 4.9756; stroke-linecap: round; stroke-linejoin: round; stroke-miterlimit: 10;"/>
		</g>
		<path class="st4" d="M665.6,512.1c4-5.1,7.4-9.5,11.9-15.1c4.3,4.8,8.9,9,13.6,13.6c4.2-4.2,8.5-8.4,12-13.1&#10;&#9;&#9;&#9;c3.9,3.2,10.8,9.7,12.3,10.4c2.3-2.1,4.6-7.3,7.3-10.6c3,1.9,6.6,4.8,9.1,7.3c2.1-1.7,5.6-3.7,7.1-6&#10;&#9;&#9;&#9;c-10.1-16.5-25.4-23.8-38.6-23.8c-14,0-32.9,10-41.2,30.2C661.2,507,663.4,510,665.6,512.1z" style="fill: rgb(255, 255, 255); stroke: rgb(35, 31, 32); stroke-width: 4.9756; stroke-linecap: round; stroke-linejoin: round; stroke-miterlimit: 10;"/>
		<path class="st7" d="M719.9,503.3c0.2-0.3,2.5-3,2.7-3.3c0.9-1.3-0.7-3,0.8-2.3c6.6,3.1,2.8,1.1,7.7,6.2c2.1-1.7,5.3-4.5,6.8-6.9&#10;&#9;&#9;&#9;c-9.7-12.6-24.5-22.4-37.7-22.4c-0.5,0-7.7,1-8.3,1.1C703.2,477.3,716.5,497.9,719.9,503.3z" style="fill: rgb(224, 213, 216);"/>
		<path class="st3" d="M665.6,512.1c4-5.1,7.4-9.5,11.9-15.1c4.3,4.8,8.9,9,13.6,13.6c4.2-4.2,8.5-8.4,12-13.1&#10;&#9;&#9;&#9;c3.9,3.2,10.8,9.7,12.3,10.4c2.3-2.1,4.6-7.3,7.3-10.6c3,1.9,6.6,4.8,9.1,7.3c2.1-1.7,5.6-3.7,7.1-6&#10;&#9;&#9;&#9;c-10.1-16.5-25.4-23.8-38.6-23.8c-14,0-32.9,10-41.2,30.2C661.2,507,663.4,510,665.6,512.1z" style="fill: none; stroke: rgb(35, 31, 32); stroke-width: 4.9756; stroke-linecap: round; stroke-linejoin: round; stroke-miterlimit: 10;"/>
		<g>
			<path d="M 861.200012 584.400024 L 861.200012 622.900024 L 875.700012 631.099976 L 851.400024 631.099976 L 855.400024 584.400024" class="st2" style="fill: rgb(255, 193, 13); stroke: rgb(35, 31, 32); stroke-width: 4.9756; stroke-linecap: round; stroke-linejoin: round; stroke-miterlimit: 10;"/>
			<path d="M 852.799988 614.599976 L 861.099976 614.599976" class="st3" style="fill: none; stroke: rgb(35, 31, 32); stroke-width: 4.9756; stroke-linecap: round; stroke-linejoin: round; stroke-miterlimit: 10;"/>
			<path d="M 843.099976 584.400024 L 843.099976 622.900024 L 857.700012 631.099976 L 833.400024 631.099976 L 837.299988 584.400024" class="st2" style="fill: rgb(255, 193, 13); stroke: rgb(35, 31, 32); stroke-width: 4.9756; stroke-linecap: round; stroke-linejoin: round; stroke-miterlimit: 10;"/>
			<path d="M 834.799988 614.599976 L 843.099976 614.599976" class="st3" style="fill: none; stroke: rgb(35, 31, 32); stroke-width: 4.9756; stroke-linecap: round; stroke-linejoin: round; stroke-miterlimit: 10;"/>
			<path class="st2" d="M897,552.7c0,29.7-22.5,53.8-50.3,53.8c-27.8,0-50.3-24.1-50.3-53.8c0-29.7,22.5-72.2,50.3-72.2&#10;&#9;&#9;&#9;&#9;C874.5,480.5,897,522.9,897,552.7z" style="fill: rgb(255, 193, 13); stroke: rgb(35, 31, 32); stroke-width: 4.9756; stroke-linecap: round; stroke-linejoin: round; stroke-miterlimit: 10;"/>
			<path class="st2" d="M846.8,480.5c-27.8,0-50.3,42.5-50.3,72.2c0,0.9,0,1.7,0.1,2.6h-18.5c1.3,28.5,33.7,51.2,60.7,51.2&#10;&#9;&#9;&#9;&#9;c1.4,0,2.7-0.1,4-0.2c1.3,0.1,2.7,0.2,4.1,0.2c27.8,0,50.3-24.1,50.3-53.8C897,522.9,874.5,480.5,846.8,480.5z" style="fill: rgb(255, 193, 13); stroke: rgb(35, 31, 32); stroke-width: 4.9756; stroke-linecap: round; stroke-linejoin: round; stroke-miterlimit: 10;"/>
			<g>
				<path class="st9" d="M846.8,480.5c-3.6,0-7,0.7-10.4,2c22.8,8.7,39.9,44.3,39.9,70.2c0,25.9-17.1,47.5-39.9,52.6&#10;&#9;&#9;&#9;&#9;&#9;c3.3,0.8,6.8,1.2,10.4,1.2c27.8,0,50.3-24.1,50.3-53.8C897,522.9,874.5,480.5,846.8,480.5z" style="fill: rgb(232, 163, 34);"/>
			</g>
			<path class="st3" d="M846.8,480.5c-27.8,0-50.3,42.5-50.3,72.2c0,0.9,0,1.7,0.1,2.6h-18.5c1.3,28.5,33.7,51.2,60.7,51.2&#10;&#9;&#9;&#9;&#9;c1.4,0,2.7-0.1,4-0.2c1.3,0.1,2.7,0.2,4.1,0.2c27.8,0,50.3-24.1,50.3-53.8C897,522.9,874.5,480.5,846.8,480.5z" style="fill: none; stroke: rgb(35, 31, 32); stroke-width: 4.9756; stroke-linecap: round; stroke-linejoin: round; stroke-miterlimit: 10;"/>
			<path d="M 853.799988 516 A 5.5 5.5 0 0 1 848.299988 521.5 A 5.5 5.5 0 0 1 842.799988 516 A 5.5 5.5 0 0 1 848.299988 510.5 A 5.5 5.5 0 0 1 853.799988 516 Z" class="st8" style="fill: rgb(35, 31, 32);"/>
			<path d="M 879.5 516 A 5.5 5.5 0 0 1 874 521.5 A 5.5 5.5 0 0 1 868.5 516 A 5.5 5.5 0 0 1 874 510.5 A 5.5 5.5 0 0 1 879.5 516 Z" class="st8" style="fill: rgb(35, 31, 32);"/>
			<path class="st2" d="M861.8,519.5c0,0-4.2,4.4-4.2,10.6c0,6.2,4.2,10.6,4.2,10.6l19.4-10.6L861.8,519.5z" style="fill: rgb(255, 193, 13); stroke: rgb(35, 31, 32); stroke-width: 4.9756; stroke-linecap: round; stroke-linejoin: round; stroke-miterlimit: 10;"/>
			<path class="st9" d="M861.8,519.5c0,0,1-2.6-0.3,0.5c4.2,3.9,6.9,8.9,8.2,16.4l11.5-6.3L861.8,519.5z" style="fill: rgb(232, 163, 34);"/>
			<path class="st3" d="M861.8,519.5c0,0-4.2,4.4-4.2,10.6c0,6.2,4.2,10.6,4.2,10.6l19.4-10.6L861.8,519.5z" style="fill: none; stroke: rgb(35, 31, 32); stroke-width: 4.9756; stroke-linecap: round; stroke-linejoin: round; stroke-miterlimit: 10;"/>
			<path class="st3" d="M858.2,526c0,0,4,7,23,4.1" style="fill: none; stroke: rgb(35, 31, 32); stroke-width: 4.9756; stroke-linecap: round; stroke-linejoin: round; stroke-miterlimit: 10;"/>
		</g>
	</g>
</svg>