<?xml version="1.0" encoding="utf-8"?>
<svg id="master-artboard" viewBox="0 0 1400 980" version="1.1" xmlns="http://www.w3.org/2000/svg" x="0px" y="0px" style="enable-background:new 0 0 1400 980;" width="1400px" height="980px">

<path class="st0" d="M614.2,302.4c6.1-5,13.1-9.1,20.8-12.2c12.1-4.9,24.6-7.2,36-7c16.2,0,30.3,2.5,43.4,9c2.5,1.2,4.8,2.5,7.1,3.9&#10;&#9;c6.7-7.6,9.9-16.5,10.1-27.5c-0.3-11.2-4.6-21.4-13.7-29.4c-8.8-7.8-19.2-11-30.8-9.7c-13.1,1.4-23.2,7.9-30.1,19&#10;&#9;c-1.3,2-2.6,3.1-5.1,3.4c-11.6,1.4-20.4,9.5-23,21c-0.4,2-0.8,2.3-2.8,2.6c-1.7,0.2-3.3,0.7-4.9,1.4c-6.7,3.4-10.1,8.9-9.8,16.4&#10;&#9;C611.5,296.9,612.5,299.9,614.2,302.4z" style="fill: rgb(232, 56, 74);"/>
<path class="st0" d="M923.1,518.9c-3.9-2.1-8.2-3-12.6-3.1c-4.9-0.2-9.7,0.5-14.5,1.4c-0.7,0.1-1.8,0.7-2.1-0.1&#10;&#9;c-0.3-0.8,0.8-1.2,1.4-1.6c7.2-4.8,14.2-9.8,20.6-15.5c7.1-6.3,13.6-13.2,18.1-21.7c3.4-6.4,5.4-13.2,4.4-20.6&#10;&#9;c-1.2-9-5.4-16.3-12.7-21.7c-6-4.5-12.9-5.5-20.2-4.6c-6.8,0.8-13.1,3.1-19.2,6c-8.7,4.1-16.6,9.4-24.3,15.1&#10;&#9;c-0.8,0.6-1.6,1.1-2.4,1.7c-0.3,0.2-0.7,0.4-1,0.1c-0.3-0.3,0-0.6,0.1-0.9c0.4-0.6,0.7-1.2,1.2-1.8c6.6-9.1,12.6-18.7,17.8-28.7&#10;&#9;c5.1-9.8,9.3-19.9,12.4-30.5c2.7-9.2,4.5-18.5,4.4-29c0.1-4.1-0.4-9-1.7-13.7c-2-7.2-5.4-13.5-11.5-18.1c-7.8-5.9-16.7-7.8-26.3-6.5&#10;&#9;c-8.5,1.2-15.9,5-22.8,9.9c-9.1,6.6-16.5,14.8-23.2,23.7c-7.9,10.6-14.4,22.1-20.1,34.1c-0.5,1-0.9,2-1.4,3.1&#10;&#9;c1.4,1.2,2.8,2.5,4.1,3.7c20.4,18.9,37,40.9,50.7,65.1c19.4,34.4,32.1,71.1,38.3,110.1c1,6.5,1.9,13.1,2.4,19.7&#10;&#9;c3.9-1.8,7.7-3.7,11.4-5.7c7.4-3.9,14.5-8.2,21.1-13.4c5.9-4.6,11.2-9.8,15.2-16.3c4.8-8,6.4-16.4,3.7-25.5&#10;&#9;C932.5,527.2,929,522,923.1,518.9z" style="fill: rgb(232, 56, 74);"/>
<g>
	<path class="st1" d="M1085.4,752.9c-6,0-11.8-0.9-17.3-3.6c-2.9-1.4-5.5-3-7.8-5.2c-1.2-1.1-1.8-1.2-3-0.1&#10;&#9;&#9;c-6.3,5.5-13.6,8.2-22,8.2c-7.5,0-14.7-1.5-21.5-4.6c-3.3-1.5-6.3-3.6-8.9-6.1c-0.4-0.4-0.9-0.8-1.3-1.3c-0.7-0.6-1.4-0.6-2,0.1&#10;&#9;&#9;c-1,1.1-2.1,2.2-3.2,3.3c-6.1,5.7-13.4,8.5-21.7,8.6c-7.8,0.2-15.2-1.4-22.3-4.7c-1.4-0.7-2.8-0.6-4.2,0c-6.8,3.3-14,4.7-21.4,4.7&#10;&#9;&#9;c-13.2-0.1-23.1-5.9-29.6-17.3c-3.9-6.7-5.7-14.1-6.4-21.7c-0.8-8.9,0-17.6,2.3-26.2c2.2-8,5.5-15.4,11.2-21.5&#10;&#9;&#9;c7.9-8.5,18.3-11.4,29.7-6.5c5.8,2.5,10.6,6.3,14.8,10.9c0,0.1,0.1,0.1,0.1,0.2c1.3,1.5,1.9,1.5,3.3,0.1c2.5-2.3,5-4.7,7.7-6.7&#10;&#9;&#9;c4.5-3.4,9.6-5.6,15.3-6.4c7-0.9,13.2,1.1,18.7,5.5c4.2,3.4,7.1,7.7,9.6,12.4c1.4,2.7,1.6,2.7,3.4,0.3c4.1-5.4,8.9-10.2,14.8-13.7&#10;&#9;&#9;c4.9-2.9,10.1-4.8,15.9-4.7c6.3,0.1,11.6,2.4,16.2,6.6c1.5,1.4,2.8,3,4.2,4.5c1.1,1.2,1.6,1.3,2.7,0.1c2.7-3,5.7-5.7,9.3-7.6&#10;&#9;&#9;c8.9-4.9,17.7-4.3,26.2,1c7,4.3,12,10.5,16,17.6c5.3,9.3,8.3,19.4,9.3,30c0.7,7.5,0.1,14.8-2.6,21.8c-4.9,12.6-14.4,19.4-27.5,21.6&#10;&#9;&#9;c-1.1,0.2-2.2,0.3-3.4,0.4C1088.7,752.8,1087.1,752.8,1085.4,752.9z M1068.8,705.5c0-7.9-1.2-15.6-3.9-23.1&#10;&#9;&#9;c-2.2-6.1-5.2-11.7-9.9-16.2c-6.9-6.7-14.8-8.4-23.8-5.1c-7.1,2.6-12.7,7.4-17.5,13.1c-6.2,7.3-10.7,15.7-13.5,24.9&#10;&#9;&#9;c-2.2,7.3-3.3,14.7-2.1,22.4c1.1,7.5,4.2,14.1,10.1,19c8.7,7.1,18.9,9.6,29.8,8.8c12.2-0.9,20.4-7.8,25.5-18.5&#10;&#9;&#9;C1067.4,722.8,1068.8,714.3,1068.8,705.5z M938.3,715.3c0.1,1.9,0.2,3.7,0.4,5.6c1.5,10.8,6.8,18.9,16.7,23.9&#10;&#9;&#9;c6.8,3.4,13.9,5,21.5,4.8c9-0.2,16.4-3.8,22.2-10.6c1.5-1.7,1.5-2.4,0.4-4.4c-2.8-5-4.3-10.4-4.6-16c-0.4-7.4,0.8-14.6,3.1-21.7&#10;&#9;&#9;c1.5-4.8,3.6-9.3,6-13.6c0.9-1.6,1-3.2,0.2-4.9c-1.7-3.8-3.9-7.3-6.6-10.4c-6.4-7.2-15.2-10.1-24.6-6.8c-5.6,1.9-10.4,5.3-14.6,9.4&#10;&#9;&#9;c-6.8,6.6-11.9,14.5-15.4,23.3C940.1,700.6,938.3,707.7,938.3,715.3z M1071.6,706.1c-0.1,1.2-0.1,3.1-0.2,4.9&#10;&#9;&#9;c-0.7,10.1-3.4,19.6-9.4,28c-0.9,1.2-0.8,1.9,0.3,3c2.3,2.2,4.9,4,7.8,5.2c9.6,3.9,19.5,3.8,29.3,0.8c9.2-2.8,15.5-8.9,19-17.8&#10;&#9;&#9;c2.4-6.2,3.2-12.6,2.8-19.1c-0.8-12.8-4.7-24.5-11.9-35.1c-3.6-5.3-8-10-13.8-13.1c-6.1-3.3-12.4-4.1-19-1.5c-5,2-8.8,5.4-12.1,9.5&#10;&#9;&#9;c-0.8,1-0.7,2.1-0.1,3.2C1069.4,683.8,1071.5,694.4,1071.6,706.1z M895.4,707.3c0.1,1.2,0.1,3.2,0.3,5.1c0.7,7.5,2.4,14.7,6.2,21.3&#10;&#9;&#9;c4.2,7.3,10.2,12.4,18.4,14.6c9.4,2.5,18.4,1,27.3-2.5c1.6-0.6,1.6-1.3,0.3-2.5c-1.5-1.4-3.1-2.8-4.4-4.4&#10;&#9;&#9;c-6.2-7.4-8.2-16.1-7.8-25.5c0.5-10.4,3.6-20.1,8.6-29.1c1.7-3,3.7-5.8,5.5-8.7c0.8-1.2,0.8-2-0.1-3c-4.3-4.9-9.2-9-15.3-11.5&#10;&#9;&#9;c-8.1-3.3-15.7-2.3-22.6,3.2c-4,3.2-7,7.3-9.3,11.8C897.5,685.8,895.4,696,895.4,707.3z" style="fill: rgb(247, 171, 0);"/>
	<path class="st2" d="M1068.8,705.5c0,8.8-1.4,17.3-5.3,25.3c-5.2,10.7-13.3,17.6-25.5,18.5c-11,0.8-21.2-1.7-29.8-8.8&#10;&#9;&#9;c-6-4.9-9-11.5-10.1-19c-1.1-7.6-0.1-15.1,2.1-22.4c2.8-9.2,7.3-17.5,13.5-24.9c4.8-5.7,10.4-10.5,17.5-13.1&#10;&#9;&#9;c9-3.3,16.9-1.6,23.8,5.1c4.7,4.6,7.7,10.1,9.9,16.2C1067.6,689.9,1068.8,697.6,1068.8,705.5z" style="fill: rgb(255, 255, 255);"/>
	<path class="st2" d="M938.3,715.3c0-7.5,1.8-14.7,4.6-21.6c3.6-8.8,8.6-16.7,15.4-23.3c4.2-4.1,8.9-7.4,14.6-9.4&#10;&#9;&#9;c9.4-3.2,18.2-0.4,24.6,6.8c2.8,3.1,4.9,6.6,6.6,10.4c0.8,1.7,0.7,3.3-0.2,4.9c-2.5,4.3-4.5,8.9-6,13.6c-2.3,7.1-3.5,14.3-3.1,21.7&#10;&#9;&#9;c0.3,5.7,1.8,11.1,4.6,16c1.1,2,1.1,2.7-0.4,4.4c-5.8,6.8-13.3,10.4-22.2,10.6c-7.6,0.2-14.7-1.4-21.5-4.8&#10;&#9;&#9;c-9.9-4.9-15.2-13-16.7-23.9C938.4,719,938.4,717.2,938.3,715.3z" style="fill: rgb(255, 255, 255);"/>
	<path class="st2" d="M1071.6,706.1c-0.1-11.7-2.2-22.3-7.3-32.2c-0.6-1.1-0.6-2.2,0.1-3.2c3.3-4.1,7.1-7.5,12.1-9.5&#10;&#9;&#9;c6.6-2.6,12.9-1.8,19,1.5c5.7,3.1,10.1,7.8,13.8,13.1c7.2,10.6,11.1,22.3,11.9,35.1c0.4,6.6-0.4,13-2.8,19.1c-3.5,9-9.8,15-19,17.8&#10;&#9;&#9;c-9.8,3-19.6,3.1-29.3-0.8c-2.9-1.2-5.5-3-7.8-5.2c-1.1-1-1.2-1.7-0.3-3c6-8.4,8.7-17.8,9.4-28&#10;&#9;&#9;C1071.5,709.2,1071.5,707.3,1071.6,706.1z" style="fill: rgb(255, 255, 255);"/>
	<path class="st2" d="M895.4,707.3c0.1-11.4,2.2-21.5,7.1-31.1c2.3-4.5,5.3-8.6,9.3-11.8c6.9-5.5,14.5-6.5,22.6-3.2&#10;&#9;&#9;c6.1,2.5,11,6.5,15.3,11.5c0.9,1,0.8,1.8,0.1,3c-1.9,2.9-3.8,5.7-5.5,8.7c-5.1,9-8.2,18.7-8.6,29.1c-0.4,9.4,1.6,18.1,7.8,25.5&#10;&#9;&#9;c1.3,1.6,2.9,2.9,4.4,4.4c1.2,1.2,1.2,1.8-0.3,2.5c-8.8,3.5-17.9,5-27.3,2.5c-8.2-2.2-14.2-7.3-18.4-14.6&#10;&#9;&#9;c-3.8-6.6-5.5-13.8-6.2-21.3C895.5,710.5,895.4,708.6,895.4,707.3z" style="fill: rgb(255, 255, 255);"/>
</g>
<g>
	<g>
		<g>
			<g>
				<path class="st3" d="M933.1,726.2c0.2-2.1,0.1-4.2,0-6.4c0-2.4,0.9-3,3.1-2c2.2,1,2.2,1.1,1.9,3.4c-0.3,3.5-0.7,7-1,10.5&#10;&#9;&#9;&#9;&#9;&#9;c-0.2,2.6,0.4,5.2,0.9,7.8c0.1,0.4,0.1,0.9,0.6,0.9c0.5,0,0.5-0.5,0.6-0.9c1.1-5.1,1.7-10.2,0.9-15.5c-0.5-3.7-1.1-7.5-1.7-11.2&#10;&#9;&#9;&#9;&#9;&#9;c-0.1-0.5-0.1-1.1-0.1-1.6c0-0.7,0.3-1.2,1.1-1.4c0.7-0.1,1.3,0.3,1.5,0.9c0.2,0.7,0.3,1.4,0.4,2.1c0.2,1.1,0.4,2.2,0.6,3.3&#10;&#9;&#9;&#9;&#9;&#9;c0.1,0.3,0.1,0.6,0.5,0.6c0.4,0,0.4-0.4,0.5-0.6c0.3-1.6,0.6-3.3,0.9-4.9c0.3-1.4,0.5-2.9,0.7-4.3c0.1-0.4,0.1-0.8,0.2-1.2&#10;&#9;&#9;&#9;&#9;&#9;c0.2-0.8,0.6-1.5,1.6-1.4c1,0.1,1.2,0.9,1.1,1.7c-0.2,1.8-0.5,3.5-0.7,5.3c-0.2,1.7-0.5,3.4-0.7,5.1c0,0.3-0.2,0.9,0.1,0.9&#10;&#9;&#9;&#9;&#9;&#9;c0.4,0.1,0.4-0.5,0.5-0.8c0.4-1.5,0.7-3,1.1-4.4c0.1-0.4,0.2-0.9,0.4-1.3c0.3-0.8,0.9-1.3,1.8-1.1c0.9,0.2,1,1,0.9,1.8&#10;&#9;&#9;&#9;&#9;&#9;c-0.1,0.6-0.2,1.1-0.3,1.7c-0.3,1.5-0.6,3-0.9,4.5c-0.1,0.6-0.1,1.3,0.5,1.6c1.1,0.6,1.4,1.6,1.6,2.7c0.6,3.4,1.2,6.9,1.8,10.3&#10;&#9;&#9;&#9;&#9;&#9;c0.1,0.7,0.3,1.3,0.4,2c0.1,0.3,0.1,0.7,0.5,0.7c0.4,0,0.5-0.4,0.5-0.7c0.4-1.7,0.6-3.4,0.6-5.1c0.1-2.4-0.4-4.8-1-7.1&#10;&#9;&#9;&#9;&#9;&#9;c-0.4-1.5-0.1-2.3,0.9-2.6c1.3-0.4,2.8,0.1,3.3,1.3c0.1,0.3,0.1,0.8,0.6,0.8c0.5,0,0.6-0.5,0.7-0.8c1-2.9,1.9-5.8,2.8-8.7&#10;&#9;&#9;&#9;&#9;&#9;c0.2-0.6,0.3-1.2,0.7-1.7c0.4-0.6,0.9-0.7,1.6-0.5c0.6,0.2,0.8,0.7,0.8,1.3c0,0.5-0.1,0.9-0.3,1.3c-0.4,1.3-0.8,2.5-1.1,3.8&#10;&#9;&#9;&#9;&#9;&#9;c-0.4,1.3-0.2,1.5,1,1.8c0.7,0.2,1.1,0.8,1.3,1.4c0.3,0.9,0.5,1.8,0.8,2.7c0.1,0.3,0.1,0.9,0.6,0.9c0.5,0,0.6-0.6,0.6-1&#10;&#9;&#9;&#9;&#9;&#9;c0.3-1.6,0.5-3.1,0.8-4.7c0.1-0.4,0.1-0.8,0.3-1.2c0.3-0.8,0.9-1.2,1.8-1c1.3,0.3,1.5,0.2,1.9-1.1c0.3-0.9,0.5-1.8,0.8-2.6&#10;&#9;&#9;&#9;&#9;&#9;c0.1-0.4,0.3-0.9,0.5-1.3c0.4-0.5,0.8-0.6,1.4-0.5c0.6,0.2,0.9,0.6,0.9,1.2c0,0.5-0.1,1-0.2,1.6c-1.8,6.7-3.8,13.4-5.4,20.2&#10;&#9;&#9;&#9;&#9;&#9;c-0.3,1.1-0.4,2.2-0.3,3.3c0.1,0.9,0.4,1,1.3,0.7c1.2-0.5,1.7-1.4,2.1-2.6c1.1-4.2,2-8.4,3.2-12.5c0.1-0.2,0.1-0.5,0.2-0.7&#10;&#9;&#9;&#9;&#9;&#9;c0.5-1.3,1.7-1.6,2.6-0.6c0.5,0.5,0.8,0.5,1.2,0c0.4-0.5,0.9-0.7,1.5-0.7c0.9,0,1.2-0.5,1.1-1.3c-0.1-0.7-0.2-1.3-0.3-2&#10;&#9;&#9;&#9;&#9;&#9;c-1-4.6-2-9.2-3-13.8c-0.1-0.4-0.2-0.9-0.2-1.4c0-0.7,0.4-1.1,1.1-1.3c0.7-0.2,1.2,0.1,1.4,0.8c0.2,0.6,0.4,1.2,0.5,1.8&#10;&#9;&#9;&#9;&#9;&#9;c1.1,4.9,2,9.8,3.4,14.7c0,0.1,0.1,0.3,0.1,0.4c0.1,0.2,0.1,0.6,0.5,0.6c0.4,0,0.3-0.4,0.3-0.7c0-1.7,0-3.3,0-5&#10;&#9;&#9;&#9;&#9;&#9;c0-0.4,0-0.9,0.1-1.3c0.1-0.8,0.5-1.4,1.3-1.4c0.9,0,1.2,0.6,1.3,1.4c0,0.2,0,0.4,0,0.6c0,4.4,0.4,8.8,0.2,13.1&#10;&#9;&#9;&#9;&#9;&#9;c0,0.5,0,1.1,0.1,1.6c0.1,0.7,0.5,1.1,1.3,1.2c1.7,0.2,2.1,0.9,1.5,2.4c-1.5,3.3-1.6,6.8-1.4,10.4c0,0.7,0.1,1.5,0.1,2.2&#10;&#9;&#9;&#9;&#9;&#9;c0,0.2,0,0.4,0.3,0.4c0.2,0,0.3-0.1,0.4-0.3c0.1-0.5,0.3-1,0.4-1.5c1.1-5.2,1.8-10.4,2.8-15.7c0.4-2.2,0.8-4.3,1.2-6.5&#10;&#9;&#9;&#9;&#9;&#9;c0.2-1.2,0.9-1.8,1.7-1.6c0.8,0.2,1.3,0.9,1,2c-0.8,2.7,0.7,5.3,0.3,7.9c-0.1,0.6,0.3,0.8,0.9,0.6c0.7-0.3,1.3-0.2,1.9,0.2&#10;&#9;&#9;&#9;&#9;&#9;c0.6,0.4,0.9,0.1,1.2-0.4c0.4-0.7,0.9-1.3,1.5-1.9c0.6-0.5,0.7-1.2,0.6-1.8c-0.3-3.3,0-6.6-0.3-9.8c-0.1-1-0.1-2.1,0-3.2&#10;&#9;&#9;&#9;&#9;&#9;c0.1-0.8,0.5-1.5,1.4-1.4c0.8,0.1,1.2,0.7,1.2,1.5c0.1,2,0.2,4,0.2,6c0,1,0.3,1.8,1.4,2.2c1,0.3,1.1,1.1,1,2.1&#10;&#9;&#9;&#9;&#9;&#9;c-0.4,2.5-0.6,5-1.1,7.4c-0.3,1.8,0.5,3.2,1.2,4.6c0.3,0.6,0.7,0.2,1-0.1c0.6-0.9,0.8-1.9,1.1-3c1.7-6.3,2.4-12.8,3.5-19.2&#10;&#9;&#9;&#9;&#9;&#9;c0.1-0.3,0.1-0.6,0.3-0.9c0.3-0.6,0.8-0.9,1.5-0.7c0.6,0.1,0.9,0.6,1,1.2c0.1,1-0.2,1.9-0.3,2.8c-0.5,3.6-1.1,7.2-1.7,10.8&#10;&#9;&#9;&#9;&#9;&#9;c-0.2,1.1-0.1,1.9,1.1,2.4c0.8,0.3,0.9,1,0.9,1.8c-0.2,2.2-0.5,4.5-0.8,6.7c-0.3,2.5-0.6,4.9-0.9,7.4c-0.1,0.6-0.1,1.1-0.1,1.7&#10;&#9;&#9;&#9;&#9;&#9;c0,0.2,0,0.5,0.3,0.6c0.3,0.1,0.5-0.1,0.7-0.4c0.6-0.9,1-1.9,1.4-2.9c1.3-3.8,2.1-7.6,2.8-11.5c0.2-1.1,0.5-2.1,1.2-3&#10;&#9;&#9;&#9;&#9;&#9;c0.4-0.5,0.5-1.1,0.6-1.8c0.3-4.5,0.6-8.9,1-13.4c0-0.5,0.1-0.9,0.2-1.4c0.2-0.7,0.7-1.2,1.5-1.1c0.8,0.1,1.1,0.7,1.1,1.4&#10;&#9;&#9;&#9;&#9;&#9;c-0.1,1.8-0.2,3.5-0.3,5.3c-0.1,1.9-0.2,3.7-0.3,5.6c0,0.4-0.2,1,0.4,1.1c0.5,0.1,0.6-0.4,0.8-0.8c0.9-1.9,1.7-3.8,2.6-5.7&#10;&#9;&#9;&#9;&#9;&#9;c0.6-1.4,1.3-1.9,2.1-1.5c0.9,0.4,1,1.2,0.4,2.7c-1,2.2-1.9,4.5-2.9,6.7c-0.4,1-0.7,2-0.6,3.2c0.1,1-0.1,2-0.2,3.1&#10;&#9;&#9;&#9;&#9;&#9;c0,0.6-0.1,1.2-0.1,1.8c0,0.4-0.2,1,0.3,1.1c0.6,0.2,0.7-0.5,1-0.8c0.9-1.2,1.4-2.6,1.8-4c1.5-4.8,3-9.6,4.5-14.5&#10;&#9;&#9;&#9;&#9;&#9;c0.2-0.5,0.4-1.1,0.6-1.6c0.3-0.6,0.9-0.8,1.5-0.6c0.6,0.2,0.9,0.8,0.9,1.4c-0.1,0.5-0.2,1-0.3,1.4c-1.1,3.5-2.2,7.1-3.3,10.6&#10;&#9;&#9;&#9;&#9;&#9;c-0.2,0.5-0.6,1.2-0.1,1.6c0.5,0.4,1-0.4,1.4-0.7c0.8-0.5,1.3-1.3,1.8-2.1c2.5-3.7,4.9-7.5,7.4-11.2c0.2-0.4,0.5-0.7,0.8-1&#10;&#9;&#9;&#9;&#9;&#9;c0.5-0.5,1.1-0.6,1.6-0.2c0.6,0.4,0.8,0.9,0.6,1.6c-0.2,0.5-0.4,0.9-0.7,1.3c-2.4,3.7-4.9,7.4-7.3,11.1c-2,3.1-1.6,6.3,0,9.4&#10;&#9;&#9;&#9;&#9;&#9;c0.5,0.9,1.8,1,2.8,0.2c2.2-1.9,4.2-4,4.1-7.2c0-1,0-1.9-0.1-2.9c-0.1-1,0.2-1.8,1.1-2.2c0.9-0.5,1.2-1.2,1.4-2.1&#10;&#9;&#9;&#9;&#9;&#9;c0.5-3.1,1-6.1,1.5-9.2c0.1-0.5,0.2-1,0.4-1.4c0.2-0.6,0.8-0.9,1.4-0.8c0.6,0.1,1,0.5,1,1.2c0,0.4,0,0.8-0.1,1.3&#10;&#9;&#9;&#9;&#9;&#9;c-0.6,3.8-1.2,7.6-1.9,11.4c-0.2,1.3-0.3,2.4,0.9,3.4c0.8,0.6,0.5,1.5,0,2.2c-0.5,0.7-1.1,1.5-1.4,2.4c-0.1,0.3-0.2,0.7,0.2,1&#10;&#9;&#9;&#9;&#9;&#9;c0.4,0.2,0.6-0.2,0.8-0.4c2.7-2.9,4.6-6.1,4.3-10.2c-0.1-1.1,0-2.1,0.1-3.2c0.1-1.3,0.7-1.8,1.8-1.8c1.2,0,2.2,0.8,2.3,2&#10;&#9;&#9;&#9;&#9;&#9;c0,0.4,0,0.8-0.1,1.3c-0.2,1.2-0.2,2.4,0.6,3.4c0.4,0.5,0.5,1.1,0.1,1.6c-1.9,2.9-1.6,6.3-1.8,9.5c-0.1,0.8,0,1.7,0,2.5&#10;&#9;&#9;&#9;&#9;&#9;c0,0.5-0.1,1.1,0.5,1.3c0.5,0.2,0.8-0.3,1.2-0.6c0.9-0.9,1.8-1.8,2.6-2.8c0.8-0.9,1.6-1.3,2.8-1c1.4,0.4,3-0.7,3.4-2.3&#10;&#9;&#9;&#9;&#9;&#9;c0.6-2.1,1.1-4.2,1.5-6.4c0.5-2.9,1-5.9,1.4-8.9c0.1-0.8,0.5-1.4,1.4-1.4c1,0,1.3,0.7,1.3,1.5c0,1.3,0.1,2.5,0.4,3.8&#10;&#9;&#9;&#9;&#9;&#9;c0.1,0.3,0.1,0.6,0.4,0.6c0.3,0,0.4-0.2,0.6-0.4c0.2-0.2,0.3-0.5,0.5-0.7c0.4-0.6,1-0.8,1.7-0.5c0.7,0.3,0.9,0.9,0.8,1.6&#10;&#9;&#9;&#9;&#9;&#9;c-0.2,0.9,0.1,1.4,1,1.7c1.5,0.6,1.9,1.6,1.1,3c-1.7,3.2-2.8,6.6-4.1,10c-0.2,0.5-0.7,1.3-0.1,1.7c0.7,0.5,1.6,0.8,2.5,0.6&#10;&#9;&#9;&#9;&#9;&#9;c0.7-0.2,0.7-0.9,0.9-1.5c1-3.5,1.9-7.1,2.9-10.6c0.1-0.3,0.2-0.7,0.3-1c0.4-1.2,1-1.6,2.2-1.3c0.9,0.2,1.3-0.1,1.6-0.9&#10;&#9;&#9;&#9;&#9;&#9;c0.3-1,0.6-2,0.9-3c0.2-0.5,0.3-1,0.6-1.5c0.3-0.5,0.8-0.7,1.4-0.6c0.6,0.1,0.9,0.5,1,1.1c0.1,0.7-0.1,1.4-0.3,2.1&#10;&#9;&#9;&#9;&#9;&#9;c-1.5,5.4-3.1,10.8-4.6,16.2c-0.1,0.3-0.2,0.5-0.2,0.8c0,0.6-0.7,1.4,0,1.7c0.5,0.2,1-0.6,1.4-1.1c1.2-1.6,2.1-3.4,3-5.2&#10;&#9;&#9;&#9;&#9;&#9;c3.1-6.4,6.2-12.8,9.3-19.1c0.2-0.4,0.4-0.8,0.6-1.2c0.4-0.6,0.9-1,1.7-0.7c0.8,0.3,0.9,1,0.7,1.8c-0.2,0.7-0.5,1.4-0.9,2&#10;&#9;&#9;&#9;&#9;&#9;c-1.8,3.7-3.6,7.4-5.4,11c-0.4,0.8-0.7,1.6-1,2.4c-0.1,0.2-0.2,0.5,0.1,0.7c0.3,0.2,0.5,0,0.7-0.2c0.1,0,0.1-0.1,0.2-0.1&#10;&#9;&#9;&#9;&#9;&#9;c3.1-3.2,6.4-6.2,9.3-9.5c0.2-0.2,0.4-0.4,0.6-0.6c0.7-0.8,1.5-1,2.4-0.5c0.9,0.5,1.3,1.3,1,2.3c-0.5,1.7-1,3.5-1.3,5.2&#10;&#9;&#9;&#9;&#9;&#9;c-0.1,0.7-0.6,1.6,0.1,2c0.8,0.4,1.2-0.6,1.6-1c3.9-4.3,7.7-8.6,11.6-12.9c0.6-0.7,1.3-1.4,1.9-2.1c0.8-0.8,1.6-1,2.2-0.4&#10;&#9;&#9;&#9;&#9;&#9;c0.6,0.6,0.6,1.3-0.2,2.3c-1.4,1.7-2.9,3.3-4.4,5c-4.3,4.9-8.7,9.8-13,14.7c-0.8,1-1.5,2.1-1.9,3.3c-0.1,0.3-0.3,0.7,0,1&#10;&#9;&#9;&#9;&#9;&#9;c0.4,0.3,0.8,0,1-0.2c0.6-0.5,1.2-1,1.7-1.5c5.8-5.8,11.6-11.6,17.4-17.4c0.5-0.5,1.1-1,1.6-1.5c1.1-0.9,2.2-0.5,2.5,0.9&#10;&#9;&#9;&#9;&#9;&#9;c0.2,1.1,0.5,0.9,1.1,0.4c0.4-0.3,0.7-0.7,1.1-1c0.6-0.6,1.3-0.8,2-0.2c0.7,0.6,0.6,1.3,0.1,1.9c-1.1,1.5-2.3,2.9-3.5,4.4&#10;&#9;&#9;&#9;&#9;&#9;c-0.6,0.8-1.3,1.5-1.8,2.4c-0.3,0.6-0.4,0.9,0.5,1.1c1.5,0.3,1.9,1.3,1,2.6c-0.4,0.6-0.6,1.2-0.4,1.9c0.3,1-0.2,1.7-0.7,2.4&#10;&#9;&#9;&#9;&#9;&#9;c-1.2,1.6-2.5,3.3-3.6,5c-0.2,0.3-0.6,0.6-0.3,0.9c0.3,0.3,0.6-0.1,0.9-0.3c2.3-1.4,4.4-3.2,6.3-5.2c2.4-2.6,5-5,7.6-7.4&#10;&#9;&#9;&#9;&#9;&#9;c0.2-0.2,0.4-0.4,0.7-0.5c0.6-0.3,1.2-0.3,1.7,0.2c0.5,0.5,0.5,1.1,0.1,1.7c-0.4,0.5-0.8,0.9-1.2,1.3c-2.7,2.7-5.6,5.2-8,8&#10;&#9;&#9;&#9;&#9;&#9;c-4.1,4.6-8.8,8.6-13.2,12.9c-3.3,3.2-6.3,6.8-9.7,9.9c-1.1,1-2.2,2-3.3,3c-0.4,0.4-0.9,0.5-1.5,0.2c-0.6-0.3-0.9-0.8-0.7-1.4&#10;&#9;&#9;&#9;&#9;&#9;c0.3-1,0.2-2,0-3c-0.1-0.6,0.1-1.2,0.5-1.6c3-3.3,5.9-6.8,8.6-10.3c0.1-0.1,0.2-0.1,0.2-0.2c0.2-0.2,0.6-0.5,0.4-0.8&#10;&#9;&#9;&#9;&#9;&#9;c-0.2-0.2-0.5,0.3-0.7,0.5c-4.4,4.8-8.5,9.9-12.7,14.9c-0.3,0.4-0.6,0.8-1,1.1c-0.9,0.9-2,0.6-2.4-0.6c-0.2-0.5-0.1-1.4-0.8-1.5&#10;&#9;&#9;&#9;&#9;&#9;c-0.8-0.1-0.9,0.8-1.3,1.2c-0.2,0.3-0.4,0.6-0.6,0.8c-0.5,0.5-1.1,0.5-1.7,0.2c-0.6-0.3-0.8-0.9-0.5-1.6&#10;&#9;&#9;&#9;&#9;&#9;c0.4-0.8,0.8-1.6,1.3-2.4c1-1.8,2-3.5,2.9-5.3c0.3-0.6,0.6-1.3,0.8-1.9c0.1-0.3,0.3-0.7,0-0.9c-0.3-0.2-0.6,0.1-0.8,0.3&#10;&#9;&#9;&#9;&#9;&#9;c-2.2,1.7-3.8,3.9-4.8,6.4c-0.3,0.7-0.5,1.4-0.8,2.1c-0.6,1.1-1.5,1.4-2.4,0.5c-0.9-0.8-1.5-0.5-2.3,0.1&#10;&#9;&#9;&#9;&#9;&#9;c-1.2,1.1-2.4,2.1-3.6,3.1c-0.7,0.6-1.4,0.9-2.2,0.2c-0.7-0.6-0.5-1.5,0.3-2.3c0.9-0.8,1.8-1.6,2.7-2.4c0.6-0.5,0.8-1.1,0.5-1.9&#10;&#9;&#9;&#9;&#9;&#9;c-0.5-1.1-0.2-1.9,0.6-2.7c2.1-2,4-4.2,5.9-6.4c2.4-2.8,4-6,5.2-9.4c0.2-0.6,0.4-1.1,0.7-1.7c0.5-0.9,1.4-1.1,2.2-0.4&#10;&#9;&#9;&#9;&#9;&#9;c1.1,0.8,1.3,0.8,2.2-0.2c0.5-0.6,0.9-1.3,1.3-2c1.2-2.5,1.7-5.2,2.2-7.8c0.1-0.4,0.2-0.8-0.2-1.1c-0.4-0.2-0.7,0.2-1,0.4&#10;&#9;&#9;&#9;&#9;&#9;c-0.1,0.1-0.2,0.2-0.3,0.3c-3.8,4-7.7,7.9-11.5,11.9c-0.3,0.3-0.6,0.7-0.8,1.1c-0.4,0.6-0.3,1.1,0.4,1.5&#10;&#9;&#9;&#9;&#9;&#9;c1.2,0.7,1.4,1.4,0.5,2.6c-1.8,2.6-3.7,5.1-5.3,7.8c-1.9,3.2-4.3,6-6.1,9.3c-0.7,1.2-1.8,1.5-3,0.7c-0.6-0.4-1.3-0.7-2.1-0.7&#10;&#9;&#9;&#9;&#9;&#9;c-0.9,0-1.4-0.6-1.5-1.5c-0.2-1.1-0.5-1.3-1.3-0.5c-2.4,2.1-4.7,4.4-7.1,6.5c-0.3,0.2-0.5,0.5-0.8,0.6c-0.6,0.3-1.1,0.1-1.5-0.3&#10;&#9;&#9;&#9;&#9;&#9;c-0.4-0.4-0.5-0.9-0.2-1.5c0.3-0.6,0.8-1,1.2-1.5c0.5-0.5,0.7-1.1,0.4-1.8c-0.4-0.8-0.1-1.6,0.2-2.4c0.8-2.1,1.7-4.2,2.5-6.3&#10;&#9;&#9;&#9;&#9;&#9;c0.2-0.4,0.3-0.8,0.4-1.2c0.1-0.7-0.1-1.2-0.8-1.5c-0.7-0.3-1.2-0.1-1.5,0.5c-0.5,0.9-1,1.9-1.5,2.8c-1.1,2.3-2.1,4.5-3.2,6.8&#10;&#9;&#9;&#9;&#9;&#9;c-0.2,0.3-0.3,0.6-0.5,0.9c-0.4,0.5-0.9,0.9-1.6,0.7c-0.7-0.3-0.9-0.8-1-1.5c0-0.4,0.4-1-0.2-1.2c-0.6-0.2-1,0.3-1.3,0.7&#10;&#9;&#9;&#9;&#9;&#9;c-0.7,1.1-1.4,2.2-2,3.3c-0.2,0.4-0.4,0.7-0.7,1.1c-0.5,0.6-1.1,1-1.8,0.5c-0.7-0.5-0.8-1.1-0.5-1.9c0.5-1,1.1-2.1,1.7-3.1&#10;&#9;&#9;&#9;&#9;&#9;c0.8-1.4,1.6-2.7,2.1-4.3c0.5-1.4,0.3-1.7-1-2.2c-0.3-0.1-0.6-0.2-0.9-0.4c-0.8-0.6-1.5-0.6-2.2,0c-0.3,0.3-0.8,0.4-1.2,0.4&#10;&#9;&#9;&#9;&#9;&#9;c-1.1,0-1.6,0.7-1.9,1.6c-0.9,2.4-1.7,4.7-2.4,7.1c-0.2,0.5-0.3,1.1-0.6,1.6c-0.4,0.9-1.1,1.2-2,1c-0.9-0.2-1.4-0.8-1.4-1.7&#10;&#9;&#9;&#9;&#9;&#9;c0-0.5,0.1-0.9,0.2-1.4c0.3-1.6,0.7-3.1,1-4.7c0.4-1.7,0.1-3.5-0.4-5.1c-0.4-1.2-1.1-1.4-1.9-0.4c-0.8,0.9-1.6,1.9-2.3,2.9&#10;&#9;&#9;&#9;&#9;&#9;c-0.8,1.2-1,2.5-0.8,3.9c0.1,0.4,0.2,0.8,0.2,1.3c0.1,1.3-0.5,2-1.8,1.7c-1-0.2-1.5,0.2-1.8,1c-0.4,1-0.7,1.9-1.1,2.9&#10;&#9;&#9;&#9;&#9;&#9;c-0.3,0.8-0.9,1.4-1.8,1c-0.9-0.3-1-1.1-0.7-1.9c0.1-0.4,0.2-0.8,0.4-1.2c1.2-2.6,1.6-5.4,2.1-8.2c0.3-1.7,0.1-2.2-1.4-3&#10;&#9;&#9;&#9;&#9;&#9;c-0.9-0.5-1.2-1.3-0.6-2.2c1.6-2.4,0.6-4.7,0-7c-0.1-0.3-0.2-0.6-0.6-0.6c-0.4,0-0.5,0.3-0.7,0.6c-0.9,1.6-1.5,3.3-2.1,5&#10;&#9;&#9;&#9;&#9;&#9;c-0.9,3-1.6,6.2-2.1,9.3c-0.1,1-0.4,1.8-1.1,2.6c-0.4,0.5-0.6,1.1-0.9,1.7c-0.5,1-1.2,1.4-2.2,1.2c-1-0.3-1.5-1.1-1.3-2.2&#10;&#9;&#9;&#9;&#9;&#9;c0.1-0.9,0.4-1.8,0.5-2.7c0.1-0.3,0.2-0.7-0.2-0.8c-0.4-0.1-0.5,0.3-0.7,0.5c-0.8,1-1.4,2.2-2,3.3c-0.5,0.9-1,1.7-2.3,1.5&#10;&#9;&#9;&#9;&#9;&#9;c-1-0.2-1.6-0.9-1.8-2.3c0-0.2,0-0.5-0.3-0.6c-0.3-0.1-0.5,0.2-0.6,0.5c-0.9,1.8-0.9,1.8-2.8,1.4c-0.5-0.1-0.7,0.2-0.9,0.5&#10;&#9;&#9;&#9;&#9;&#9;c-0.3,0.6-0.5,1.3-0.7,1.9c-0.3,0.6-0.7,1-1.4,0.9c-0.7-0.1-1.1-0.5-1.2-1.1c-0.4-2.3-1-4.5-0.8-6.9c0.1-2,0.1-4.1,0-6.1&#10;&#9;&#9;&#9;&#9;&#9;c0-0.4,0.1-1.2-0.4-1.3c-0.5,0-0.5,0.8-0.6,1.2c-0.5,2.1-0.5,4.3-0.6,6.4c-0.1,1.3-0.1,2.6-0.2,3.9c0,0.8-0.4,1.3-1.2,1.4&#10;&#9;&#9;&#9;&#9;&#9;c-0.8,0.1-1.2-0.4-1.4-1c-0.2-0.7-0.6-1.3-1.1-1.9c-0.6-0.6-0.8-1.4-0.8-2.3c-0.1-1.4-0.3-2.7-0.9-3.9c-0.4-0.6-0.3-1.4-0.3-2.1&#10;&#9;&#9;&#9;&#9;&#9;c0.1-1.2-0.1-2.5-0.4-3.7c-0.1-0.4-0.2-0.8-0.6-0.9c-0.5,0-0.6,0.4-0.7,0.8c-0.8,1.8-1.1,3.8-1.4,5.8c-0.2,2.1-0.4,4.3-0.7,6.4&#10;&#9;&#9;&#9;&#9;&#9;c0,0.4-0.1,0.8-0.2,1.1c-0.2,0.7-0.6,1.1-1.3,1c-0.7,0-1.2-0.4-1.3-1.2c-0.1-0.4-0.1-0.8-0.1-1.2c0-0.3,0-0.6-0.3-0.7&#10;&#9;&#9;&#9;&#9;&#9;c-0.4-0.1-0.6,0.3-0.7,0.5c-0.7,1.6-1.3,3.3-1.4,5.1c0,0.6,0,1.2,0,1.8c0,0.9-0.4,1.6-1.3,1.6c-1,0-1.4-0.7-1.4-1.6&#10;&#9;&#9;&#9;&#9;&#9;c0-1.9-0.2-3.9-0.4-5.8c-0.6-4.4-0.1-8.8-0.5-13.2c0-0.5,0.2-1.3-0.5-1.3c-0.5-0.1-0.6,0.7-0.7,1.2c-1.2,3.5-1.4,7.3-1.9,10.9&#10;&#9;&#9;&#9;&#9;&#9;c-0.2,1.6-0.4,3.2-0.6,4.7c-0.1,0.4-0.1,0.8-0.2,1.1c-0.2,0.7-0.7,1.1-1.4,1c-0.7-0.1-1.1-0.6-1.1-1.3c0-0.6,0-1.1,0.1-1.7&#10;&#9;&#9;&#9;&#9;&#9;c0.1-0.6,0.2-1.2,0.3-1.8c0.3-2.3-0.4-3-2.7-2.6c-0.6,0.1-0.8,0.6-0.8,1.1c-0.3,1.5-0.5,3.1-0.8,4.6c-0.1,0.4-0.2,0.9-0.3,1.3&#10;&#9;&#9;&#9;&#9;&#9;c-0.3,0.6-0.7,1-1.5,0.9c-0.7-0.2-1.1-0.7-1-1.4c0-0.5,0.1-0.9,0.2-1.4c1.4-8.4,3-16.8,4.1-25.2c0.2-1.4,0.3-2.9,0.5-4.3&#10;&#9;&#9;&#9;&#9;&#9;c0-0.2,0.1-0.5-0.1-0.6c-0.3-0.1-0.4,0.3-0.4,0.5c-0.7,2.4-1.4,4.8-2.1,7.2c-1.2,4.6-2.4,9.2-3.6,13.8c-0.1,0.4-0.2,0.8-0.4,1.2&#10;&#9;&#9;&#9;&#9;&#9;c-0.4,0.8-1.1,1.2-2,1c-0.9-0.2-1.5-0.7-1.5-1.7c0-0.6,0.1-1.2,0.2-1.8c0-0.2,0.1-0.6-0.2-0.6c-0.2,0-0.3,0.2-0.4,0.4&#10;&#9;&#9;&#9;&#9;&#9;c-0.8,1.6-1.4,3.3-1.1,5.2c0.3,2.2,1.2,4.3,1.7,6.4c0.1,0.4,0.2,0.8,0.2,1.2c0.1,0.7-0.2,1.2-0.9,1.4c-0.7,0.2-1.3-0.1-1.6-0.7&#10;&#9;&#9;&#9;&#9;&#9;c-0.3-0.5-0.4-1.1-0.6-1.7c-0.4-1.1-0.7-2.3-1.1-3.4c-0.2-0.5-0.5-0.9-1.1-0.9c-0.6,0-0.8,0.4-0.9,0.9c-0.2,0.7-0.5,1.5-0.7,2.2&#10;&#9;&#9;&#9;&#9;&#9;c-0.2,0.8-0.5,1.5-1.2,2c-0.6,0.5-0.8,1.3-1,2.1c-0.2,0.9-0.5,1.6-1.6,1.5c-1.1-0.2-1.2-1-1.1-1.8c0.1-1.6,0.3-3.2,0.5-4.8&#10;&#9;&#9;&#9;&#9;&#9;c0-0.2,0.1-0.5,0.1-0.7c0-0.3,0.2-0.8-0.2-0.9c-0.4-0.1-0.5,0.4-0.6,0.7c-0.3,0.8-0.6,1.7-1,2.6c-0.5,1.4-1.2,1.9-2.3,1.7&#10;&#9;&#9;&#9;&#9;&#9;c-1.1-0.2-1.5-0.8-1.6-2.3c-0.1-1.8-0.2-3.6-0.1-5.4c0-0.8-0.1-1.6-0.2-2.4c0-0.2-0.1-0.5-0.4-0.5c-0.2,0-0.4,0.2-0.4,0.4&#10;&#9;&#9;&#9;&#9;&#9;c-0.3,0.8-0.5,1.5-0.8,2.3c-0.5,1.5-1,1.8-2.5,1.3c-0.6-0.2-1,0-1.3,0.4c-0.4,0.6-0.6,1.2-0.7,1.9c-0.2,0.8-0.6,1.4-1.5,1.3&#10;&#9;&#9;&#9;&#9;&#9;c-1-0.1-1.2-0.8-1.3-1.6c-0.3-2.6,0-5.2,0.4-7.8c0-0.1,0-0.3,0-0.4c0-0.2,0.1-0.5-0.1-0.6c-0.3-0.1-0.2,0.3-0.3,0.5&#10;&#9;&#9;&#9;&#9;&#9;c-0.2,1.3-0.4,2.6-0.6,3.9c-0.3,2.4-0.7,4.7-1,7.1c-0.1,0.7-0.4,1.3-1.2,1.5c-0.8,0.1-1.3-0.4-1.6-1.1c-0.2-0.5-0.3-1.4-0.9-1.4&#10;&#9;&#9;&#9;&#9;&#9;c-0.7,0-0.6,0.9-0.8,1.4c-0.3,0.6-0.6,1-1.2,1.2c-0.7,0.2-1.1,0.7-1.2,1.4c-0.2,0.8-0.5,1.5-1.5,1.4c-0.9-0.1-1.2-0.9-1.2-1.7&#10;&#9;&#9;&#9;&#9;&#9;c0-1.4,0-2.9,0-4.3c0-0.7-0.1-1.4-0.6-2c-0.8-0.7-0.9-1.6-0.8-2.6c0.2-3.2,0.5-6.4,0.7-9.6c0.1-0.9,0.1-1.8-0.1-2.7&#10;&#9;&#9;&#9;&#9;&#9;c-0.1-0.3,0-0.8-0.5-0.8c-0.5,0-0.5,0.5-0.5,0.8c-0.7,4.1-1.3,8.2-1.8,12.3c-0.3,2.5-0.5,4.9-1.3,7.3c-0.2,0.6-0.6,1-1.3,1.1&#10;&#9;&#9;&#9;&#9;&#9;c-0.7,0.1-1.1-0.3-1.3-0.8c-0.3-0.6-0.5-1.3-0.8-2c-0.3-0.6-0.6-0.9-1.3-0.5c-1.2,0.6-2.1,0.2-2.3-1.2c-0.3-1.9-0.4-3.7-0.6-5.6&#10;&#9;&#9;&#9;&#9;&#9;c-0.1-0.6-0.2-1.3-0.3-1.9c-0.1-0.3-0.1-0.7-0.5-0.7c-0.4,0-0.4,0.4-0.5,0.7c-0.3,1.1-0.4,2.2-0.1,3.4c0.2,1.2,0.1,2.2-0.5,3.2&#10;&#9;&#9;&#9;&#9;&#9;c-0.7,1.1-0.8,2.4-1.8,3.3c-0.3,0.3-0.1,0.9,0,1.3c0.2,0.7,0,1.4-0.7,1.7c-0.8,0.3-1.4,0.1-1.8-0.6c-0.3-0.4-0.5-0.8-0.7-1.3&#10;&#9;&#9;&#9;&#9;&#9;c-0.5-1-1.1-1.8-2.3-1.9c-0.6,0-0.9-0.4-1.3-0.9c-0.4-0.5-0.8-0.6-1.5-0.2c-1.4,0.8-2.4,0.2-2.4-1.4c0-0.7,0.1-1.3,0.1-2&#10;&#9;&#9;&#9;&#9;&#9;c0-0.5,0.1-1.1-0.1-1.6c-0.1-0.3-0.3-0.6-0.7-0.5c-0.4,0.1-0.4,0.4-0.4,0.7c0,0.2,0,0.5,0,0.7c0,1-0.5,1.6-1.5,1.6&#10;&#9;&#9;&#9;&#9;&#9;c-1.1,0-1.1,0.6-0.7,1.3c0.4,0.8,0.9,1.6,1.4,2.4c0.4,0.6,0.5,1.3,0,1.9c-0.6,0.6-1.2,0.6-1.9,0.2c-0.5-0.3-1-0.2-1.5,0.1&#10;&#9;&#9;&#9;&#9;&#9;c-1.7,1.1-2.5,0.9-3.6-0.7c-0.4-0.6-0.9-1.3-1.4-1.9c-0.2-0.3-0.5-0.6-0.9-0.5c-0.4,0.1-0.6,0.5-0.7,0.9c0,0.3,0,0.6-0.1,0.8&#10;&#9;&#9;&#9;&#9;&#9;c-0.1,1.3-0.5,1.8-1.8,1.8c-0.5,0-0.9,0-1.3,0.3c-0.8,0.7-1.6,0.6-2.5,0.3c-9.2-3.5-18.5-7-27.7-10.6c-0.4-0.1-0.7-0.3-1-0.6&#10;&#9;&#9;&#9;&#9;&#9;c-0.5-0.4-0.6-1-0.4-1.5c0.2-0.5,0.7-0.8,1.3-0.8c0.7,0,1.3,0.3,1.9,0.6c5.6,2.1,11.1,4.2,16.7,6.3c0.6,0.2,1.5,0.9,1.9,0.2&#10;&#9;&#9;&#9;&#9;&#9;c0.4-0.6-0.6-1.1-1.1-1.6c-3.8-3.3-7.5-6.5-11.3-9.7c-6.9-5.8-13.7-11.7-20.6-17.5c-0.5-0.4-0.9-0.8-1.3-1.3&#10;&#9;&#9;&#9;&#9;&#9;c-0.4-0.5-0.6-1.1-0.1-1.7c0.5-0.6,1.1-0.6,1.7-0.3c1,0.5,1.7,1.3,2.6,2c4.5,3.8,9,7.6,13.5,11.5c0.3,0.3,0.7,0.5,1,0.8&#10;&#9;&#9;&#9;&#9;&#9;c0.6,0.4,1.1,0.4,1.7,0c1.1-0.8,1.6-0.7,2.6,0.2c4.2,3.7,8.3,7.3,12.5,11c0.4,0.3,0.8,0.7,1.3,1c0.2,0.1,0.5,0.3,0.7,0.1&#10;&#9;&#9;&#9;&#9;&#9;c0.3-0.2,0.1-0.5,0-0.8c-1-2.3-2.3-4.3-4.1-6c-3.1-2.7-6.6-4.9-9.9-7.3c-3.2-2.4-6.5-4.7-9.8-7.1c-0.3-0.2-0.7-0.5-1-0.8&#10;&#9;&#9;&#9;&#9;&#9;c-0.5-0.5-0.7-1.1-0.2-1.7c0.4-0.7,1.1-0.7,1.8-0.4c0.5,0.2,1,0.6,1.4,0.9c4.1,2.9,8.2,5.9,12.3,8.8c0.5,0.3,0.9,0.6,1.4,0.9&#10;&#9;&#9;&#9;&#9;&#9;c0.2,0.1,0.5,0.3,0.7,0c0.2-0.2,0.1-0.5,0-0.7c-0.4-0.7-0.8-1.4-1.3-2.1c-4-6.1-8.1-12.2-12.1-18.3c-0.3-0.5-0.6-1-0.8-1.5&#10;&#9;&#9;&#9;&#9;&#9;c-0.2-0.6-0.1-1.1,0.4-1.5c0.6-0.4,1.1-0.3,1.7,0.1c0.4,0.4,0.7,0.8,1.1,1.3c4.8,7.2,9.6,14.4,14.4,21.6&#10;&#9;&#9;&#9;&#9;&#9;c1.2,1.8,2.8,3.2,3.9,5.1c0.2,0.4,0.6,0.7,1.1,0.4c0.4-0.3,0.4-0.8,0.2-1.1c-0.3-0.7-0.6-1.3-0.9-1.9c-2.7-4.6-5.4-9.2-8.2-13.8&#10;&#9;&#9;&#9;&#9;&#9;c-0.3-0.5-0.6-1-0.8-1.5c-0.3-0.7-0.3-1.4,0.4-1.9c0.8-0.5,1.4-0.2,2,0.4c0.4,0.4,0.6,0.9,1,1.4c0.4,0.6,0.8,1.2,1.2,1.8&#10;&#9;&#9;&#9;&#9;&#9;c0.1,0.2,0.3,0.6,0.5,0.4c0.4-0.2,0.1-0.5,0-0.7c-1-2.1-1.9-4.2-2.9-6.2c-1-2-2-3.9-2.9-5.9c-0.2-0.4-0.4-0.8-0.5-1.2&#10;&#9;&#9;&#9;&#9;&#9;c-0.1-0.6,0.1-1.1,0.7-1.4c0.5-0.3,1-0.2,1.5,0.2c0.5,0.4,0.7,1,1,1.5c2.7,5.2,5.4,10.4,8.1,15.6c0,0.1,0.1,0.1,0.1,0.2&#10;&#9;&#9;&#9;&#9;&#9;c0.2,0.4,0.4,1.1,0.8,0.9c0.5-0.2,0-0.8-0.1-1.2c-2.3-7.3-5.1-14.4-7.7-21.5c-0.3-0.7-0.6-1.5-0.7-2.2c-0.2-0.8-0.2-1.6,0.7-2&#10;&#9;&#9;&#9;&#9;&#9;c0.9-0.4,1.5,0.3,1.8,1.1c0.7,1.8,1.4,3.6,2,5.3c1.5,4,2.9,8,4.4,12c0.2,0.4,0.3,0.9,0.5,1.3c0.5,1,0.7,1,1.5,0.3&#10;&#9;&#9;&#9;&#9;&#9;c0.9-0.8,1.6-0.8,2.6,0.1c1.2,1.2,2.3,2.5,3.5,3.7c0.4,0.4,0.8,1.1,1.4,0.7c0.6-0.4,0.1-1-0.1-1.5c-2.4-6.2-4.8-12.4-7.3-18.5&#10;&#9;&#9;&#9;&#9;&#9;c-0.2-0.6-0.5-1.2-0.6-1.8c-0.2-0.7,0.1-1.3,0.8-1.6c0.7-0.3,1.2,0,1.6,0.5c0.3,0.4,0.5,0.8,0.6,1.2c2,4.9,3.9,9.9,5.8,14.8&#10;&#9;&#9;&#9;&#9;&#9;c0.2,0.5,0.4,1,0.7,1.5c0.3,0.5,0.7,0.8,1.3,0.6c1.3-0.4,2,0.3,2.5,1.4c2,3.7,3.9,7.4,5.9,11c0.4,0.8,0.8,1.6,1.4,2.2&#10;&#9;&#9;&#9;&#9;&#9;c0.3,0.3,0.7,0.6,1.1,0.4c0.4-0.2,0.4-0.7,0.3-1c-0.2-1.7-0.4-3.4-0.7-5c-1.3-8.5-2.7-17-4-25.4c-0.1-0.5-0.1-0.9-0.1-1.4&#10;&#9;&#9;&#9;&#9;&#9;c0-0.7,0.4-1.1,1.1-1.3c0.7-0.1,1.2,0.3,1.4,0.8c0.2,0.4,0.3,0.9,0.3,1.3c2,12.7,4,25.3,6,38c0.1,0.9,0.3,1.7,0.6,2.6&#10;&#9;&#9;&#9;&#9;&#9;c0.2,0.4,0.3,1,0.9,0.9c0.5-0.1,0.5-0.6,0.6-1c0.7-3.7,0.7-7.4,0.2-11.2c-0.7-5.1-1.4-10.3-2.1-15.4c-0.1-0.8-0.1-1.7,0.7-2.1&#10;&#9;&#9;&#9;&#9;&#9;c1-0.5,2.2-1,3.3-0.4c0.8,0.4,0.8,1.3,0.9,2.1c0.3,4,0.7,8,1.6,11.9c0.7,3.5,1.1,7,1.9,10.5c0.1,0.5,0.3,1,0.4,1.5&#10;&#9;&#9;&#9;&#9;&#9;c0.1,0.2,0.1,0.5,0.5,0.5c0.3,0,0.4-0.3,0.4-0.6c0.1-0.8,0.2-1.5,0.3-2.3c0.3-3.8,0.2-7.5,0-11.3c-0.1-2.3-0.8-4.4-1.8-6.5&#10;&#9;&#9;&#9;&#9;&#9;c-0.3-0.7-0.7-1.3-1-2c-0.6-1.3,0-2.3,1.4-2.3c1.1,0,1.3-0.5,1.3-1.3c0-4.2,0.2-8.4-0.1-12.6c-0.2-3-0.1-5.9,0-8.9&#10;&#9;&#9;&#9;&#9;&#9;c0-0.8,0.4-1.5,1.3-1.5c1,0,1.3,0.7,1.4,1.5c0,0.2,0,0.5,0,0.7c-0.1,6.5,0.4,13.1,0.2,19.6c0,1,0.1,2,0.3,3&#10;&#9;&#9;&#9;&#9;&#9;c0.1,0.2,0.1,0.6,0.4,0.5c0.2,0,0.3-0.3,0.3-0.5c0.1-0.4,0.2-0.9,0.4-1.3c0.3-0.8,0.8-1.2,1.7-1c0.8,0.2,1.2,0.8,1,1.6&#10;&#9;&#9;&#9;&#9;&#9;c-0.4,2.5-0.8,5-1.2,7.5c-0.3,1.8-0.5,3.7,0.2,5.4c0.2,0.6,0.5,1.2,0.8,1.8c0.1,0.2,0.3,0.5,0.6,0.5c0.4,0,0.4-0.4,0.5-0.6&#10;&#9;&#9;&#9;&#9;&#9;c0.1-0.5,0.2-1,0.2-1.5C933.1,730.5,933.1,728.4,933.1,726.2z M1108.4,751.5c0.4-0.1,0.6-0.4,0.9-0.7c3.9-4.4,7.5-9,11.2-13.5&#10;&#9;&#9;&#9;&#9;&#9;c1.5-1.8,2.6-3.9,4.4-5.3c1.7-1.3,3.1-2.9,4.4-4.5c1.5-1.9,3.1-3.9,4.6-5.8c0.2-0.2,0.5-0.5,0.2-0.7c-0.2-0.2-0.4,0.1-0.6,0.3&#10;&#9;&#9;&#9;&#9;&#9;c-0.6,0.5-1.2,1.1-1.8,1.6c-5.4,5.3-10.8,10.7-16.1,16.1c-1.6,1.6-2.5,3.7-4.2,5.2c-0.1,0-0.1,0.1-0.1,0.2&#10;&#9;&#9;&#9;&#9;&#9;c-0.9,1.7-1.7,3.5-2.6,5.2c-0.2,0.5-0.4,1-0.6,1.5C1108,751.3,1108,751.5,1108.4,751.5z M900.5,742.8c-0.2-1.9-0.5-3.9-1.3-5.7&#10;&#9;&#9;&#9;&#9;&#9;c-0.4-0.9-0.7-1.9-1.3-2.6c-2.6-2.7-5.2-5.5-7.8-8.2c-0.2-0.2-0.5-0.6-0.9-0.4c-0.5,0.2-0.2,0.7-0.1,1c1.9,6.4,4.3,12.5,10,16.7&#10;&#9;&#9;&#9;&#9;&#9;c0.3,0.3,0.6,0.6,1.1,0.4C900.6,743.7,900.4,743.2,900.5,742.8z M960.7,729.2c0,1.5,0.3,2.5,0.9,3.5c0.2,0.3,0.4,0.9,0.9,0.8&#10;&#9;&#9;&#9;&#9;&#9;c0.5-0.1,0.5-0.6,0.6-1c0.2-0.8,0.4-1.5,1.4-1.6c1.6-0.2,1.9-0.5,1.6-2.1c-0.3-2.5-1.1-4.9-1.7-7.3c0-0.1-0.1-0.3-0.2-0.4&#10;&#9;&#9;&#9;&#9;&#9;c-0.3-0.5-0.8-0.6-1,0C962.1,723.8,961.1,726.6,960.7,729.2z M983.3,742.3c0,0.1,0,0.1,0,0.2c0.1,0.6-0.3,1.6,0.3,1.8&#10;&#9;&#9;&#9;&#9;&#9;c0.5,0.1,0.6-1.1,0.8-1.7c0.7-2.5,0.9-5.1,1.3-7.7c0.1-0.7,0.2-1.4,0.8-1.8c1-0.7,1.1-1.7,0.8-2.8c-0.2-0.8-0.3-1.6-0.5-2.4&#10;&#9;&#9;&#9;&#9;&#9;c-0.3-1.4-0.6-2.9-1.1-4.3c-0.1-0.2-0.2-0.4-0.3-0.4c-0.3,0-0.2,0.3-0.2,0.5c0,0.7,0,1.4-0.1,2.1&#10;&#9;&#9;&#9;&#9;&#9;C984.1,731.2,983.7,736.8,983.3,742.3z M952.2,743.1c0-2.1-0.4-4.1-0.9-6.1c-0.1-0.3-0.1-0.6-0.4-0.7c-0.4,0-0.5,0.4-0.5,0.7&#10;&#9;&#9;&#9;&#9;&#9;c-0.2,1-0.3,2.1-0.5,3.1c-0.6,2.9-0.3,5.9-0.6,8.8c-0.1,1.4-0.4,2.8-0.3,4.2c0,0.2,0,0.5,0.3,0.5c0.1,0,0.3-0.2,0.3-0.4&#10;&#9;&#9;&#9;&#9;&#9;C950.8,750.1,952.2,746.8,952.2,743.1z M945.2,745.9c0,0.3-0.1,0.7,0.1,0.7c0.4,0.1,0.3-0.4,0.4-0.6c0.5-0.8,0.8-1.8,0.8-2.7&#10;&#9;&#9;&#9;&#9;&#9;c0.4-4.5,1.3-8.9,1.5-13.3c0-0.6,0.2-1.2,0.6-1.7c0.9-0.8,1-1.8,0.6-2.8c-0.2-0.4-0.1-1.2-0.6-1.2c-0.7-0.1-0.7,0.7-0.8,1.2&#10;&#9;&#9;&#9;&#9;&#9;c-0.6,3.4-1.6,6.8-2.1,10.3c-0.1,0.8-0.1,1.7,0.2,2.5c0.4,1.1,0.3,2.1-0.1,3.2C945.4,742.9,945.4,744.5,945.2,745.9z M957.9,746&#10;&#9;&#9;&#9;&#9;&#9;c0,1.1,0,2.5,0,3.9c0,0.3,0,0.7,0.4,0.8c0.4,0.1,0.5-0.3,0.6-0.6c1.8-3.7,2.5-7.5,0.7-11.4c-0.2-0.3-0.2-0.9-0.7-0.8&#10;&#9;&#9;&#9;&#9;&#9;c-0.5,0-0.4,0.6-0.5,0.9C958.1,741.1,958.2,743.4,957.9,746z M1059.2,735.4c0-0.5,0.1-0.9-0.3-1.2c-0.2-0.2-0.5-0.1-0.7,0.1&#10;&#9;&#9;&#9;&#9;&#9;c-1.3,1.3-2.5,2.6-3.1,4.3c-0.2,0.6-0.1,1,0.6,1.3c1.8,0.8,2,1.2,1.2,3c-0.4,1-0.8,2-1,3.1c0,0.3-0.1,0.6,0.2,0.7&#10;&#9;&#9;&#9;&#9;&#9;c0.3,0.1,0.5-0.2,0.7-0.4c0.6-0.8,1-1.7,1.2-2.7c0.3-1.8,0.6-3.5,0.9-5.3C1059,737.4,1059.1,736.3,1059.2,735.4z M902.2,755&#10;&#9;&#9;&#9;&#9;&#9;c-0.1-0.7-0.2-1.7-0.4-2.6c-0.5-2.8-2.4-4.6-4.5-6.3c-0.2-0.2-0.4-0.3-0.7-0.1c-0.2,0.1-0.2,0.4-0.1,0.6&#10;&#9;&#9;&#9;&#9;&#9;c0.1,0.2,0.1,0.5,0.2,0.7c1.1,2.8,2.4,5.4,4,7.9c0.2,0.3,0.5,0.6,0.7,0.9c0.1,0.2,0.3,0.3,0.5,0.3c0.3-0.1,0.3-0.4,0.3-0.6&#10;&#9;&#9;&#9;&#9;&#9;C902.2,755.6,902.2,755.4,902.2,755z M1082.9,743.6c0-0.2,0.1-0.5-0.2-0.5c-0.3-0.1-0.4,0.2-0.5,0.4c-1.1,1.9-2.3,3.8-3,5.9&#10;&#9;&#9;&#9;&#9;&#9;c-0.3,0.9-0.7,1.8-1.3,2.5c-0.5,0.6-0.8,1.3-1.1,2c-0.1,0.3-0.2,0.6,0,0.8c0.3,0.3,0.6,0,0.9-0.2c0.1-0.1,0.2-0.2,0.3-0.3&#10;&#9;&#9;&#9;&#9;&#9;c2.4-1.7,3.2-4.4,4.1-7.1C1082.5,746,1082.8,744.8,1082.9,743.6z M1049.9,738.4c-0.1-0.3,0-0.6-0.3-0.7c-0.3-0.1-0.5,0-0.7,0.2&#10;&#9;&#9;&#9;&#9;&#9;c-0.7,0.6-1.2,1.4-1.7,2.1c-0.4,0.6-0.7,1.2-0.6,2c0.1,0.7,0.5,1,1.1,0.5C1048.9,741.3,1049.6,739.9,1049.9,738.4z M913.6,754.6&#10;&#9;&#9;&#9;&#9;&#9;c-0.3-1.6-0.8-3.3-1.9-4.7c-0.2-0.2-0.4-0.5-0.7-0.3c-0.3,0.1-0.3,0.5-0.2,0.7c0.4,1.7,1.1,3.2,2.1,4.7c0.1,0.2,0.3,0.5,0.6,0.3&#10;&#9;&#9;&#9;&#9;&#9;C913.6,755.1,913.6,754.9,913.6,754.6z M1039.1,737.4c0-0.6,0-1,0-1.3c0-0.4,0.1-0.9-0.4-1c-0.5-0.1-0.7,0.4-0.9,0.8&#10;&#9;&#9;&#9;&#9;&#9;c-0.7,1.4-0.4,2.8,0.1,4.2c0.1,0.2,0.2,0.5,0.5,0.4c0.3,0,0.4-0.3,0.4-0.5C1038.9,739,1039,738.1,1039.1,737.4z M1102.8,746.9&#10;&#9;&#9;&#9;&#9;&#9;c0.1,0,0.2,0,0.2-0.1c1-1.1,1.8-2.2,2.5-3.5c0-0.1,0-0.2-0.1-0.3c-0.1-0.1-0.3,0-0.4,0c-1,0.9-1.8,2.1-2.5,3.3&#10;&#9;&#9;&#9;&#9;&#9;C1102.5,746.6,1102.5,746.9,1102.8,746.9z M1084.6,753.9c0-0.3,0-0.4-0.2-0.5c-0.2-0.1-0.3,0-0.5,0.2c-0.5,0.6-0.8,1.4-0.9,2.2&#10;&#9;&#9;&#9;&#9;&#9;c0,0.1,0.2,0.2,0.2,0.2c0.7-0.3,0.9-1.1,1.2-1.7C1084.6,754.2,1084.6,754,1084.6,753.9z M1065.7,752.1c0-0.2,0-0.4-0.2-0.4&#10;&#9;&#9;&#9;&#9;&#9;c-0.1,0-0.2,0-0.3,0.1c-0.5,0.7-0.8,1.5-1.1,2.3c0,0.1,0,0.3,0.1,0.4c0.1,0.1,0.3,0,0.3-0.1&#10;&#9;&#9;&#9;&#9;&#9;C1065.2,753.6,1065.5,752.8,1065.7,752.1z M1023,750.8c0.1,0.3-0.1,0.8,0.4,0.7c0.6-0.1,0.7-0.6,0.7-1.2c0-0.3,0-0.9-0.5-0.8&#10;&#9;&#9;&#9;&#9;&#9;C1023,749.7,1023,750.3,1023,750.8z M936.9,751.8c-0.2-0.4,0.3-1.2-0.4-1.2c-0.4,0-0.3,0.8-0.3,1.2c0,0.5-0.2,1.5,0.2,1.4&#10;&#9;&#9;&#9;&#9;&#9;C937.2,753.2,936.8,752.3,936.9,751.8z" style="fill: rgb(21, 29, 56);"/>
			</g>
		</g>
		<g>
			<path class="st3" d="M1141.4,758.1c2.8-0.3,5.9-0.6,9-0.9c0.3,0,0.7-0.1,1.1,0c0.6,0.1,1,0.5,1.1,1.2c0.1,0.6-0.2,1.1-0.7,1.3&#10;&#9;&#9;&#9;&#9;c-0.4,0.2-0.9,0.3-1.3,0.3c-5.9,0.7-11.7,1.3-17.6,2c-0.1,0-0.2,0-0.3,0c-2.4-0.5-4.5,0.6-6.7,1.2c-0.7,0.2-1.4,0.6-2.1,1&#10;&#9;&#9;&#9;&#9;c-1.4,0.6-2.3,0.2-2.5-1.4c-0.1-0.9-0.5-1.1-1.3-1.2c-0.8-0.1-1.3-0.6-1.4-1.3c-0.1-0.8,0.3-1.3,1-1.6c8.5-4.3,15-10.8,20.8-18.2&#10;&#9;&#9;&#9;&#9;c0.9-1.2,1.8-2,3.5-1.5c0.7,0.2,1.3-0.4,1.9-0.7c1-0.6,1.8-0.4,2.2,0.5c0.3,0.8-0.2,1.4-0.7,1.8c-1.2,1.1-2.4,2.1-3.6,3.1&#10;&#9;&#9;&#9;&#9;c-0.9,0.8-1.7,1.7-2.6,2.5c-0.2,0.2-0.6,0.5-0.4,0.9c0.2,0.4,0.7,0.1,1-0.1c2.2-1.1,4.4-2.2,6.6-3.3c0.7-0.4,1.4-0.7,2.1-1.1&#10;&#9;&#9;&#9;&#9;c1.2-0.5,1.9-0.4,2.3,0.5c0.4,0.8,0,1.5-1,2c-1.7,0.9-3.4,1.8-5.2,2.7c-0.7,0.4-1.3,0.8-2,1.2c-0.5,0.3-0.4,0.7,0,1.1&#10;&#9;&#9;&#9;&#9;c1,0.9,2.1,1.2,3.4,0.5c0.8-0.4,1.7-0.8,2.6-1.1c0.8-0.3,1.6-0.3,2.1,0.6c0.4,0.8,0,1.5-1.1,2c-3.5,1.5-7,3-10.5,4.5&#10;&#9;&#9;&#9;&#9;c-0.5,0.2-1,0.5-1.4,0.7c-0.2,0.1-0.4,0.2-0.4,0.5c0,0.3,0.3,0.3,0.6,0.3C1140.2,758.1,1140.6,758.1,1141.4,758.1z" style="fill: rgb(21, 29, 56);"/>
		</g>
	</g>
</g>
<g>
	<path class="st1" d="M375.7,760.5c-0.7,0-1.4,0.1-2.1,0c-1.3-0.1-1.9-0.7-2-2c-0.1-1.3-0.1-2.7-0.1-4c0-1.5-0.5-1.9-2-2&#10;&#9;&#9;c-1.6-0.1-3.2-0.1-4.9-0.1c-1.2,0-1.7,0.4-1.7,1.6c-0.1,1.5,0,3-0.1,4.4c-0.1,1.4-0.6,1.9-2,2.1c-1.5,0.1-3,0.1-4.5,0&#10;&#9;&#9;c-0.8-0.1-1.6-0.4-1.6-1.4c0-1,0.8-1.2,1.6-1.3c0.7-0.1,1.4,0,2.1-0.1c1-0.1,1.5-0.6,1.6-1.7c0-0.7,0-1.5,0-2.2&#10;&#9;&#9;c0-1.6-0.4-2.1-2-2.5c-2.9-0.7-5.6-1.6-8.3-2.8c-8.4-3.8-15.2-9.5-19.2-17.9c-6-12.5-4.8-24.5,3.3-35.7c2.9-4,6.5-7.1,10.6-9.7&#10;&#9;&#9;c2-1.2,2.1-1.6,1.5-3.9c-3.2-12.6,4-25.1,16.5-28.6c2.1-0.6,2.3-0.8,2.5-3.1c0-0.4,0.1-0.7,0.1-1.1c0.3-1.2,1.3-1.7,2.2-0.9&#10;&#9;&#9;c1,0.9,1.8,0.9,2.8,0c0.9-0.8,1.9-0.3,2.2,0.9c0.1,0.4,0.1,0.8,0.1,1.3c0.1,1.9,0.4,2.2,2.2,2.7c3.7,1,7.1,2.7,10,5.4&#10;&#9;&#9;c6.8,6.5,9,14.4,6.8,23.5c-0.5,2.1-0.4,2.5,1.5,3.7c7.1,4.6,12.6,10.6,15.5,18.6c4.3,11.9,2.3,23-5.4,32.9&#10;&#9;&#9;c-6.5,8.3-15.2,13-25.5,15c-3.4,0.6-3.4,1-3.1,4.8c0.1,0.9,0.7,1.3,1.5,1.3c0.8,0.1,1.6,0,2.3,0.1c0.7,0.1,1.3,0.4,1.4,1.2&#10;&#9;&#9;c0.1,0.9-0.5,1.3-1.3,1.4C377.5,760.6,376.6,760.6,375.7,760.5C375.7,760.6,375.7,760.6,375.7,760.5z M348,675.3&#10;&#9;&#9;c0,11.4,9.3,20.7,20.7,20.7c11.3,0,20.7-9.4,20.7-20.7c0-11.4-9.4-20.7-20.9-20.7C357.2,654.6,348,663.9,348,675.3z" style="fill: rgb(247, 171, 0);"/>
	<path class="st1" d="M462.7,760.4c-0.8,0-1.6,0-2.4,0c-1.5-0.1-2.1-0.7-2.2-2.2c0-1.1,0-2.2,0-3.3c-0.1-1.2-0.5-1.7-1.7-1.7&#10;&#9;&#9;c-1.5-0.1-3-0.1-4.4-0.1c-1.1,0-1.6,0.5-1.6,1.6c-0.1,1.2,0,2.3-0.1,3.5c-0.1,1.5-0.7,2.1-2.2,2.2c-1.4,0-2.8,0-4.2,0&#10;&#9;&#9;c-1.1,0-1.8-0.6-1.7-1.3c0.1-1,0.8-1.2,1.6-1.3c0.7-0.1,1.3,0,2-0.1c1.2-0.1,1.7-0.6,1.8-1.8c0-0.3,0-0.6,0-1&#10;&#9;&#9;c0-1.8-0.5-2.4-2.2-2.8c-3.8-1-7.5-2.3-10.9-4.4c-9.2-5.6-15.4-13.5-16.6-24.5c-1-9.1,1.7-17.1,7.8-23.9c0.4-0.5,0.9-1,1.4-1.5&#10;&#9;&#9;c1.3-1.2,1.8-2.7,1.9-4.5c0.5-10.5,5.5-18.1,14.7-23c1.7-0.9,3.4-1.5,5.3-1.9c2-0.5,2.2-0.9,2.3-3c0-0.6,0-1.2,0.2-1.8&#10;&#9;&#9;c0.4-1.2,1.3-1.5,2.3-0.7c0.2,0.1,0.3,0.3,0.4,0.5c1,1.1,1.3,1.1,2.3,0.1c0.5-0.5,1-1.2,1.9-0.9c0.9,0.3,1,1.2,1,2&#10;&#9;&#9;c0,0.2,0,0.5,0,0.7c0,2.1,0.4,2.5,2.5,3.1c11.7,3.1,19.5,12.9,20,25c0.1,1.9,0.8,3.4,2.2,4.8c4.7,4.7,7.6,10.3,8.7,16.9&#10;&#9;&#9;c1.4,9.3-1.1,17.6-7.1,24.7c-5.7,6.7-13,10.7-21.5,12.5c-0.2,0.1-0.5,0.1-0.7,0.2c-2.4,0.3-2.5,2-2,4.2c0.1,0.6,0.8,0.9,1.4,0.9&#10;&#9;&#9;c0.7,0,1.3,0,2,0c0.5,0,1.1,0.1,1.6,0.2c0.6,0.2,1.1,0.6,1.1,1.3c0,0.7-0.6,1.1-1.2,1.2C464.8,760.4,463.8,760.3,462.7,760.4&#10;&#9;&#9;C462.7,760.4,462.7,760.4,462.7,760.4z M455.3,670.5c-13,0-23.7,10.6-23.7,23.5c0,13,10.6,23.7,23.6,23.7&#10;&#9;&#9;c12.8,0,23.6-10.8,23.6-23.6C478.9,681.3,468.2,670.5,455.3,670.5z" style="fill: rgb(247, 171, 0);"/>
	<path class="st1" d="M370.7,669.1c0,0.7-0.1,1.4-0.1,2.1c-0.1,1-0.6,1.5-1.5,1.2c-2.3-0.7-4.4-1.6-6.6-2.6c-0.7-0.4-0.7-0.9,0-1.4&#10;&#9;&#9;c0.2-0.2,0.5-0.3,0.8-0.5c1.8-0.7,3.6-1.5,5.4-2.1c1.2-0.4,1.8-0.1,1.9,1.3C370.7,667.8,370.7,668.4,370.7,669.1z" style="fill: rgb(247, 171, 0);"/>
	<path class="st1" d="M355.1,665.3c0-1.1,0.8-1.8,1.9-1.8c1.1,0,1.9,0.9,1.8,1.9c0,1.1-0.9,1.9-2,1.8&#10;&#9;&#9;C355.7,667.3,355,666.5,355.1,665.3z" style="fill: rgb(247, 171, 0);"/>
	<path class="st1" d="M379.8,663.6c1.1,0,1.9,0.8,1.9,1.9c0,1.1-0.8,1.9-1.9,1.9c-1.2,0-1.9-0.7-1.9-1.9&#10;&#9;&#9;C378,664.3,378.7,663.6,379.8,663.6z" style="fill: rgb(247, 171, 0);"/>
	<path class="st1" d="M455.1,683.1c0-3.1,0.5-3.4,3.4-2.2c1.1,0.5,2.3,0.9,3.4,1.4c1,0.5,1.1,1.2,0,1.7c-1.6,0.8-3.3,1.5-5.1,2&#10;&#9;&#9;c-0.9,0.3-1.4-0.2-1.6-1.1C455.2,684.4,455.2,683.7,455.1,683.1z" style="fill: rgb(247, 171, 0);"/>
	<path class="st1" d="M443.9,679.9c1.5,0,2.7,1.1,2.7,2.6c0,1.3-1.2,2.6-2.5,2.7c-1.5,0.1-2.7-1-2.7-2.5&#10;&#9;&#9;C441.3,681.1,442.4,679.9,443.9,679.9z" style="fill: rgb(247, 171, 0);"/>
	<path class="st1" d="M469.6,679.9c1.5,0,2.7,1.1,2.7,2.6c0,1.3-1.2,2.6-2.5,2.7c-1.5,0.1-2.7-1-2.7-2.5&#10;&#9;&#9;C467,681.1,468.1,679.9,469.6,679.9z" style="fill: rgb(247, 171, 0);"/>
</g>
<path class="st3" d="M709.5,739.9c0-5.5,0-11,0-16.5c0-0.6,0-1.3,0-1.9c-0.1-1.6-0.5-2.1-2-2.1c-5.2-0.1-10-1.5-14.9-3.1&#10;&#9;c-2.3-0.7-4.6-1.4-6.9-2c-4.1-1.1-8.3-1.1-12.4,0c-2.9,0.8-5.8,1.7-8.8,2.5c-3.9,1.2-7.7,2.2-11.8,2.5c-2.1,0.1-2.4,0.6-2.4,3.1&#10;&#9;c0,11.4,0,22.7,0,34.1c0,0.7,0,1.4,0,2.1c-0.1,1.4-0.6,1.9-2,2c-0.4,0-0.8,0-1.3,0c-6.9,0-13.8,0-20.8,0c-0.7,0-1.4-0.1-2.1-0.2&#10;&#9;c-0.5-0.1-0.9-0.5-0.9-1c-0.1-0.7,0.3-1.1,0.9-1.3c0.7-0.3,1.5-0.2,2.3-0.2c5.7,0,11.4,0,17.2,0c0.6,0,1.3,0,1.9,0&#10;&#9;c1.4-0.1,1.8-0.6,2-2c0.1-0.7,0.1-1.4,0.1-2.1c0-10.5,0-21.1,0-31.6c0-3-0.2-3.1-2.9-4.1c-3.8-1.3-7.3-3.3-10.9-5.2&#10;&#9;c-2.3-1.3-4.7-2.6-7.1-3.7c-4.3-1.9-8.8-2.5-13.5-2.2c-4.7,0.4-9.4,1-14.2,1c-5.8,0.1-11-1.7-15.6-5.2c-2.6-1.9-5-4.1-7.5-6.2&#10;&#9;c-1.1-1-2.3-1.9-3.4-2.9c-4-3.3-8.6-5.4-13.8-6.1c-2.8-0.4-5.6-0.7-8.4-1.1c-0.4-0.1-0.8-0.1-1.3-0.1c-9.4-0.7-16.8-4.9-22.2-12.7&#10;&#9;c-1.7-2.4-3.5-4.6-5.2-6.9c-3.5-4.6-7.9-8-13.5-9.9c-3.6-1.2-7.2-2.5-10.8-3.8c-7.4-2.5-12.7-7.4-16-14.5c-1.2-2.6-2.4-5.1-3.6-7.7&#10;&#9;c-1.4-3-2.9-5.8-4.9-8.4c-0.9-1.2-1.1-2.5-1.2-4c0-13.2,1-26.4,2.9-39.5c4.7-33.1,14.1-64.7,28.4-94.9&#10;&#9;c10.1-21.5,22.4-41.7,37.3-60.2c12.4-15.5,26.4-29.4,42.4-41.3c1.9-1.4,2.1-2.9,1.7-4.9c-2.7-16.1-1.2-31.7,5.1-46.8&#10;&#9;c7.5-17.8,20-31.1,37.2-40c13.9-7.2,28.7-10.4,44.3-10.6c11-0.1,21.9,1.1,32.4,4.4c21.2,6.7,37.7,19.2,48.6,38.8&#10;&#9;c6.5,11.8,9.7,24.5,9.8,38c0,2.8,0.2,5.7-0.2,8.5c-0.2,1.9,0.5,3.2,2.1,4.2c8.2,5.1,16,10.9,23.3,17.2&#10;&#9;c13.3,11.3,25.1,24.1,35.6,37.9c20.1,26.5,35.3,55.7,46.2,87.1c8.2,23.4,13.7,47.4,16.4,72c0.9,8.5,1.6,17,1.6,25.6&#10;&#9;c0,1.6,0.2,3.2,0.2,4.9c0,1.1-0.1,2.1-0.8,3c-3.4,4.2-5.4,9.1-7.6,13.9c-0.8,1.7-1.7,3.4-2.6,5.1c-2.9,5.5-7.4,9.2-13.1,11.5&#10;&#9;c-2.4,1-4.9,1.8-7.4,2.7c-1.9,0.6-3.7,1.3-5.6,2c-5,1.8-9.1,4.8-12.4,9c-2,2.6-4,5.1-5.9,7.8c-5.1,7.2-11.9,11.5-20.8,12.4&#10;&#9;c-3.2,0.3-6.3,0.8-9.5,1.1c-6.2,0.7-11.7,3.1-16.4,7.3c-2.4,2.2-5,4.2-7.4,6.4c-6.3,5.6-13.6,7.8-22,6.9c-3.4-0.4-6.9-0.6-10.3-0.9&#10;&#9;c-5-0.4-9.7,0.4-14.2,2.6c-2.9,1.4-5.6,2.9-8.4,4.5c-2.6,1.5-5.4,2.8-8.2,3.9c-2.1,0.8-2.4,1.2-2.4,3.4c0,11.2,0,22.5,0,33.7&#10;&#9;c0,2.4,0.5,2.8,2.9,2.8c6.2,0,12.4,0,18.7,0c0.8,0,1.6,0,2.3,0.1c0.8,0.1,1.4,0.4,1.4,1.3c0,0.9-0.6,1.2-1.4,1.3&#10;&#9;c-0.5,0.1-1,0.1-1.5,0.1c-7.3,0-14.7,0-22,0c-0.5,0-1,0-1.5-0.1c-1-0.1-1.5-0.7-1.6-1.7c-0.1-0.6-0.1-1.3-0.1-1.9&#10;&#9;C709.5,751.3,709.5,745.6,709.5,739.9z" style="fill: rgb(21, 29, 56);"/>
<path class="st3" d="M547.7,248.7c0.1-3.2-0.1-6.4,0.2-9.5c0.3-3.4,0.9-6.7,2.1-9.9c0.1-0.4,0.3-0.8,0.4-1.2&#10;&#9;c0.2-0.8-0.2-1.1-0.9-0.8c-0.6,0.2-1.1,0.6-1.6,1c-4.5,3.2-8.4,7.2-11.9,11.4c-5.7,6.9-10.3,14.5-14.8,22.2&#10;&#9;c-3.2,5.6-6.2,11.3-9.6,16.7c-1.2,1.9-2.5,3.8-3.9,5.5c-1.2,1.5-2.6,2.8-4.4,3.5c-3.6,1.5-6.4,0.1-7.2-3.7c-0.4-2.1-0.4-4.2-0.1-6.3&#10;&#9;c1-7.8,3.4-15.3,6.3-22.6c1.8-4.6,3.4-9.1,3.9-14.1c0.2-2,0-4-0.7-5.8c-0.9-2.4-2.5-3.4-5.1-3.2c-1.4,0.1-2.6,0.7-3.7,1.4&#10;&#9;c-2.3,1.5-4.2,3.3-5.9,5.4c-5.1,6.1-9.1,12.9-12.8,20c-5.2,10.1-9.8,20.5-14.1,31c-0.4,1-0.9,1.9-1.4,2.9c-0.3,0.5-0.8,0.8-1.4,0.6&#10;&#9;c-0.7-0.2-1-0.8-0.9-1.5c0.1-0.6,0.3-1.2,0.5-1.8c3.1-7.7,5.9-15.4,8.6-23.3c2.5-7.5,5-15,6.4-22.8c0.3-1.5,0.5-2.9,0.5-4.4&#10;&#9;c0-0.6,0-1.1-0.3-1.7c-0.4-0.7-0.9-0.9-1.6-0.4c-0.7,0.5-1,1.2-1.4,1.8c-1.5,2.8-2.7,5.7-4,8.7c-3.1,7.4-6,14.8-9.5,22&#10;&#9;c-3.5,7.1-7.3,14-12.6,20.1c-3.1,3.6-6.7,6.7-11.1,8.7c-1.3,0.6-2.6,1.1-4,1.4c-5.3,1.2-9.7-0.7-12.3-5.5c-1.6-3.1-2.3-6.4-2.5-9.8&#10;&#9;c0-0.7,0-1.4-0.2-2.1c-0.1-0.6-0.6-0.8-1-0.3c-0.4,0.5-0.7,1.1-1,1.6c-2.3,4.2-4.5,8.3-7.1,12.3c-1.9,3-3.8,5.9-6.4,8.4&#10;&#9;c-0.6,0.5-1.1,1.1-1.8,1.5c-2.9,2-6,1.5-8.3-1.1c-1.5-1.7-2.3-3.7-2.9-5.8c-0.9-3.1-1.4-6.3-1.8-9.6c-0.1-1,0.3-2.5-1-2.7&#10;&#9;c-1.1-0.2-1.2,1.4-1.6,2.2c-2.5,5.8-5,11.6-7.5,17.3c-0.5,1.1-1,2.2-1.6,3.2c-0.4,0.7-1,1-1.8,0.8c-0.8-0.3-1.1-0.9-1-1.7&#10;&#9;c0-0.6,0.1-1.1,0.3-1.7c0.5-2.3,1-4.5,1.6-6.8c0.2-0.8,0.4-1.5,0.5-2.3c0.1-0.7,0.7-1.7-0.2-2.1c-0.7-0.3-1.1,0.7-1.5,1.2&#10;&#9;c-1.9,2.6-3.8,5.3-5.9,7.7c-2.4,2.7-4.8,5.3-7.8,7.4c-2.4,1.7-4.9,3-7.9,3.4c-4.6,0.5-8.1-1.1-10.5-5.2c-1.8-3.1-2.5-6.4-2.8-9.9&#10;&#9;c0-0.6-0.1-1.1-0.1-1.7c0-0.3-0.1-0.6-0.5-0.6c-0.3-0.1-0.5,0.1-0.7,0.4c-0.4,0.7-0.8,1.4-1.1,2c-2,4.1-4.1,8.2-6.6,12.1&#10;&#9;c-1.3,2-2.6,3.9-4.4,5.4c-1.6,1.4-3.3,2.6-5.5,1.7c-2.1-0.9-2.6-2.8-2.8-4.9c-0.2-2.8,0-5.6,0.5-8.4c0.4-2.1,0.8-4.2,1.2-6.2&#10;&#9;c0.2-1,0.4-2.1,0.6-3.1c0-0.3,0.1-0.7-0.1-0.8c-0.4-0.2-0.6,0.2-0.8,0.5c-0.5,0.8-1,1.7-1.5,2.6c-3.3,6.1-6.6,12.2-10.7,17.8&#10;&#9;c-1.4,2-2.9,4-4.7,5.7c-0.6,0.6-1.3,1.1-2,1.5c-3.3,1.8-6.3,0.4-7-3.3c-0.4-2-0.3-4.1,0.1-6.1c0.9-5.3,2.6-10.3,4.4-15.2&#10;&#9;c1.2-3.2,2.6-6.4,3.8-9.7c1.5-3.9,2.6-7.9,2.5-12.2c0-1.5-0.3-3-0.8-4.3c-1.2-3-3.6-4.1-6.7-3c-2,0.7-3.7,2-5.4,3.3&#10;&#9;c-3.9,3.2-7.1,7-10.1,11.1c-7.9,10.8-14,22.7-19.2,35c-1.3,3.1-2.5,6.3-3.7,9.5c-0.2,0.6-0.5,1.2-0.8,1.7c-0.3,0.5-0.8,0.8-1.4,0.6&#10;&#9;c-0.7-0.2-1.1-0.8-1-1.4c0.1-0.8,0.3-1.7,0.6-2.5c3.1-10.1,6.6-20.1,10.5-30c2.9-7.5,6-14.9,9.3-22.3c1.2-2.7,1-3.1-1.9-3&#10;&#9;c-1.2,0-2.4,0-3.6,0c-0.8,0-1.6-0.2-1.7-1.2c-0.1-0.8,0.5-1.3,1.7-1.5c0.6-0.1,1.1,0,1.7,0c1.1,0,2.1-0.1,3.2-0.1&#10;&#9;c2.6-0.1,4.2-1.3,5.3-3.8c2.9-6.5,6.1-12.9,9.2-19.3c1.3-2.7,2.7-5.4,4.3-8c1-1.6,2.1-3,3.7-4c3-1.7,6.3-0.4,7.3,2.9&#10;&#9;c0.5,1.7,0.6,3.3,0.3,5c-2.3,12.9-9.3,22.3-21.3,27.6c-2.2,1-3.7,2.3-4.7,4.5c-2.2,5.1-4.6,10.2-6.6,15.4c-0.3,0.8-1,2-0.4,2.3&#10;&#9;c0.9,0.4,1.4-0.9,1.8-1.7c3.3-5,6.8-9.9,10.8-14.4c2.3-2.6,4.8-4.9,7.8-6.8c1.6-1,3.2-1.7,5.1-2.1c3.5-0.7,6.3,0.7,8,3.8&#10;&#9;c1,1.8,1.4,3.8,1.5,5.9c0.2,5.4-1.2,10.5-3.2,15.4c-2.1,5.2-4.2,10.5-5.8,15.9c-1,3.3-1.9,6.5-1.9,10c0,1.3-0.2,2.9,1.3,3.5&#10;&#9;c1.5,0.6,2.5-0.7,3.4-1.6c1.9-1.8,3.3-3.8,4.8-5.9c4.3-6.4,8-13.2,11.6-20c5.2-10,9.7-20.4,13.7-31c0.3-0.7,0.6-1.5,0.9-2.1&#10;&#9;c0.5-0.9,1.2-1.1,2.2-0.8c0.9,0.3,1.3,1.1,1.1,2c-0.2,0.8-0.5,1.6-0.8,2.4c-3,7.8-6.2,15.6-8.6,23.7c-1.9,6.2-3.6,12.5-4.7,18.9&#10;&#9;c-0.3,1.9-0.4,3.8-0.4,5.7c0,0.5,0,1,0.1,1.5c0.4,2.2,1.7,2.7,3.4,1.3c1-0.9,1.9-1.9,2.7-3c2-2.8,3.7-5.8,5.3-8.9&#10;&#9;c3.8-7.4,6.9-15,10-22.7c2.5-6.2,5.7-12.2,9.9-17.4c2.2-2.7,4.7-5.1,7.6-7c2.1-1.3,4.3-2.2,6.8-2.2c2.6,0,4.6,1.1,6,3.3&#10;&#9;c0.8,1.3,1.4,2.8,1.6,4.4c0.4,3,0.3,5.9-0.3,8.8c0,0.2-0.1,0.4-0.2,0.6c-0.2,0.7-0.6,1.3-1.5,1.2c-1-0.1-1.2-0.9-1.1-1.7&#10;&#9;c0.1-1,0.3-2,0.5-2.9c0.3-2.3,0.3-4.5-0.4-6.7c-1.1-3.7-3.8-5-7.4-3.6c-1.9,0.8-3.6,1.9-5.2,3.3c-4.9,4.4-8.7,9.8-11,15.9&#10;&#9;c-1.7,4.3-3.3,8.7-4.3,13.3c-1,4.5-1.1,9-0.2,13.5c0.5,2.3,1.3,4.5,3,6.3c2.2,2.5,5,3.1,8.1,2.2c3-0.9,5.4-2.7,7.6-4.8&#10;&#9;c6.1-5.7,10.8-12.5,15.2-19.5c2.2-3.4,3.7-7.1,4.8-11c3.3-12.2,6.9-24.3,10.6-36.4c1.2-3.9,2.5-7.8,4.4-11.5c0.5-0.9,1-1.9,1.7-2.6&#10;&#9;c0.8-0.9,1.8-1.4,3.1-1c1.2,0.4,1.8,1.3,2,2.5c0.3,1.8,0.2,3.5-0.1,5.3c-0.5,3.1-1.3,6.1-2.3,9c-2.6,8.2-6,16.1-9.4,24.1&#10;&#9;c-2.2,5.3-5,10.3-7.9,15.2c-0.9,1.6-1.4,3.2-1.8,5c-0.1,0.6-0.5,1.5,0.1,1.8c0.7,0.3,0.9-0.7,1.1-1.2c1.4-3,2.7-6,4-9.1&#10;&#9;c3.4-8,7.6-15.6,12.5-22.8c1.4-2.1,3-3.9,4.8-5.6c1.1-1,2.3-1.9,3.7-2.4c2.5-1,4.8-0.2,6.2,2.2c0.9,1.6,1.2,3.3,1.3,5.1&#10;&#9;c0.1,2.7-0.4,5.4-1.3,7.9c-2.3,6.2-6.2,11.2-11.7,14.9c-2.8,1.9-5.9,3-9.4,2.9c-2.4-0.1-2.7,0.3-2.7,2.7c0.1,4.2,0.5,8.5,1.4,12.6&#10;&#9;c0.5,2.2,1.1,4.4,2.3,6.3c1.8,2.8,3.8,3.2,6.3,1c1.4-1.2,2.6-2.6,3.7-4.1c3.9-5.5,7.1-11.4,10.3-17.3c2.3-4.2,4.1-8.7,6.2-13&#10;&#9;c2.7-5.6,4.9-11.4,8.6-16.5c2.4-3.3,4.9-6.4,8.1-8.9c1.9-1.5,4-2.7,6.3-3.4c5-1.6,8.9,0.5,10.4,5.5c0.5,1.6,0.7,3.3,0.7,5&#10;&#9;c-0.3,7.6-3,14.2-8.6,19.5c-2.1,2-4.6,3.5-7.5,4.3c-4.8,1.4-8.8,0-11.7-4.1c-0.5-0.7-0.7-1.8-1.7-1.7c-1,0.1-1,1.3-1.3,2&#10;&#9;c-2.3,5.9-3.2,12-1.9,18.3c0.3,1.4,0.7,2.7,1.4,4c2.1,4.2,5.5,5.7,10,4.4c2.5-0.7,4.9-1.9,7-3.5c3.4-2.5,6.2-5.6,8.7-8.9&#10;&#9;c4.9-6.6,8.7-13.9,12-21.4c3.2-7.2,6.2-14.6,9.3-21.8c0.7-1.8,1.6-3.5,2.7-5.1c0.4-0.6,0.9-1.3,1.5-1.8c2.1-1.8,4.9-1,5.7,1.7&#10;&#9;c0.3,0.8,0.3,1.7,0.3,2.5c0.1,3.2-0.6,6.3-1.3,9.4c-0.3,1.3-0.5,2.6-0.8,3.9c-0.1,0.3,0,0.6,0.3,0.7c0.3,0.2,0.6,0,0.7-0.3&#10;&#9;c0.4-0.6,0.8-1.1,1.2-1.8c2.5-4.2,5.1-8.5,8.2-12.3c2.3-2.9,4.8-5.6,8-7.5c2-1.2,4.1-1.9,6.4-1.9c2.6,0.1,4.5,1.2,5.7,3.4&#10;&#9;c1.1,1.9,1.6,4.1,1.6,6.3c0.1,5.3-1.4,10.3-3.3,15.2c-2.1,5.3-4,10.6-5.4,16.1c-0.9,3.6-1.7,7.1-1.7,10.9c0,0.6,0,1.3,0.1,1.9&#10;&#9;c0.4,2.3,2,3.1,4,1.9c0.7-0.4,1.4-1,2-1.6c1.7-1.7,3.1-3.7,4.4-5.7c3.4-5.4,6.5-11.1,9.6-16.7c4.2-7.4,8.6-14.8,14-21.5&#10;&#9;c4.7-5.9,10-11.3,16.6-15.3c2.4-1.5,5-2.7,7.6-3.8c1.2-0.5,2.4-1,3.6-1.2c1.3-0.2,2.1,0.2,2.4,1.2c0.3,1-0.1,1.8-1.3,2.3&#10;&#9;c-0.4,0.2-0.8,0.3-1.2,0.4c-3.5,1.1-5.8,3.3-7.3,6.6c-1.9,4.3-2.5,8.8-2.6,13.4c-0.1,4.3,0,8.6,0,12.9c0,7.5-1.7,14.4-6.3,20.5&#10;&#9;c-0.3,0.5-1.1,1-0.5,1.6c0.5,0.5,1.2-0.1,1.7-0.4c2.5-1.5,4.5-3.4,6.3-5.6c4.2-5.1,7.2-10.8,9.4-17c0.3-0.7,0.5-1.5,0.9-2.1&#10;&#9;c0.3-0.5,0.8-0.8,1.5-0.6c0.6,0.2,0.9,0.7,0.9,1.3c0,0.4-0.1,0.8-0.2,1.2c-2.9,8.2-6.7,15.9-13.1,22c-4.9,4.6-10.6,7.2-17.4,6.9&#10;&#9;c-4.3-0.2-8-1.8-10.9-5c-0.5-0.6-1-1.2-1.3-1.9c-0.2-0.6-0.2-1.1,0.3-1.5c0.6-0.5,1.2-0.4,1.7,0c0.4,0.4,0.8,0.8,1.1,1.2&#10;&#9;c2.7,3.2,6.4,4.2,10.3,2.9c2.8-0.9,5.1-2.6,7-4.9c3.4-4.1,5-9,5.7-14.2C547.9,256.4,547.6,252.5,547.7,248.7z M450.2,250.4&#10;&#9;c-0.1-1.5-0.2-2.9-0.6-4.2c-1.1-3.6-3.6-4.9-7.2-3.7c-2,0.7-3.8,1.8-5.4,3.2c-4.8,4.2-8.4,9.3-11.2,15c-0.4,0.8-0.7,1.6-0.5,2.5&#10;&#9;c0.7,3,1.9,5.6,4.5,7.5c1.5,1.1,3.2,1.4,5,1.1c2.8-0.6,5.3-1.8,7.5-3.8C447.3,263.1,449.6,257.1,450.2,250.4z M411.2,255.7&#10;&#9;c0-1.5-0.2-2.9-0.9-4.3c-0.7-1.5-1.8-1.9-3.3-1.2c-0.8,0.3-1.5,0.8-2.1,1.4c-1.3,1.3-2.7,2.5-3.7,4c-4.4,6-7.8,12.6-11,19.3&#10;&#9;c-0.8,1.6-0.3,2.4,1.5,2.5c2.3,0.2,4.4-0.5,6.3-1.6c6.2-3.7,10.4-9,12.5-16C410.9,258.5,411,257.1,411.2,255.7z M300.3,241.1&#10;&#9;c0-0.3,0-0.4,0-0.6c-0.1-1.4-0.1-3-1.6-3.6c-1.7-0.7-2.6,0.7-3.5,1.7c-0.1,0.1-0.3,0.3-0.4,0.5c-1.2,1.7-2.2,3.4-3.1,5.3&#10;&#9;c-3.2,6.6-6.3,13.2-9.5,19.9c-0.2,0.4-0.4,0.8-0.5,1.2c-0.2,0.9,0.3,1.4,1.2,1c0.8-0.3,1.7-0.8,2.4-1.3c6-3.9,10.2-9.3,12.9-15.8&#10;&#9;C299.4,246.7,300.2,243.9,300.3,241.1z M398.8,231.7c0-0.6,0.2-1.4-0.6-1.6c-0.8-0.2-1.1,0.5-1.4,1.1c-0.6,1.2-1.1,2.4-1.6,3.7&#10;&#9;c-3.2,8.5-5.6,17.3-8,26.1c-0.2,0.8-1.1,2.1-0.1,2.6c0.6,0.3,1.1-1.2,1.5-2c3.2-6.8,5.9-13.9,8.1-21.1&#10;&#9;C397.7,237.6,398.4,234.7,398.8,231.7z" style="fill: rgb(21, 29, 56);"/>
<path class="st1" d="M376.2,451.8c-12.8-0.3-23.9-3.5-34.5-8.8c-0.3-0.2-0.6-0.3-0.9-0.5c-0.8-0.6-0.9-1.2-0.2-2&#10;&#9;c0.5-0.5,1-1,1.6-1.4c7.6-5.4,15.9-9.5,24.9-11.9c0.7-0.2,1.4-0.3,2-0.6c1-0.4,1.2-1.1,0.6-2c-0.4-0.5-0.9-0.9-1.3-1.4&#10;&#9;c-9.6-9.8-15.8-21.5-20.1-34.5c-0.1-0.3-0.2-0.7-0.3-1c-0.2-1.4,0.3-2,1.8-1.9c0.8,0,1.7,0.2,2.5,0.4c10.6,2,20.7,5.5,30.1,11.1&#10;&#9;c2.2,1.3,4.3,2.8,6.3,4.3c0.4,0.3,0.8,0.6,1.2,0.9c0.9,0.5,1.5,0.3,1.8-0.7c0.2-0.6,0.2-1.3,0.3-1.9c0.9-9.6,3.8-18.7,8-27.3&#10;&#9;c0.4-0.8,0.8-1.5,1.3-2.2c0.7-0.9,1.3-0.9,2.1-0.2c0.3,0.3,0.6,0.6,0.8,1c7.1,10.2,12.3,21.3,13.7,33.8c1.2,10.8-1.2,20.7-7.6,29.7&#10;&#9;C401.7,446.8,389.6,451.5,376.2,451.8z" style="fill: rgb(247, 171, 0);"/>
<path class="st3" d="M968.1,257.8c0.1,4.5-0.4,9.2-1.7,13.9c-0.1,0.4-0.2,0.8-0.2,1.2c-0.1,1,0.3,1.4,1.4,1.4c0.6,0,1.3-0.2,1.9-0.3&#10;&#9;c5.5-1,10.9-1.2,16.4-0.5c3.1,0.4,3.5,1.1,1.7,3.7c-4.2,5.9-9.3,10.9-15.6,14.4c-9.5,5.3-19.1,5.4-28.7,0.2&#10;&#9;c-5.2-2.8-8.8-7.3-11.2-12.6c-2.3-5.2-3.4-10.6-3.5-16.2c-0.1-2.9-0.2-5.8,0.3-8.7c0.1-0.6,0.1-1.1,0.3-1.7c0.3-0.9,0.9-1.2,1.8-0.8&#10;&#9;c0.6,0.3,1.1,0.6,1.6,1c4.3,3.1,8.2,6.7,11.4,11c2.1,2.8,2.4,2.7,4.1-0.3c3.9-7.1,9.3-12.9,15.6-17.9c0.1-0.1,0.2-0.2,0.3-0.3&#10;&#9;c2-1.4,2.7-1.1,3.2,1.2C967.8,250.1,968.1,253.7,968.1,257.8z" style="fill: rgb(21, 29, 56);"/>
<path class="st3" d="M175.4,298.1c0.1-18.1,3.7-32.7,9.6-46.8c4.9-11.6,11.3-22.3,19.7-31.7c6.5-7.4,13.9-13.7,22.9-17.8&#10;&#9;c4.5-2.1,9.1-3.6,14.1-3.6c9.1,0,15.5,5.9,16.2,15c0.4,5-0.3,9.9-2,14.6c-0.5,1.4-0.9,2.8-1.4,4.2c-0.1,0.3-0.1,0.7,0.3,0.9&#10;&#9;c0.3,0.2,0.6,0,0.8-0.1c0.6-0.5,1.2-1,1.7-1.5c7.1-6.8,14.7-12.7,23.3-17.6c4.4-2.5,8.9-4.6,13.7-6.1c0.5-0.2,1.1-0.3,1.6-0.4&#10;&#9;c0.7-0.1,1.3,0.2,1.5,0.9c0.2,0.7-0.1,1.2-0.7,1.6c-0.4,0.2-0.8,0.4-1.2,0.5c-12.4,4.1-22.9,11.3-32.5,19.8&#10;&#9;c-7.5,6.7-14.4,14-20.4,22c-0.4,0.6-0.9,1.1-1.4,1.5c-0.5,0.4-1.1,0.4-1.6,0c-0.5-0.4-0.6-1-0.4-1.5c0.3-0.8,0.8-1.3,1.3-1.9&#10;&#9;c4.5-5.9,8.4-12.2,11.3-19.1c2.1-5.1,3.6-10.3,3.4-15.8c-0.1-2.8-0.7-5.5-2.1-7.9c-2.3-4-5.8-5.8-10.3-6.1c-3-0.2-5.9,0.4-8.8,1.3&#10;&#9;c-6.9,2.1-12.9,5.9-18.4,10.6c-9.4,8-16.7,17.6-22.6,28.4c-7.6,13.8-12.5,28.4-14.3,44.1c-1.2,10-0.9,19.9,2,29.6&#10;&#9;c1.8,6,4.5,11.6,9,16.1c5.6,5.6,12.4,8,20.2,7.3c6.4-0.6,12-3,17.3-6.5c9.4-6.1,17-14.2,23.4-23.3c1.4-2,2.6-4,3.9-6&#10;&#9;c1-1.5,1.6-1.9,2.4-1.4c0.8,0.5,0.9,1.4,0,2.8c-3.9,6.6-8.5,12.7-13.8,18.2c-5.3,5.6-11.1,10.5-17.9,14.2c-5,2.7-10.3,4.6-16.1,4.9&#10;&#9;c-9.9,0.6-17.9-3.2-24-10.9c-4.1-5.3-6.6-11.3-8.1-17.8C176,306.8,175.3,301.1,175.4,298.1z" style="fill: rgb(21, 29, 56);"/>
<path class="st1" d="M1212.6,468c-0.1,1.1-0.2,2.1-0.3,3.2c-0.2,2,0.1,2.5,2.2,2.6c0.3,0,0.6,0,0.8,0c8.8,0.3,15.7,7,16.5,15.8&#10;&#9;c0.7,8.7-5.1,16.5-13.7,18.3c-0.7,0.1-1.4,0.2-2.1,0.3c-1.6,0.3-1.9,0.8-1.5,2.3c0.1,0.4,0.3,0.8,0.4,1.2c2.1,7-0.3,14.4-6,18.8&#10;&#9;c-5.7,4.4-13.5,4.8-19.7,0.9c-2.4-1.5-4.3-3.4-5.7-5.9c-0.3-0.5-0.6-1.1-1-1.7c-0.7-1.1-1.2-1.2-2.3-0.5c-0.5,0.3-0.9,0.7-1.3,1&#10;&#9;c-7.7,5.7-18.3,4.3-24.1-3.1c-5.6-7.1-4.6-17.5,2.1-23.6c0.3-0.2,0.6-0.4,0.8-0.7c0.8-0.9,0.8-1.5-0.1-2.4c-0.7-0.6-1.4-1.2-2.1-1.8&#10;&#9;c-6-5.9-7.1-14.9-2.5-21.9c4.5-6.9,13.2-9.6,21.1-6.5c3.6,1.4,3.6,1.4,4.8-2.1c2.6-7.7,9.6-12.2,17.9-11.7&#10;&#9;c7.4,0.5,13.7,6.1,15.3,13.7C1212.5,465.6,1212.5,466.7,1212.6,468z M1210.1,468c0-8.2-6.4-14.7-14.3-14.9&#10;&#9;c-8.3-0.2-14.9,5.9-15.2,14.1c0,0.5,0,1-0.1,1.5c-0.2,1.5-1.2,1.9-2.4,1.1c-1-0.6-1.9-1.5-2.9-2.1c-6.3-3.9-15-2.3-19.3,3.7&#10;&#9;c-5.6,7.8-3.2,18,5.4,22.3c0.4,0.2,0.9,0.4,1.3,0.7c1.3,0.8,1.3,1.7,0,2.6c-0.5,0.3-1,0.5-1.5,0.8c-5,3.1-7.6,7.6-7.4,13.4&#10;&#9;c0.3,6.4,4.5,11.6,10.5,13.5c5.8,1.8,12.1-0.2,16.1-5.2c0.3-0.4,0.6-0.8,0.9-1.2c1-1,1.9-0.8,2.5,0.5c0.2,0.5,0.3,1.1,0.5,1.6&#10;&#9;c1.9,6.1,5.9,9.9,12.2,10.9c6,0.9,10.9-1.5,14.3-6.4c3.5-5.2,3.5-10.7,0.2-16.2c-0.3-0.5-0.6-1-0.8-1.5c-0.4-1,0.1-1.7,1.1-1.8&#10;&#9;c0.6-0.1,1.3,0.1,1.9,0.1c5,0.4,9.2-1.2,12.6-4.9c4.3-4.8,5-11.7,1.8-17.1c-3.2-5.6-9.5-8.4-15.9-7.2c-0.6,0.1-1.3,0.3-1.9,0.3&#10;&#9;c-1,0-1.4-0.6-1.3-1.5c0.1-0.5,0.3-1.1,0.5-1.6C1209.6,471.7,1210.1,469.8,1210.1,468z" style="fill: rgb(247, 171, 0);"/>
<path class="st1" d="M1034,539.7c-2-1.8-3.4-3.5-4.6-5.3c-1-1.6-0.7-2.4,1.3-2.7c2.4-0.3,4.8-0.3,7.2-0.1c0.4,0,0.7,0.1,1.1,0.1&#10;&#9;c2.7,0.3,3,0.1,2.6-2.6c-0.6-4.1-0.5-8.2,0.2-12.2c0-0.1,0-0.1,0-0.2c0.5-2.6,1.2-2.9,3.3-1.4c1.6,1.2,3.1,2.7,4.4,4.2&#10;&#9;c1.5,1.8,2.9,3.6,4.1,5.6c1.2,2,1.7,2.1,3.3,0.4c1.8-1.9,3.6-3.8,5.8-5.3c0.4-0.3,0.8-0.6,1.2-0.8c1.5-0.8,2.3-0.4,2.5,1.3&#10;&#9;c0.5,3.3,0.3,6.6-0.4,9.9c-0.8,3.7-2.1,7.2-4.8,10c-0.3,0.3-0.6,0.7-0.7,1c-0.5,1.9-1.9,2.5-3.5,3c-0.7,0.2-1.3,0.4-2,0.7&#10;&#9;c-7.4,2.6-13.9,0.7-19.7-4.2C1034.8,540.6,1034.3,539.9,1034,539.7z" style="fill: rgb(247, 171, 0);"/>
<path class="st1" d="M561,728.9c0,2.8-0.3,5.6-1,8.4c-0.1,0.5-0.3,1-0.3,1.4c-0.2,1.5,0.1,2,1.6,2c1.1,0,2.3,0,3.4,0&#10;&#9;c2.1,0,4.1,0.2,6.1,0.7c2,0.5,2.4,1.3,1.1,2.9c-3.3,4-7.2,7.2-12.1,9c-1.6,0.6-3.2,1-4.9,1.1c-0.7,0-5.3,0.3-8-0.9&#10;&#9;c-7.3-3.4-10.6-9.4-11.2-17.1c-0.2-2.7-0.1-5.4,0.4-8c0.1-0.6,0.2-1.3,0.5-1.8c0.4-0.9,1-1.2,1.8-0.7c0.8,0.5,1.5,1.1,2.2,1.7&#10;&#9;c1.7,1.6,3.3,3.3,4.7,5.2c1.2,1.6,1.9,1.6,3.1,0c2.5-3.4,5.5-6.3,8.9-8.7c0.4-0.3,0.8-0.6,1.2-0.8c1.3-0.6,2-0.3,2.3,1.1&#10;&#9;C561,725.7,561,727.3,561,728.9z" style="fill: rgb(247, 171, 0);"/>
<path class="st3" d="M1194.1,359.8c-0.1,3-0.5,5.9-1.2,8.8c-0.6,2.4-0.3,2.8,2.1,2.7c2.5-0.1,5.1-0.1,7.6,0.4&#10;&#9;c0.6,0.1,1.1,0.2,1.7,0.4c1.5,0.5,1.7,1.2,0.8,2.5c0,0.1-0.1,0.1-0.1,0.2c-3.5,4.3-7.7,7.6-13,9.4c-1.3,0.5-2.7,0.7-4.1,0.8&#10;&#9;c-0.6,0-1.3,0-1.9,0.3c-1.5,0.8-2.9,0.5-4.2-0.3c-0.7-0.4-1.5-0.8-2.3-1.1c-6.4-3.1-9.6-8.3-10.5-15.1c-0.4-3.2-0.3-6.3,0.1-9.5&#10;&#9;c0.1-0.4,0.1-0.8,0.2-1.2c0.5-2,1.2-2.2,2.8-1.1c0.5,0.3,0.9,0.7,1.3,1.1c1.6,1.6,3.2,3.1,4.6,5c1.5,2.1,2.1,2.1,3.6,0.1&#10;&#9;c2.4-3.4,5.4-6.1,8.8-8.5c0.3-0.2,0.6-0.4,0.9-0.6c1.6-0.9,2.4-0.6,2.6,1.2C1194,356.7,1194,358.3,1194.1,359.8z" style="fill: rgb(21, 29, 56);"/>
<path class="st1" d="M290.3,508.7c0,4.7-0.5,8.6-2.2,12.1c-3.9,8-12.2,11.8-20.7,9.2c-5.9-1.8-10.3-5.7-13.9-10.5&#10;&#9;c-1-1.4-0.6-2.2,1.1-2.5c2.6-0.5,5.3-0.7,8-0.4c3.3,0.3,3.5,0,2.9-3.1c-0.7-3.8-0.7-7.7-0.3-11.6c0-0.6,0.1-1.1,0.3-1.7&#10;&#9;c0.4-1.2,1-1.4,2.1-0.9c0.5,0.3,1,0.6,1.4,0.9c3.2,2.5,6,5.3,8.3,8.7c0.3,0.4,0.5,0.8,0.9,1.2c0.6,0.7,1.3,0.7,2,0&#10;&#9;c0.5-0.6,1-1.2,1.5-1.8c1.6-2,3.5-3.7,5.6-5.2c1.7-1.2,2.5-0.8,2.8,1.2C290.2,506.2,290.3,507.9,290.3,508.7z" style="fill: rgb(247, 171, 0);"/>
<path class="st1" d="M393.8,543.6c-0.1-2.3,0.8-4.5,2.4-6.6c1.5-2,1.5-2.1-0.1-3.9c-3.2-3.7-3.8-8.9-1.4-13c2.4-4.1,7.2-6,12.1-4.9&#10;&#9;c0.3,0.1,0.7,0.2,1,0.3c1.7,0.4,2.1,0.2,2.9-1.4c0.1-0.3,0.2-0.5,0.4-0.8c2.3-4.5,7.1-6.8,12.1-5.8c4.8,1,8.2,5.1,8.5,10.1&#10;&#9;c0,0.1,0,0.3,0,0.4c0.1,2.7,0.1,2.7,2.7,3.3c5.1,1.1,8.5,4.9,8.8,9.8c0.3,5.4-2.5,9.6-7.7,11.3c-2.4,0.8-2.4,0.8-2.1,3.3&#10;&#9;c1,7.9-5.1,13.2-11.7,12.6c-2.9-0.3-5.3-1.5-7.2-3.6c-0.1-0.2-0.3-0.3-0.4-0.5c-1.7-2.1-1.7-2.1-4-0.9c-1.7,0.9-3.5,1.3-5.5,1.3&#10;&#9;C398.4,554.6,393.8,550,393.8,543.6z M440.7,532.1c0-5.1-4.3-8.9-9.4-8.4c-0.5,0.1-1,0.2-1.5,0.2c-1.2,0-1.7-0.6-1.5-1.7&#10;&#9;c0.1-0.7,0.4-1.4,0.6-2c1.1-4.6-2-9.3-6.6-10.2c-4.6-0.9-9.2,2.4-9.8,7.2c-0.4,3.4-0.8,3.6-3.7,1.8c-4.1-2.7-9.3-1.6-11.9,2.5&#10;&#9;c-2.5,4-1.3,9.2,2.9,11.5c2.5,1.4,2.6,2.7,0.2,4.2c-3.2,1.9-4.5,5.6-3.5,9c1.8,6.4,9.4,8.3,14.1,3.6c2.5-2.5,2.8-2.5,4.1,0.9&#10;&#9;c1.8,4.5,6.6,6.6,11,4.8c4.5-1.8,6.4-6.8,4.4-11.3c-0.2-0.5-0.5-0.9-0.7-1.3c-0.6-1.5-0.2-2.2,1.3-2.3c0.8-0.1,1.6,0,2.3-0.1&#10;&#9;C437.5,539.9,440.7,536.4,440.7,532.1z" style="fill: rgb(247, 171, 0);"/>
<path class="st3" d="M1215.9,619.7c0,4.7-2.8,8.6-7.2,10.2c-0.5,0.2-0.9,0.3-1.4,0.4c-1,0.3-1.5,1-1.3,2.1c0.1,0.9,0.2,1.8,0.2,2.7&#10;&#9;c0,4.7-2.6,8.5-6.9,10.2c-4.2,1.6-9.1,0.6-11.9-3c-2.1-2.6-2.7-2.4-5.2-1.1c-4.4,2.2-9.6,1.1-12.9-2.6c-3.1-3.5-3.4-8.8-0.9-13&#10;&#9;c0.6-1,1.8-1.7,1.7-3.1c-0.1-1.2-1.2-1.8-1.9-2.7c-2.6-3.5-2.8-8.6-0.4-12.4c2.4-3.8,7-5.9,11.4-4.7c3.6,1,3.8,0.2,5-2.3&#10;&#9;c2.2-4.3,7.1-6.4,11.9-5.3c4.7,1.1,8.2,5,8.4,9.9c0.1,2.8,0.1,3.3,3.3,4C1212.8,610.2,1216,614.5,1215.9,619.7z M1204.2,611.3&#10;&#9;c-3.3,0.2-3.6-0.1-2.6-3.2c1.4-4.4-1.6-9.7-6.5-10.6c-4.7-0.9-9.2,2.4-9.9,7.3c-0.1,0.5-0.1,1-0.2,1.5c-0.3,1.2-1.1,1.5-2.3,0.9&#10;&#9;c-0.6-0.3-1.1-0.7-1.6-1c-4-2.4-9-1.2-11.5,2.7c-2.4,3.9-1.2,9,2.7,11.5c0.5,0.3,1,0.5,1.5,0.9c1,0.8,1.1,1.6,0.1,2.4&#10;&#9;c-0.5,0.5-1.2,0.8-1.7,1.2c-3.7,2.9-4.3,8.3-1.3,11.9c3.3,3.8,8.6,4.2,12.2,0.8c0.5-0.5,1-1,1.5-1.5c1-0.8,1.8-0.6,2.3,0.5&#10;&#9;c0.3,0.6,0.5,1.3,0.7,2c1.9,4.3,6.8,6.2,11,4.3c4.3-1.9,6.2-6.9,4.2-11.2c-0.3-0.6-0.7-1.3-0.9-1.9c-0.3-0.9,0.1-1.5,1-1.7&#10;&#9;c0.8-0.1,1.5-0.1,2.3-0.1c1.8,0,3.5-0.6,4.9-1.8c2.9-2.4,4-6.2,2.6-9.5C1211.6,613,1208.2,611,1204.2,611.3z" style="fill: rgb(21, 29, 56);"/>
<path class="st3" d="M1039.1,403.8c0,4.6-2.9,8.6-7.3,10.2c-0.5,0.2-1.1,0.3-1.6,0.5c-0.8,0.3-1.2,0.9-1.1,1.8&#10;&#9;c0.1,0.6,0.2,1.3,0.2,1.9c0.4,5-2.3,9.4-6.7,11.2c-4.6,1.8-9.6,0.4-12.8-3.5c-1.6-2-1.6-2-4-0.8c-7.1,3.6-15.1-0.5-16.1-8.3&#10;&#9;c-0.4-3,0.6-5.7,2.4-8.1c1.5-2,1.5-2.1-0.2-3.9c-3.2-3.7-3.8-8.9-1.3-13c2.4-4,7.2-6,11.9-4.9c0.2,0,0.4,0.1,0.6,0.2&#10;&#9;c2.4,0.6,2.5,0.6,3.6-1.7c2.6-5.2,8.2-7.6,13.5-5.7c4.4,1.6,6.8,4.9,7.3,9.5c0,0.4,0,0.8,0,1.3c0.1,1.8,0.3,2.1,2.2,2.5&#10;&#9;c0.3,0.1,0.7,0.1,1,0.2C1035.9,394.4,1039.1,398.6,1039.1,403.8z M1036.6,403.7c0-5.2-4.4-9-9.8-8.3c-2.4,0.3-3-0.3-2.3-2.7&#10;&#9;c0.1-0.2,0.1-0.4,0.2-0.6c1.4-4.1-1.3-9.3-6.1-10.5c-4.7-1.1-9.4,2-10.2,6.9c-0.1,0.6-0.1,1.3-0.3,1.9c-0.3,1.1-1,1.5-2.1,0.9&#10;&#9;c-0.6-0.3-1.1-0.7-1.6-1c-4.1-2.5-9.1-1.4-11.7,2.7c-2.4,3.8-1.2,8.9,2.8,11.5c0.4,0.3,0.9,0.5,1.3,0.7c1.2,0.8,1.3,1.6,0.2,2.5&#10;&#9;c-0.5,0.4-1.1,0.7-1.6,1.1c-3.9,3-4.5,8.4-1.4,12c3.4,3.9,8.7,4.1,12.3,0.5c0.5-0.5,0.9-1.1,1.5-1.5c0.8-0.6,1.5-0.5,2,0.4&#10;&#9;c0.3,0.6,0.5,1.3,0.8,2c1.7,4.5,6.6,6.6,10.9,4.8c4.5-1.9,6.4-6.8,4.5-11.3c-0.3-0.6-0.6-1.1-0.8-1.7c-0.4-1.1,0.1-1.8,1.2-1.9&#10;&#9;c0.8-0.1,1.6,0,2.3-0.1C1033.3,411.7,1036.6,408.1,1036.6,403.7z" style="fill: rgb(21, 29, 56);"/>
<path class="st3" d="M481.4,393c0-4.2,3-7.3,7.2-7.3c4.1,0,7.3,3.2,7.3,7.2c0,4-3.3,7.3-7.3,7.3C484.6,400.1,481.4,396.9,481.4,393z&#10;&#9;" style="fill: rgb(21, 29, 56);"/>
<path class="st1" d="M1104.6,338.4c-4.1,0-7.1-3.3-7.1-7.4c0.1-4.1,3.1-7,7.2-7c4.1,0,7.3,3.3,7.2,7.3&#10;&#9;C1111.9,335.4,1108.7,338.5,1104.6,338.4z" style="fill: rgb(247, 171, 0);"/>
<path class="st3" d="M256,423.6c-3.9-0.1-7-3.3-7-7.3c0.1-4.2,3.3-7.3,7.6-7.1c4,0.1,7,3.4,6.9,7.4&#10;&#9;C263.4,420.7,260.2,423.7,256,423.6z" style="fill: rgb(21, 29, 56);"/>
<path class="st1" d="M797.2,739.5c0,4.1-3.1,7.3-7.2,7.3c-4,0-7.2-3.1-7.2-7.1c-0.1-4.2,3.1-7.4,7.3-7.4&#10;&#9;C794.1,732.3,797.2,735.5,797.2,739.5z" style="fill: rgb(247, 171, 0);"/>
<path class="st1" d="M502.8,371.5c2.4,0,4.3,1.9,4.3,4.3c0,2.3-1.9,4.1-4.2,4.2c-2.4,0-4.2-1.7-4.2-4.1&#10;&#9;C498.5,373.4,500.3,371.5,502.8,371.5z" style="fill: rgb(247, 171, 0);"/>
<path class="st1" d="M764.4,733c0-2.4,1.9-4.2,4.4-4.2c2.3,0.1,4.1,1.9,4.1,4.3c0,2.3-1.9,4.1-4.2,4.2&#10;&#9;C766.2,737.3,764.4,735.5,764.4,733z" style="fill: rgb(247, 171, 0);"/>
<path class="st1" d="M834.4,255c0,2.3-1.9,4.1-4.2,4.1c-2.4,0-4.3-1.9-4.2-4.3c0-2.3,1.9-4.1,4.2-4.1&#10;&#9;C832.6,250.7,834.4,252.5,834.4,255z" style="fill: rgb(247, 171, 0);"/>
<path class="st3" d="M323.1,596.5c0-2.4,1.8-4.3,4.3-4.2c2.3,0,4.1,1.8,4.1,4.2c0,2.3-1.8,4.2-4.1,4.3&#10;&#9;C325,600.8,323.1,598.9,323.1,596.5z" style="fill: rgb(21, 29, 56);"/>
<path class="st3" d="M1115.4,416.6c0,2.3-1.9,4.1-4.2,4.1c-2.5,0-4.3-1.8-4.2-4.3c0-2.3,1.9-4.1,4.2-4.1&#10;&#9;C1113.6,412.3,1115.5,414.1,1115.4,416.6z" style="fill: rgb(21, 29, 56);"/>
<path class="st1" d="M1083.5,320.6c2.3,0,4.2,1.8,4.2,4.1c0.1,2.3-1.9,4.3-4.2,4.3c-2.3,0-4.1-1.8-4.2-4.1&#10;&#9;C1079.2,322.5,1081,320.6,1083.5,320.6z" style="fill: rgb(247, 171, 0);"/>
<path class="st1" d="M1151.7,565.9c2.4,0,4.3,1.9,4.2,4.3c-0.1,2.3-2,4.1-4.3,4.1c-2.4,0-4.2-1.9-4.2-4.4&#10;&#9;C1147.6,567.6,1149.4,565.9,1151.7,565.9z" style="fill: rgb(247, 171, 0);"/>
<path class="st3" d="M339.9,245.7c0,1.4-1,2.6-2.4,2.6c-1.4,0.1-2.6-1-2.6-2.4c-0.1-1.4,1-2.6,2.4-2.6&#10;&#9;C338.7,243.3,339.8,244.3,339.9,245.7z" style="fill: rgb(21, 29, 56);"/>
<path class="st3" d="M1202.3,492.3c0,7.2-5.3,12.7-12.5,12.7c-7.1,0-12.6-5.5-12.7-12.6c0-7.1,5.5-12.7,12.5-12.7&#10;&#9;C1196.8,479.6,1202.3,485.1,1202.3,492.3z M1199.9,492.3c0-5.6-4.4-10.1-10-10.2c-5.6-0.1-10.4,4.7-10.3,10.2&#10;&#9;c0,5.6,4.7,10.2,10.3,10.2C1195.5,502.5,1199.9,498,1199.9,492.3z" style="fill: rgb(21, 29, 56);"/>
<path class="st3" d="M415.7,541c-4.6,0-8.1-3.4-8.1-8c0-4.6,3.4-8.1,8-8.1c4.5,0,8.1,3.5,8.1,8C423.7,537.4,420.3,540.9,415.7,541z&#10;&#9; M415.6,538.4c3,0,5.6-2.5,5.7-5.4c0-3-2.5-5.6-5.5-5.6c-3.2-0.1-5.7,2.4-5.7,5.6C410.1,536,412.6,538.4,415.6,538.4z" style="fill: rgb(21, 29, 56);"/>
<path class="st1" d="M1188.4,628.5c-4.6,0-8-3.5-7.9-8.1c0.1-4.6,3.6-8.1,8.1-8c4.5,0.1,8,3.7,7.9,8.2&#10;&#9;C1196.5,625.1,1193,628.5,1188.4,628.5z M1188.5,614.9c-3,0-5.5,2.5-5.6,5.5c0,3.1,2.5,5.7,5.7,5.6c3,0,5.5-2.6,5.5-5.6&#10;&#9;C1194,617.5,1191.4,614.9,1188.5,614.9z" style="fill: rgb(247, 171, 0);"/>
<path class="st1" d="M1011.4,412.6c-4.5-0.1-7.9-3.6-7.8-8.2c0.1-4.5,3.7-8,8.2-7.9c4.4,0.1,8,3.8,7.8,8.3&#10;&#9;C1019.5,409.3,1016,412.7,1011.4,412.6z M1011.6,399c-3.1,0-5.5,2.5-5.5,5.5c0,3.1,2.4,5.5,5.5,5.5c3.2,0,5.7-2.5,5.6-5.6&#10;&#9;C1017.1,401.5,1014.6,399,1011.6,399z" style="fill: rgb(247, 171, 0);"/>
<path class="st2" d="M671,283.2c-11.3-0.1-23.9,2.1-36,7c-16.3,6.7-29.2,17.3-38.2,32.5c-10.3,17.5-13.2,36.3-9.4,56.2&#10;&#9;c0.4,2.3,0,3.8-2,5.2c-10.7,7.8-20.5,16.6-29.6,26.2c-10.5,11.1-19.9,23.1-28.4,35.8c-15.3,23-27.2,47.7-36,73.9&#10;&#9;c-8,23.6-13.3,47.9-15.7,72.8c-0.8,8.2-1.3,16.3-1.3,24.5c0,1.6,0.4,3,1.4,4.3c1.8,2.4,3.2,5,4.4,7.7c1,2.2,2.1,4.5,3.1,6.7&#10;&#9;c3.2,7.7,8.8,12.6,16.8,15c3.3,1,6.6,2.2,9.8,3.4c5.1,1.9,9.4,4.8,12.8,9.1c2.2,2.7,4.4,5.4,6.3,8.2c5,7.2,11.8,11.1,20.6,11.8&#10;&#9;c3.8,0.3,7.6,0.8,11.3,1.5c4.2,0.8,8,2.4,11.4,4.9c2.2,1.6,4.3,3.4,6.4,5.2c2.2,1.9,4.5,3.9,6.9,5.7c3.9,2.8,8.2,4.3,13.1,4.2&#10;&#9;c3.6,0,7.2-0.2,10.8-0.7c8.3-1.1,16,0.2,23.2,4.5c2.4,1.5,4.9,2.7,7.4,4.1c6,3.3,12.2,4.3,18.8,2.3c1.8-0.5,3.5-1,5.3-1.6&#10;&#9;c3-0.9,6.1-1.9,9.2-2.6c3.9-0.8,7.8-0.9,11.8,0c3,0.6,5.9,1.5,8.8,2.4c2.8,0.9,5.5,1.7,8.4,2.3c4.5,0.9,8.8,0.4,13.1-1.4&#10;&#9;c1.6-0.7,3.2-1.5,4.8-2.3c2.8-1.5,5.6-3,8.4-4.5c5.4-2.9,11.2-4,17.4-3.5c4.9,0.4,9.7,1.1,14.6,1c4.2-0.1,7.9-1.1,11.4-3.4&#10;&#9;c1.5-1,3-2.1,4.4-3.3c2.6-2.2,5.2-4.4,7.7-6.6c4.7-4,10.1-6.4,16.3-7.2c2.1-0.3,4.2-0.5,6.3-0.8c2.7-0.3,5.3-0.7,8-1.2&#10;&#9;c5.1-1.1,9.3-3.7,12.6-7.7c2-2.5,4-4.9,5.8-7.5c5-7.2,11.6-12.1,20-14.5c2.9-0.8,5.8-2,8.6-3c5.5-2.1,9.7-5.7,12.4-11&#10;&#9;c1.4-2.8,2.7-5.6,4-8.4c1.5-3.3,3.2-6.5,5.3-9.4c0.9-1.1,1.1-2.4,1-3.8c-0.3-3.3-0.2-6.6-0.3-10c-0.5-11-1.6-22-3.3-32.9&#10;&#9;c-6.2-39-18.9-75.7-38.3-110.1c-13.7-24.2-30.2-46.2-50.7-65.1c-9.5-8.8-19.7-16.8-30.7-23.5c-1.7-1.1-2.4-2.3-2.2-4.3&#10;&#9;c0.6-5.1,0.7-10.2,0.1-15.2c-3.1-29.5-17.9-51-44.4-64.1C701.3,285.7,687.3,283.2,671,283.2z" style="fill: rgb(255, 255, 255);"/>
<path class="st0" d="M652,441.1c0.1-8.1,1.1-16.1,2.5-24c2.5-14.1,6-27.9,10.2-41.6c0.8-2.6,1.5-2.8,3.7-1.3c3.6,2.5,6.9,2.5,10.5,0&#10;&#9;c0.3-0.2,0.5-0.4,0.8-0.5c1-0.6,1.7-0.6,2.5,0.3c1,1.2,2,2.4,3,3.7c5.7,7.6,11.1,15.5,15.3,24.1c2.1,4.3,3.9,8.7,4.5,13.6&#10;&#9;c0.2,1.7,0.2,3.4-0.2,5.1c-1.4,5.5-7.2,8.3-12.4,5.9c-2.2-1.1-3.9-2.7-5.4-4.6c-2.6-3.2-4.4-6.8-6.1-10.5c-0.4-0.8-0.8-1.6-1.2-2.4&#10;&#9;c-0.1-0.3-0.3-0.6-0.7-0.5c-0.4,0.1-0.3,0.5-0.3,0.8c0.1,1.5,0.2,3.1,0.4,4.6c0.7,7.6,1.2,15.3,1,22.9c-0.2,5.6-0.6,11.2-2.1,16.6&#10;&#9;c-0.8,2.9-1.9,5.6-3.7,8c-4.6,6-13.7,5.8-18-0.5c-2.2-3.2-3.1-6.8-3.6-10.5C652.1,447.2,651.9,444.2,652,441.1z" style="fill: rgb(232, 56, 74);"/>
<path class="st0" d="M667.5,358.2c-0.8,0-1.3-0.4-1.4-1.2c-0.1-0.8-0.1-1.6-0.1-2.4c-0.1-3.2-0.2-6.4-0.2-9.6&#10;&#9;c0.1-4.1,0-8.2,0.2-12.3c0.1-1.5,0.9-2.1,2.4-1.6c2.7,0.9,5.4,1.9,8,2.8c7.8,2.7,15.6,5.5,23.5,8.2c0.9,0.3,1.9,0.5,2.9,0.8&#10;&#9;c0.8,0.3,1.5,0.7,1.5,1.7c0,1-0.7,1.4-1.5,1.7c-11.1,3.2-21.9,7.5-32.8,11.2C669.2,357.7,668.4,358.1,667.5,358.2z" style="fill: rgb(232, 56, 74);"/>
<path class="st3" d="M732.5,340c0,3.2-2.6,5.7-5.8,5.8c-3.2,0-5.8-2.6-5.8-5.8c0-3.3,2.6-5.8,5.8-5.8&#10;&#9;C730,334.2,732.5,336.7,732.5,340z" style="fill: rgb(21, 29, 56);"/>
<path class="st3" d="M614.5,348.3c0-3.4,2.5-5.9,5.8-5.8c3.2,0,5.8,2.6,5.8,5.9c0,3.2-2.6,5.8-5.9,5.8&#10;&#9;C616.9,354.1,614.5,351.6,614.5,348.3z" style="fill: rgb(21, 29, 56);"/>
<path class="st0" d="M726.3,320.3c3.1-0.1,6.6,1.1,9.8,3.3c0.4,0.3,0.8,0.6,1.1,1c0.4,0.5,0.6,1,0.2,1.5c-0.4,0.5-1,0.5-1.5,0.3&#10;&#9;c-0.4-0.2-0.7-0.4-1.1-0.6c-6.9-4.7-15.2-3.9-21.1,2c-0.3,0.3-0.6,0.6-0.9,0.8c-0.4,0.3-0.8,0.3-1.2,0c-0.4-0.3-0.6-0.8-0.4-1.3&#10;&#9;c0.1-0.6,0.5-1,0.9-1.4C715.8,322.2,720.2,320.3,726.3,320.3z" style="fill: rgb(232, 56, 74);"/>
<path class="st0" d="M624.3,334.3c-0.1,0-0.5-0.1-0.8-0.2c-7.9-2.1-15.5,1.4-19.1,8.7c-0.2,0.4-0.4,0.8-0.7,1.2&#10;&#9;c-0.3,0.5-0.8,0.8-1.4,0.5c-0.6-0.3-0.7-0.8-0.6-1.4c0.1-0.7,0.4-1.3,0.7-1.9c4-7.8,12.7-11.8,21.3-9.7c0.5,0.1,1,0.3,1.4,0.5&#10;&#9;c0.6,0.3,1.1,0.7,0.9,1.5C625.8,334.2,625.2,334.3,624.3,334.3z" style="fill: rgb(232, 56, 74);"/>
</svg>