<?xml version="1.0" encoding="utf-8"?>
<svg id="master-artboard" viewBox="0 0 1400 980" version="1.1" xmlns="http://www.w3.org/2000/svg" x="0px" y="0px" style="enable-background:new 0 0 1400 980;" width="1400px" height="980px"><rect id="ee-background" x="0" y="0" width="1400" height="980" style="fill: white; fill-opacity: 0; pointer-events: none;"/>


<g transform="matrix(5.998230457305908, 0, 0, 5.998230457305908, -3265.7586476277593, -103.88330196660242)"><g id="g-1" transform="matrix(1, 0, 0, 1, 0, 0)">
	<g id="g-2">
		<path class="st0" d="M652,46c27.6,0,50,22.4,50,50s-22.4,50-50,50s-50-22.4-50-50S624.4,46,652,46z" style="fill: rgb(51, 51, 51);"/>
	</g>
</g></g><path class="st1" d="M362.8,192.7c-11.9-27.8-44-40.7-71.8-28.8c-14.4,6.1-24.7,17.7-29.8,31.3c-13.3-5.8-28.8-6.3-43.2-0.1&#10;&#9;c-14.4,6.1-24.7,17.7-29.8,31.3c-13.3-5.8-28.8-6.3-43.2-0.1c-27.8,11.9-40.7,44-28.8,71.8c11.4,26.8,41.7,39.7,68.7,30l39.2,91.7&#10;&#9;c0,0,93.2,8,151.8-64.8l-39.2-91.7C362.7,250.3,374.2,219.5,362.8,192.7z" style="fill: rgb(212, 127, 121);" transform="matrix(0.3387656211853027, 0.9408712983131409, -0.9408712983131409, 0.3387656211853027, 1049.172943363082, 35.902056311485666)"/>

<g transform="matrix(1.042558193206787, 0, 0, 1.042558193206787, -133.79506763092593, 169.29316959273555)">
	<g>
		<path class="st1" d="M612.4,431.4l-0.8,3c3.5-3.2,7.7-5.2,12.2-5c11.5,0.4,14.8,11.9,14.1,28.4c-0.3,7.2-2.3,15-5.1,21.9&#10;&#9;&#9;&#9;c4.9-1.9,9.4-6.1,12.9-14.2c1,0,4.4,1.4,4.4,2.4c-4.2,10.1-12.5,16.8-20.7,18.9c-5.6,9.4-13.1,16.6-20.6,16.4&#10;&#9;&#9;&#9;c-11.8-0.4-15.6-11.3-15-27.6c0.4-9.9,2.4-21.9,5.3-34.7c9.1-41,14.5-66.1,29.7-65.5c6.6,0.3,9.3,4,9.1,9.8&#10;&#9;&#9;&#9;c-0.4,10.4-10.2,27.3-24.9,43.6L612.4,431.4z M616.9,486.3c-5.9-1.7-9.4-5.6-11.5-10.7c-0.3,9.3,0.2,15.5,4.1,15.7&#10;&#9;&#9;&#9;C612.2,491.4,614.7,489.6,616.9,486.3z M620,439.7c-7.2-0.3-12,9.3-12.4,19.4c-0.3,9.3,3.3,19.2,12.3,21.4&#10;&#9;&#9;&#9;c3.2-7.6,5.3-17.6,5.6-26.4C625.8,445.3,624.1,439.8,620,439.7z M630.5,388c0.1-1.4-0.6-2.3-1.4-2.3c-1.1,0-4.9,1.4-13.2,31.4&#10;&#9;&#9;&#9;c5.4-7.3,11.9-17.5,14.3-27.8C630.4,388.8,630.5,388.3,630.5,388z" style="fill: rgb(243, 243, 243);"/>
		<path class="st1" d="M684.1,432.3l11.4,0.4c-5.6,21.1-9.3,38.2-12.1,54c-0.4,1.7-0.4,3-0.5,4.1c-0.1,2.4,0.3,3.5,1.1,3.6&#10;&#9;&#9;&#9;c1.8,0.1,8.8-7.4,17.2-26.9c1,0,4.4,1.4,4.4,2.4c-10.7,25.2-19,36.1-26.3,35.8c-5.1-0.2-7.8-4.9-7.4-16c0-0.5,0-1.1,0.1-1.8&#10;&#9;&#9;&#9;c-4,9.6-10,17.9-19.2,17.5c-7.8-0.3-10.7-9-10.3-20.7c0.8-22.5,14.4-55.4,29.6-54.8c5.9,0.2,9.1,3.9,10,11.1L684.1,432.3z&#10;&#9;&#9;&#9; M655.9,483.8c-0.2,5,0.6,8.4,3,8.4c7.4,0.3,17.5-25.4,18-40.3c0.2-5.9-1.1-10.1-4.6-10.3C665.7,441.4,656.5,469.2,655.9,483.8z" style="fill: rgb(243, 243, 243);"/>
		<path class="st1" d="M693.5,505.5c-0.1-1.4-0.1-2.9,0-4.3c0.5-12.6,5.9-25.6,5.9-25.6c6.9-33.7,15.4-72.3,22.5-86.9&#10;&#9;&#9;&#9;c3.3-6.8,9-9.6,13.8-9.4c8,0.3,10.9,4.4,10.7,10.5c-0.5,13-15.1,34.3-25.4,46.1l-3.1,13.2c5.5-10.5,12.2-16.8,19.2-16.6&#10;&#9;&#9;&#9;c6.6,0.2,9.3,4.8,9,11.2c-0.4,10.6-9.1,25.8-21.7,32.2c4.7,7.5,3.3,18.9,7.8,19c3.8,0.1,11-7.4,18.7-25.6c1,0,4.4,1.5,4.4,2.4&#10;&#9;&#9;&#9;c-7.7,18-15.9,36.2-27.1,35.8c-13-0.5-12.1-18.9-14.3-28.7l-2.4-0.1c-1.8,9.1-3.6,18.3-5,27.2L693.5,505.5z M731.3,443.9&#10;&#9;&#9;&#9;c-3.8-0.1-9.3,5.1-16.8,20.8l-1,4.9c1.9,0.1,3.7,0.6,5.1,1.2c7.3-5.5,15.1-17.5,15.3-23.6c0.1-1.6-0.4-2.9-1.8-3.3&#10;&#9;&#9;&#9;C731.7,443.9,731.6,443.9,731.3,443.9z M737.5,392c0.1-1.4-0.6-2.3-1.4-2.3c-2.6-0.1-4.9,6.5-11.6,32.9c5-8.5,10.5-19.9,12.8-29.3&#10;&#9;&#9;&#9;C737.3,392.8,737.5,392.4,737.5,392z" style="fill: rgb(243, 243, 243);"/>
		<path class="st1" d="M796.7,471.1c1,0,4.4,1.4,4.4,2.4c-8.8,20.6-17.4,37-33.1,36.4c-13.9-0.5-19.2-13.5-18.6-28.6&#10;&#9;&#9;&#9;c0.8-21.8,13.8-47.8,31.7-47.2c8,0.3,11.8,6.2,11.5,13.6c-0.4,11.4-10.6,26.3-29.6,28.7c0,0.8-0.1,1.6-0.1,2.4&#10;&#9;&#9;&#9;c-0.4,9.6,2.1,17.4,9.4,17.7C781.8,496.8,790,487.2,796.7,471.1z M763.7,470.4c12.2-5.5,17.9-16.3,18.1-22.2&#10;&#9;&#9;&#9;c0.1-2.4-0.8-4-2.4-4.1C772.9,443.8,766.1,457.2,763.7,470.4z" style="fill: rgb(243, 243, 243);"/>
		<path class="st1" d="M846.5,385.3l12.6,0.5c-1.2,13.6-8.1,46.1-16,72.4c-3.7,17-5.3,27-5.5,32.3c-0.1,3.4,0.3,4.7,1.4,4.7&#10;&#9;&#9;&#9;c3.7,0.1,8.8-8.8,14.4-21.9c1,0,4.4,1.4,4.4,2.4c-10.7,25.2-20.3,36.1-27.6,35.8c-5.1-0.2-7.8-4.9-7.4-16c0-0.5,0-1.1,0.1-1.8&#10;&#9;&#9;&#9;c-4,9.6-10,17.9-19.1,17.5c-7.8-0.3-10.7-9.2-10.3-20.7c0.8-22.6,14.3-55.4,29.4-54.8c5.9,0.2,9.1,3.9,10,11.1L846.5,385.3z&#10;&#9;&#9;&#9; M807.1,489.5c-0.2,5,0.6,8.4,2.9,8.4c7.4,0.3,17.5-25.4,18-40.3c0.2-5.9-1.1-10.1-4.6-10.3C816.5,447.1,807.6,475.1,807.1,489.5z&#10;&#9;&#9;&#9;" style="fill: rgb(243, 243, 243);"/>
	</g>
	<g>
		<g>
			<path class="st1" d="M584.9,329c-1.6-3.4-2.3-6.8-2.1-10.4c0.6-13.1,13.6-24.7,34.8-25.2c4.9-30.7,11.2-49.5,17.4-61.1l-3.5-0.2&#10;&#9;&#9;&#9;&#9;c-23.5-1-47.1-11.8-80.2-13.3c-30.7-1.4-47.3,22.4-48.3,44.6c-0.8,18.6,9.1,36.1,31,37.1c22.1,1,30.6-14.7,31.4-32.9&#10;&#9;&#9;&#9;&#9;c0.1-2.9,0.1-5.8-0.1-8.8l14.5-1.9c0.2,3.2,0.4,6.4,0.2,9.6c-1,23.3-13.1,43.5-46.2,42c-32.3-1.4-47.2-24.2-46.1-47.8&#10;&#9;&#9;&#9;&#9;c1.2-27.2,23.6-55.7,64.5-53.9c34.5,1.5,61.5,15.7,81.5,16.6c2.7,0.1,5,0.1,7,0c5.9-7.3,11.3-9.3,14.9-9.9l5.3,7.4&#10;&#9;&#9;&#9;&#9;c-2.9,4.4-6.7,7.7-12.9,9.7c-3.8,9.1-8.9,26.8-14.3,62.8c4.2-0.5,8.1-1.4,11.5-2.5c3.8-9,7.4-14.6,7.4-14.6l8.6,4.9&#10;&#9;&#9;&#9;&#9;c-1.1,5.7-4.3,11.2-10.3,15.1c-1.1,7.5-2.6,19.3-3.2,32.2l-11.5-0.5c0.4-10.1,2.8-19.6,5.4-27.6c-2.8,0.7-5.8,1.3-9.2,1.7&#10;&#9;&#9;&#9;&#9;c-12.2,70.3-41.1,85.5-65.7,84.4c-26.1-1.1-36.3-16.7-35.6-31.4c0.6-13.9,10.8-27.1,26.3-26.6l-0.2,14.6&#10;&#9;&#9;&#9;&#9;c-7-0.3-11.8,6.5-12.2,14.2c-0.4,9.3,5.7,19.8,22.5,20.5c16.8,0.7,36.6-8.6,48.5-75.4c-10.6,1-19.1,4.9-19.6,14.8&#10;&#9;&#9;&#9;&#9;c-0.1,2.2,0.3,4.7,1,7.4L584.9,329z" style="fill: rgb(243, 243, 243);"/>
		</g>
		<g>
			<path class="st1" d="M686.7,342.5c3.5,0.2,9.5-8.1,17.3-26.1c0.8,0,4.4,1.3,4.4,2.3l0,0.2c-7.8,17.9-14.2,36.2-27.4,35.6&#10;&#9;&#9;&#9;&#9;c-7.5-0.3-10.4-4.6-10-12.1c0.4-9.1,8.5-21.7,8.8-29.9c0.2-5.4-1.7-9.5-3.9-13.5c-6,19.6-13.8,41-19.9,55.2l-4.4-2.4&#10;&#9;&#9;&#9;&#9;c5-11.6,13.7-39.1,20-60.6c-1.7-3.9-3.2-8.5-2.9-14.7c0.2-5,1.4-10.8,4.2-18.4l12,2.9c-0.6,6.4-2.6,15.3-5.3,25.2&#10;&#9;&#9;&#9;&#9;c4.8,6.5,13.7,13.6,13.2,24.1c-0.5,10.2-8.4,23.2-8.6,28.8C684.2,341.4,685.1,342.4,686.7,342.5z" style="fill: rgb(243, 243, 243);"/>
		</g>
		<g>
			<path class="st1" d="M749.7,318.3c1,0,4.4,1.5,4.4,2.4c-8.9,20.6-17.6,36.9-33.3,36.2c-13.9-0.6-19.1-13.7-18.4-28.7&#10;&#9;&#9;&#9;&#9;c1-21.7,14.1-47.8,32-47c8,0.4,11.7,6.3,11.4,13.6c-0.5,11.4-10.8,26.3-29.8,28.5c0,0.8-0.1,1.6-0.1,2.4&#10;&#9;&#9;&#9;&#9;c-0.4,9.6,2,17.4,9.3,17.7C734.7,343.9,743,334.4,749.7,318.3z M716.8,317.4c12.3-5.4,18-16.2,18.3-22.1c0.1-2.4-0.8-4-2.4-4.1&#10;&#9;&#9;&#9;&#9;C726.1,290.9,719.3,304.2,716.8,317.4z" style="fill: rgb(243, 243, 243);"/>
		</g>
		<g>
			<path class="st1" d="M753.7,340.4c1.9,3.6,3.8,5,6.8,5.1c4,0.2,6.4-2.6,6.6-8.4c0.4-9.9-3.8-19.7-6.8-31.2&#10;&#9;&#9;&#9;&#9;c-2,5.2-4.3,10.1-6.3,14.8c0,0-4.4-1-4.4-2.3l0-0.2c2.3-5.3,5.7-12.4,9-19.9c-0.9-4.9-1.5-10-1.2-15.4c0.3-6.4,1.7-13.4,4.6-21.1&#10;&#9;&#9;&#9;&#9;l10.8,2.6c-1.7,8.6-3.6,16.2-5.8,23.1c-0.1,13.5,14.8,30.8,14,48.7l0,0.6c3.3-4.8,6.1-10.6,8.7-16.8c1,0,4.4,1.5,4.4,2.4&#10;&#9;&#9;&#9;&#9;c-8.2,18.9-18,36.9-35.2,36.1c-7.5-0.3-13.4-4.9-15.3-11.6L753.7,340.4z" style="fill: rgb(243, 243, 243);"/>
		</g>
		<g>
			<path class="st1" d="M782,358c-0.1-1.4,0-2.9,0-4.3c0.6-12.6,6.1-25.5,6.1-25.5c7.1-33.6,15.8-72.2,23-86.8&#10;&#9;&#9;&#9;&#9;c3.3-6.7,9.1-9.5,13.9-9.3c8,0.4,10.9,4.5,10.6,10.6c-0.6,13-15.3,34.2-25.7,46c-0.6,2.9-1.4,5.7-2.1,8.7&#10;&#9;&#9;&#9;&#9;c5.6-7.8,12.4-12.4,19.3-12.1c5.6,0.2,9.1,4.1,8.8,11.8c-0.7,14.9-11.9,33.4-12.5,46.5c-0.2,4.6,1.5,5.5,3,5.6&#10;&#9;&#9;&#9;&#9;c4.2,0.2,9.8-8.5,17.7-26.6c1,0,4.4,1.5,4.4,2.4c-7.8,17.9-15.8,36.1-29,35.6c-5.6-0.3-10.7-5-10.2-14.7&#10;&#9;&#9;&#9;&#9;c0.8-17.3,11.9-34.6,12.4-46.1c0.1-1.8-0.7-3.2-2.4-3.3c-6.9-0.3-16.2,14.8-24.2,62.2L782,358z M825.3,242.5&#10;&#9;&#9;&#9;&#9;c-2.6-0.1-4.9,6.5-11.9,32.8c4.9-8.4,12.8-22.3,13.2-30.5C826.7,243.4,826.1,242.5,825.3,242.5z" style="fill: rgb(243, 243, 243);"/>
		</g>
		<g>
			<path class="st1" d="M880,324.1c0.8,0,3.8,1.4,3.8,2.2c0,0.2,0,0.2,0,0.2c-10.6,25.2-18.4,36.8-28.8,36.4&#10;&#9;&#9;&#9;&#9;c-9.6-0.4-13-10-12.3-26.7c0.5-11.7,3.1-26.9,7.1-45c9-39.8,19.8-57.4,29.1-57c8.3,0.4,10.4,7.2,10.1,15.3&#10;&#9;&#9;&#9;&#9;c-0.4,9.4-4.1,20.6-5.9,25.5c-7.5,20.7-18.9,35.9-25.6,43.4c-1.1,6.8-1.9,13.1-2.1,18.2c-0.5,10.7,1.8,14.2,5.5,14.3&#10;&#9;&#9;&#9;&#9;C865.9,351.1,872.4,341.5,880,324.1z M880.5,244.9c-4.3-0.2-15.3,33.9-21.2,63.5c8.6-14.2,21.6-40.4,22.7-59.9&#10;&#9;&#9;&#9;&#9;C882,246.3,881.3,245,880.5,244.9z" style="fill: rgb(243, 243, 243);"/>
		</g>
		<g>
			<path class="st1" d="M934.3,328.5c0,0.2,0,0.2,0,0.2c-6.8,15.4-16.1,26.4-25.1,34.9l-4.4,20.5c-3.4,16-10,27.6-20.3,27.1&#10;&#9;&#9;&#9;&#9;c-7.2-0.3-12.1-4.7-11.8-13.2c0.5-11,11.1-19.7,23.5-30.5l2.4-10.6c-3.2,4.2-7,6.7-11.3,6.5c-8.5-0.4-11-8.2-10.5-18.9&#10;&#9;&#9;&#9;&#9;c0.3-6.6,1.7-14.2,3.5-21.8c4.9-20.6,8.7-33.1,8.7-33.1l13.6,0.6c0,0-3.8,13.1-8.7,33.4c-2.2,8.9-3.9,16.3-4.2,22.7&#10;&#9;&#9;&#9;&#9;c-0.2,4.6,1.5,5.5,3,5.6c8,0.4,16.6-46.5,20.5-61.3l13.1,0.6c-2.2,7-8.8,36.5-14.6,61.7c7.1-7.4,13.7-16.1,18.3-26.8&#10;&#9;&#9;&#9;&#9;C931.4,326.3,934.4,327.6,934.3,328.5z M884.8,402.8c2.7,0.1,4.1-3,5.3-7.9l4-17c-7,6.7-11.9,12.8-12.3,20.4&#10;&#9;&#9;&#9;&#9;C881.6,401.3,883.2,402.7,884.8,402.8z" style="fill: rgb(243, 243, 243);"/>
		</g>
	</g>
	<g>
		<g>
			<g>
				<path class="st1" d="M638.1,178.2l-3.9-37.1l2.7-0.3c50.4-5.4,130.5-47.5,131.3-47.9c78.6-41.1,139.1-51.3,179.7-30.4&#10;&#9;&#9;&#9;&#9;&#9;c37.4,19.2,43.2,57.6,43.4,59.2c0.1,1.8,2.6,40.6-30,67.2c-35.3,29-96.6,31.7-182.1,8.1c-0.9-0.3-88-24.6-138.4-19.2&#10;&#9;&#9;&#9;&#9;&#9;L638.1,178.2z M640,145.8l2.8,26.5c51.6-4.4,134.2,18.6,137.8,19.6c83.7,23.1,143.3,20.7,177.2-7.1c30.4-24.9,28-62.1,28-62.5&#10;&#9;&#9;&#9;&#9;&#9;c0-0.2-5.7-37.2-40.6-55.1c-39-20-97.8-9.7-174.7,30.4C767.3,99.4,691.4,139.3,640,145.8z" style="fill: rgb(243, 243, 243);"/>
			</g>
		</g>
		<g>
			<g>
				<path class="st1" d="M637.5,172.7l-2.8-26l2.7-0.3c50.6-5.4,132-36,132.8-36.3c115.4-43.2,170.4-34.3,196.2-19.3&#10;&#9;&#9;&#9;&#9;&#9;c21.7,12.6,24.7,30.2,24.8,31c0.1,1,0.8,18.8-17.7,35.8c-22,20.1-73.9,40.4-195.8,22.5c-0.9-0.1-86.9-12.9-137.5-7.6&#10;&#9;&#9;&#9;&#9;&#9;L637.5,172.7z M640.6,151.4l1.6,15.4c51.5-4.8,135.3,7.7,136.2,7.8c119.8,17.6,170.2-1.8,191.4-21.1c16.7-15.2,16-31.1,16-31.2&#10;&#9;&#9;&#9;&#9;&#9;c-0.1-0.4-2.8-15.7-22.4-27c-24.8-14.3-78.2-22.6-191.4,19.8C771.3,115.3,692,145.2,640.6,151.4z" style="fill: rgb(243, 243, 243);"/>
			</g>
		</g>
		<g>
			<g>
				<path class="st1" d="M636.9,167.2l-1.6-15.1l2.7-0.3c50.7-5.4,133.6-24.6,134.4-24.8c148.6-34.4,196.2-23.4,211.4-13.8&#10;&#9;&#9;&#9;&#9;&#9;c6.2,3.9,7.2,7.7,7.4,8.4c0.1,1.3-0.2,5.2-5.4,10.3c-12.8,12.6-57,33.3-209.5,31c-0.9,0-85.9-1.4-136.6,4L636.9,167.2z&#10;&#9;&#9;&#9;&#9;&#9; M641.2,156.8l0.5,4.5c51.3-5.1,133.8-3.8,134.6-3.8c193.1,2.9,208.4-31.2,209.5-35.1c-1.8-3.4-23.5-33.8-212.2,9.8&#10;&#9;&#9;&#9;&#9;&#9;C772.7,132.4,692.4,151,641.2,156.8z" style="fill: rgb(243, 243, 243);"/>
			</g>
		</g>
		<g>
			<g>
				<path class="st4" d="M500.3,183l119.3-12.7l0.3,2.5c0.7,6.9,6.9,11.8,13.8,11.1c6.9-0.7,11.8-6.9,11.1-13.7l-2.4-22.5&#10;&#9;&#9;&#9;&#9;&#9;c-0.7-6.9-6.9-11.8-13.8-11.1c-6.9,0.7-11.8,6.9-11.1,13.7l0.3,2.5l-119.3,12.7c0,0-85.5-31.5-80.3,17.4&#10;&#9;&#9;&#9;&#9;&#9;C423.4,231.8,500.3,183,500.3,183z" style="fill: rgb(148, 195, 177);"/>
			</g>
		</g>
	</g>
</g>










</svg>